%TF.GenerationSoftware,KiCad,Pcbnew,8.0.8*%
%TF.CreationDate,2025-09-14T22:44:55+00:00*%
%TF.ProjectId,Attendance System_Simple,41747465-6e64-4616-9e63-652053797374,rev?*%
%TF.SameCoordinates,Original*%
%TF.FileFunction,Soldermask,Top*%
%TF.FilePolarity,Negative*%
%FSLAX46Y46*%
G04 Gerber Fmt 4.6, Leading zero omitted, Abs format (unit mm)*
G04 Created by KiCad (PCBNEW 8.0.8) date 2025-09-14 22:44:55*
%MOMM*%
%LPD*%
G01*
G04 APERTURE LIST*
G04 APERTURE END LIST*
G36*
X98902664Y-95541602D02*
G01*
X99065000Y-95613878D01*
X99208761Y-95718327D01*
X99327664Y-95850383D01*
X99416514Y-96004274D01*
X99471425Y-96173275D01*
X99490000Y-96350000D01*
X99471425Y-96526725D01*
X99416514Y-96695726D01*
X99327664Y-96849617D01*
X99208761Y-96981673D01*
X99065000Y-97086122D01*
X98902664Y-97158398D01*
X98728849Y-97195344D01*
X98551151Y-97195344D01*
X98377336Y-97158398D01*
X98215000Y-97086122D01*
X98071239Y-96981673D01*
X97952336Y-96849617D01*
X97863486Y-96695726D01*
X97808575Y-96526725D01*
X97790000Y-96350000D01*
X97808575Y-96173275D01*
X97863486Y-96004274D01*
X97952336Y-95850383D01*
X98071239Y-95718327D01*
X98215000Y-95613878D01*
X98377336Y-95541602D01*
X98551151Y-95504656D01*
X98728849Y-95504656D01*
X98902664Y-95541602D01*
G37*
G36*
X126902664Y-95541602D02*
G01*
X127065000Y-95613878D01*
X127208761Y-95718327D01*
X127327664Y-95850383D01*
X127416514Y-96004274D01*
X127471425Y-96173275D01*
X127490000Y-96350000D01*
X127471425Y-96526725D01*
X127416514Y-96695726D01*
X127327664Y-96849617D01*
X127208761Y-96981673D01*
X127065000Y-97086122D01*
X126902664Y-97158398D01*
X126728849Y-97195344D01*
X126551151Y-97195344D01*
X126377336Y-97158398D01*
X126215000Y-97086122D01*
X126071239Y-96981673D01*
X125952336Y-96849617D01*
X125863486Y-96695726D01*
X125808575Y-96526725D01*
X125790000Y-96350000D01*
X125808575Y-96173275D01*
X125863486Y-96004274D01*
X125952336Y-95850383D01*
X126071239Y-95718327D01*
X126215000Y-95613878D01*
X126377336Y-95541602D01*
X126551151Y-95504656D01*
X126728849Y-95504656D01*
X126902664Y-95541602D01*
G37*
G36*
X98902664Y-93001602D02*
G01*
X99065000Y-93073878D01*
X99208761Y-93178327D01*
X99327664Y-93310383D01*
X99416514Y-93464274D01*
X99471425Y-93633275D01*
X99490000Y-93810000D01*
X99471425Y-93986725D01*
X99416514Y-94155726D01*
X99327664Y-94309617D01*
X99208761Y-94441673D01*
X99065000Y-94546122D01*
X98902664Y-94618398D01*
X98728849Y-94655344D01*
X98551151Y-94655344D01*
X98377336Y-94618398D01*
X98215000Y-94546122D01*
X98071239Y-94441673D01*
X97952336Y-94309617D01*
X97863486Y-94155726D01*
X97808575Y-93986725D01*
X97790000Y-93810000D01*
X97808575Y-93633275D01*
X97863486Y-93464274D01*
X97952336Y-93310383D01*
X98071239Y-93178327D01*
X98215000Y-93073878D01*
X98377336Y-93001602D01*
X98551151Y-92964656D01*
X98728849Y-92964656D01*
X98902664Y-93001602D01*
G37*
G36*
X126902664Y-93001602D02*
G01*
X127065000Y-93073878D01*
X127208761Y-93178327D01*
X127327664Y-93310383D01*
X127416514Y-93464274D01*
X127471425Y-93633275D01*
X127490000Y-93810000D01*
X127471425Y-93986725D01*
X127416514Y-94155726D01*
X127327664Y-94309617D01*
X127208761Y-94441673D01*
X127065000Y-94546122D01*
X126902664Y-94618398D01*
X126728849Y-94655344D01*
X126551151Y-94655344D01*
X126377336Y-94618398D01*
X126215000Y-94546122D01*
X126071239Y-94441673D01*
X125952336Y-94309617D01*
X125863486Y-94155726D01*
X125808575Y-93986725D01*
X125790000Y-93810000D01*
X125808575Y-93633275D01*
X125863486Y-93464274D01*
X125952336Y-93310383D01*
X126071239Y-93178327D01*
X126215000Y-93073878D01*
X126377336Y-93001602D01*
X126551151Y-92964656D01*
X126728849Y-92964656D01*
X126902664Y-93001602D01*
G37*
G36*
X98902664Y-90461602D02*
G01*
X99065000Y-90533878D01*
X99208761Y-90638327D01*
X99327664Y-90770383D01*
X99416514Y-90924274D01*
X99471425Y-91093275D01*
X99490000Y-91270000D01*
X99471425Y-91446725D01*
X99416514Y-91615726D01*
X99327664Y-91769617D01*
X99208761Y-91901673D01*
X99065000Y-92006122D01*
X98902664Y-92078398D01*
X98728849Y-92115344D01*
X98551151Y-92115344D01*
X98377336Y-92078398D01*
X98215000Y-92006122D01*
X98071239Y-91901673D01*
X97952336Y-91769617D01*
X97863486Y-91615726D01*
X97808575Y-91446725D01*
X97790000Y-91270000D01*
X97808575Y-91093275D01*
X97863486Y-90924274D01*
X97952336Y-90770383D01*
X98071239Y-90638327D01*
X98215000Y-90533878D01*
X98377336Y-90461602D01*
X98551151Y-90424656D01*
X98728849Y-90424656D01*
X98902664Y-90461602D01*
G37*
G36*
X126902664Y-90461602D02*
G01*
X127065000Y-90533878D01*
X127208761Y-90638327D01*
X127327664Y-90770383D01*
X127416514Y-90924274D01*
X127471425Y-91093275D01*
X127490000Y-91270000D01*
X127471425Y-91446725D01*
X127416514Y-91615726D01*
X127327664Y-91769617D01*
X127208761Y-91901673D01*
X127065000Y-92006122D01*
X126902664Y-92078398D01*
X126728849Y-92115344D01*
X126551151Y-92115344D01*
X126377336Y-92078398D01*
X126215000Y-92006122D01*
X126071239Y-91901673D01*
X125952336Y-91769617D01*
X125863486Y-91615726D01*
X125808575Y-91446725D01*
X125790000Y-91270000D01*
X125808575Y-91093275D01*
X125863486Y-90924274D01*
X125952336Y-90770383D01*
X126071239Y-90638327D01*
X126215000Y-90533878D01*
X126377336Y-90461602D01*
X126551151Y-90424656D01*
X126728849Y-90424656D01*
X126902664Y-90461602D01*
G37*
G36*
X98902664Y-87921602D02*
G01*
X99065000Y-87993878D01*
X99208761Y-88098327D01*
X99327664Y-88230383D01*
X99416514Y-88384274D01*
X99471425Y-88553275D01*
X99490000Y-88730000D01*
X99471425Y-88906725D01*
X99416514Y-89075726D01*
X99327664Y-89229617D01*
X99208761Y-89361673D01*
X99065000Y-89466122D01*
X98902664Y-89538398D01*
X98728849Y-89575344D01*
X98551151Y-89575344D01*
X98377336Y-89538398D01*
X98215000Y-89466122D01*
X98071239Y-89361673D01*
X97952336Y-89229617D01*
X97863486Y-89075726D01*
X97808575Y-88906725D01*
X97790000Y-88730000D01*
X97808575Y-88553275D01*
X97863486Y-88384274D01*
X97952336Y-88230383D01*
X98071239Y-88098327D01*
X98215000Y-87993878D01*
X98377336Y-87921602D01*
X98551151Y-87884656D01*
X98728849Y-87884656D01*
X98902664Y-87921602D01*
G37*
G36*
X126902664Y-87921602D02*
G01*
X127065000Y-87993878D01*
X127208761Y-88098327D01*
X127327664Y-88230383D01*
X127416514Y-88384274D01*
X127471425Y-88553275D01*
X127490000Y-88730000D01*
X127471425Y-88906725D01*
X127416514Y-89075726D01*
X127327664Y-89229617D01*
X127208761Y-89361673D01*
X127065000Y-89466122D01*
X126902664Y-89538398D01*
X126728849Y-89575344D01*
X126551151Y-89575344D01*
X126377336Y-89538398D01*
X126215000Y-89466122D01*
X126071239Y-89361673D01*
X125952336Y-89229617D01*
X125863486Y-89075726D01*
X125808575Y-88906725D01*
X125790000Y-88730000D01*
X125808575Y-88553275D01*
X125863486Y-88384274D01*
X125952336Y-88230383D01*
X126071239Y-88098327D01*
X126215000Y-87993878D01*
X126377336Y-87921602D01*
X126551151Y-87884656D01*
X126728849Y-87884656D01*
X126902664Y-87921602D01*
G37*
G36*
X98902664Y-85381602D02*
G01*
X99065000Y-85453878D01*
X99208761Y-85558327D01*
X99327664Y-85690383D01*
X99416514Y-85844274D01*
X99471425Y-86013275D01*
X99490000Y-86190000D01*
X99471425Y-86366725D01*
X99416514Y-86535726D01*
X99327664Y-86689617D01*
X99208761Y-86821673D01*
X99065000Y-86926122D01*
X98902664Y-86998398D01*
X98728849Y-87035344D01*
X98551151Y-87035344D01*
X98377336Y-86998398D01*
X98215000Y-86926122D01*
X98071239Y-86821673D01*
X97952336Y-86689617D01*
X97863486Y-86535726D01*
X97808575Y-86366725D01*
X97790000Y-86190000D01*
X97808575Y-86013275D01*
X97863486Y-85844274D01*
X97952336Y-85690383D01*
X98071239Y-85558327D01*
X98215000Y-85453878D01*
X98377336Y-85381602D01*
X98551151Y-85344656D01*
X98728849Y-85344656D01*
X98902664Y-85381602D01*
G37*
G36*
X126902664Y-85381602D02*
G01*
X127065000Y-85453878D01*
X127208761Y-85558327D01*
X127327664Y-85690383D01*
X127416514Y-85844274D01*
X127471425Y-86013275D01*
X127490000Y-86190000D01*
X127471425Y-86366725D01*
X127416514Y-86535726D01*
X127327664Y-86689617D01*
X127208761Y-86821673D01*
X127065000Y-86926122D01*
X126902664Y-86998398D01*
X126728849Y-87035344D01*
X126551151Y-87035344D01*
X126377336Y-86998398D01*
X126215000Y-86926122D01*
X126071239Y-86821673D01*
X125952336Y-86689617D01*
X125863486Y-86535726D01*
X125808575Y-86366725D01*
X125790000Y-86190000D01*
X125808575Y-86013275D01*
X125863486Y-85844274D01*
X125952336Y-85690383D01*
X126071239Y-85558327D01*
X126215000Y-85453878D01*
X126377336Y-85381602D01*
X126551151Y-85344656D01*
X126728849Y-85344656D01*
X126902664Y-85381602D01*
G37*
G36*
X98902664Y-82841602D02*
G01*
X99065000Y-82913878D01*
X99208761Y-83018327D01*
X99327664Y-83150383D01*
X99416514Y-83304274D01*
X99471425Y-83473275D01*
X99490000Y-83650000D01*
X99471425Y-83826725D01*
X99416514Y-83995726D01*
X99327664Y-84149617D01*
X99208761Y-84281673D01*
X99065000Y-84386122D01*
X98902664Y-84458398D01*
X98728849Y-84495344D01*
X98551151Y-84495344D01*
X98377336Y-84458398D01*
X98215000Y-84386122D01*
X98071239Y-84281673D01*
X97952336Y-84149617D01*
X97863486Y-83995726D01*
X97808575Y-83826725D01*
X97790000Y-83650000D01*
X97808575Y-83473275D01*
X97863486Y-83304274D01*
X97952336Y-83150383D01*
X98071239Y-83018327D01*
X98215000Y-82913878D01*
X98377336Y-82841602D01*
X98551151Y-82804656D01*
X98728849Y-82804656D01*
X98902664Y-82841602D01*
G37*
G36*
X126902664Y-82841602D02*
G01*
X127065000Y-82913878D01*
X127208761Y-83018327D01*
X127327664Y-83150383D01*
X127416514Y-83304274D01*
X127471425Y-83473275D01*
X127490000Y-83650000D01*
X127471425Y-83826725D01*
X127416514Y-83995726D01*
X127327664Y-84149617D01*
X127208761Y-84281673D01*
X127065000Y-84386122D01*
X126902664Y-84458398D01*
X126728849Y-84495344D01*
X126551151Y-84495344D01*
X126377336Y-84458398D01*
X126215000Y-84386122D01*
X126071239Y-84281673D01*
X125952336Y-84149617D01*
X125863486Y-83995726D01*
X125808575Y-83826725D01*
X125790000Y-83650000D01*
X125808575Y-83473275D01*
X125863486Y-83304274D01*
X125952336Y-83150383D01*
X126071239Y-83018327D01*
X126215000Y-82913878D01*
X126377336Y-82841602D01*
X126551151Y-82804656D01*
X126728849Y-82804656D01*
X126902664Y-82841602D01*
G37*
G36*
X98902664Y-80301602D02*
G01*
X99065000Y-80373878D01*
X99208761Y-80478327D01*
X99327664Y-80610383D01*
X99416514Y-80764274D01*
X99471425Y-80933275D01*
X99490000Y-81110000D01*
X99471425Y-81286725D01*
X99416514Y-81455726D01*
X99327664Y-81609617D01*
X99208761Y-81741673D01*
X99065000Y-81846122D01*
X98902664Y-81918398D01*
X98728849Y-81955344D01*
X98551151Y-81955344D01*
X98377336Y-81918398D01*
X98215000Y-81846122D01*
X98071239Y-81741673D01*
X97952336Y-81609617D01*
X97863486Y-81455726D01*
X97808575Y-81286725D01*
X97790000Y-81110000D01*
X97808575Y-80933275D01*
X97863486Y-80764274D01*
X97952336Y-80610383D01*
X98071239Y-80478327D01*
X98215000Y-80373878D01*
X98377336Y-80301602D01*
X98551151Y-80264656D01*
X98728849Y-80264656D01*
X98902664Y-80301602D01*
G37*
G36*
X126902664Y-80301602D02*
G01*
X127065000Y-80373878D01*
X127208761Y-80478327D01*
X127327664Y-80610383D01*
X127416514Y-80764274D01*
X127471425Y-80933275D01*
X127490000Y-81110000D01*
X127471425Y-81286725D01*
X127416514Y-81455726D01*
X127327664Y-81609617D01*
X127208761Y-81741673D01*
X127065000Y-81846122D01*
X126902664Y-81918398D01*
X126728849Y-81955344D01*
X126551151Y-81955344D01*
X126377336Y-81918398D01*
X126215000Y-81846122D01*
X126071239Y-81741673D01*
X125952336Y-81609617D01*
X125863486Y-81455726D01*
X125808575Y-81286725D01*
X125790000Y-81110000D01*
X125808575Y-80933275D01*
X125863486Y-80764274D01*
X125952336Y-80610383D01*
X126071239Y-80478327D01*
X126215000Y-80373878D01*
X126377336Y-80301602D01*
X126551151Y-80264656D01*
X126728849Y-80264656D01*
X126902664Y-80301602D01*
G37*
G36*
X98902664Y-77761602D02*
G01*
X99065000Y-77833878D01*
X99208761Y-77938327D01*
X99327664Y-78070383D01*
X99416514Y-78224274D01*
X99471425Y-78393275D01*
X99490000Y-78570000D01*
X99471425Y-78746725D01*
X99416514Y-78915726D01*
X99327664Y-79069617D01*
X99208761Y-79201673D01*
X99065000Y-79306122D01*
X98902664Y-79378398D01*
X98728849Y-79415344D01*
X98551151Y-79415344D01*
X98377336Y-79378398D01*
X98215000Y-79306122D01*
X98071239Y-79201673D01*
X97952336Y-79069617D01*
X97863486Y-78915726D01*
X97808575Y-78746725D01*
X97790000Y-78570000D01*
X97808575Y-78393275D01*
X97863486Y-78224274D01*
X97952336Y-78070383D01*
X98071239Y-77938327D01*
X98215000Y-77833878D01*
X98377336Y-77761602D01*
X98551151Y-77724656D01*
X98728849Y-77724656D01*
X98902664Y-77761602D01*
G37*
G36*
X126902664Y-77761602D02*
G01*
X127065000Y-77833878D01*
X127208761Y-77938327D01*
X127327664Y-78070383D01*
X127416514Y-78224274D01*
X127471425Y-78393275D01*
X127490000Y-78570000D01*
X127471425Y-78746725D01*
X127416514Y-78915726D01*
X127327664Y-79069617D01*
X127208761Y-79201673D01*
X127065000Y-79306122D01*
X126902664Y-79378398D01*
X126728849Y-79415344D01*
X126551151Y-79415344D01*
X126377336Y-79378398D01*
X126215000Y-79306122D01*
X126071239Y-79201673D01*
X125952336Y-79069617D01*
X125863486Y-78915726D01*
X125808575Y-78746725D01*
X125790000Y-78570000D01*
X125808575Y-78393275D01*
X125863486Y-78224274D01*
X125952336Y-78070383D01*
X126071239Y-77938327D01*
X126215000Y-77833878D01*
X126377336Y-77761602D01*
X126551151Y-77724656D01*
X126728849Y-77724656D01*
X126902664Y-77761602D01*
G37*
G36*
X98902664Y-75221602D02*
G01*
X99065000Y-75293878D01*
X99208761Y-75398327D01*
X99327664Y-75530383D01*
X99416514Y-75684274D01*
X99471425Y-75853275D01*
X99490000Y-76030000D01*
X99471425Y-76206725D01*
X99416514Y-76375726D01*
X99327664Y-76529617D01*
X99208761Y-76661673D01*
X99065000Y-76766122D01*
X98902664Y-76838398D01*
X98728849Y-76875344D01*
X98551151Y-76875344D01*
X98377336Y-76838398D01*
X98215000Y-76766122D01*
X98071239Y-76661673D01*
X97952336Y-76529617D01*
X97863486Y-76375726D01*
X97808575Y-76206725D01*
X97790000Y-76030000D01*
X97808575Y-75853275D01*
X97863486Y-75684274D01*
X97952336Y-75530383D01*
X98071239Y-75398327D01*
X98215000Y-75293878D01*
X98377336Y-75221602D01*
X98551151Y-75184656D01*
X98728849Y-75184656D01*
X98902664Y-75221602D01*
G37*
G36*
X126902664Y-75221602D02*
G01*
X127065000Y-75293878D01*
X127208761Y-75398327D01*
X127327664Y-75530383D01*
X127416514Y-75684274D01*
X127471425Y-75853275D01*
X127490000Y-76030000D01*
X127471425Y-76206725D01*
X127416514Y-76375726D01*
X127327664Y-76529617D01*
X127208761Y-76661673D01*
X127065000Y-76766122D01*
X126902664Y-76838398D01*
X126728849Y-76875344D01*
X126551151Y-76875344D01*
X126377336Y-76838398D01*
X126215000Y-76766122D01*
X126071239Y-76661673D01*
X125952336Y-76529617D01*
X125863486Y-76375726D01*
X125808575Y-76206725D01*
X125790000Y-76030000D01*
X125808575Y-75853275D01*
X125863486Y-75684274D01*
X125952336Y-75530383D01*
X126071239Y-75398327D01*
X126215000Y-75293878D01*
X126377336Y-75221602D01*
X126551151Y-75184656D01*
X126728849Y-75184656D01*
X126902664Y-75221602D01*
G37*
G36*
X98902664Y-72681602D02*
G01*
X99065000Y-72753878D01*
X99208761Y-72858327D01*
X99327664Y-72990383D01*
X99416514Y-73144274D01*
X99471425Y-73313275D01*
X99490000Y-73490000D01*
X99471425Y-73666725D01*
X99416514Y-73835726D01*
X99327664Y-73989617D01*
X99208761Y-74121673D01*
X99065000Y-74226122D01*
X98902664Y-74298398D01*
X98728849Y-74335344D01*
X98551151Y-74335344D01*
X98377336Y-74298398D01*
X98215000Y-74226122D01*
X98071239Y-74121673D01*
X97952336Y-73989617D01*
X97863486Y-73835726D01*
X97808575Y-73666725D01*
X97790000Y-73490000D01*
X97808575Y-73313275D01*
X97863486Y-73144274D01*
X97952336Y-72990383D01*
X98071239Y-72858327D01*
X98215000Y-72753878D01*
X98377336Y-72681602D01*
X98551151Y-72644656D01*
X98728849Y-72644656D01*
X98902664Y-72681602D01*
G37*
G36*
X126902664Y-72681602D02*
G01*
X127065000Y-72753878D01*
X127208761Y-72858327D01*
X127327664Y-72990383D01*
X127416514Y-73144274D01*
X127471425Y-73313275D01*
X127490000Y-73490000D01*
X127471425Y-73666725D01*
X127416514Y-73835726D01*
X127327664Y-73989617D01*
X127208761Y-74121673D01*
X127065000Y-74226122D01*
X126902664Y-74298398D01*
X126728849Y-74335344D01*
X126551151Y-74335344D01*
X126377336Y-74298398D01*
X126215000Y-74226122D01*
X126071239Y-74121673D01*
X125952336Y-73989617D01*
X125863486Y-73835726D01*
X125808575Y-73666725D01*
X125790000Y-73490000D01*
X125808575Y-73313275D01*
X125863486Y-73144274D01*
X125952336Y-72990383D01*
X126071239Y-72858327D01*
X126215000Y-72753878D01*
X126377336Y-72681602D01*
X126551151Y-72644656D01*
X126728849Y-72644656D01*
X126902664Y-72681602D01*
G37*
G36*
X98902664Y-70141602D02*
G01*
X99065000Y-70213878D01*
X99208761Y-70318327D01*
X99327664Y-70450383D01*
X99416514Y-70604274D01*
X99471425Y-70773275D01*
X99490000Y-70950000D01*
X99471425Y-71126725D01*
X99416514Y-71295726D01*
X99327664Y-71449617D01*
X99208761Y-71581673D01*
X99065000Y-71686122D01*
X98902664Y-71758398D01*
X98728849Y-71795344D01*
X98551151Y-71795344D01*
X98377336Y-71758398D01*
X98215000Y-71686122D01*
X98071239Y-71581673D01*
X97952336Y-71449617D01*
X97863486Y-71295726D01*
X97808575Y-71126725D01*
X97790000Y-70950000D01*
X97808575Y-70773275D01*
X97863486Y-70604274D01*
X97952336Y-70450383D01*
X98071239Y-70318327D01*
X98215000Y-70213878D01*
X98377336Y-70141602D01*
X98551151Y-70104656D01*
X98728849Y-70104656D01*
X98902664Y-70141602D01*
G37*
G36*
X126902664Y-70141602D02*
G01*
X127065000Y-70213878D01*
X127208761Y-70318327D01*
X127327664Y-70450383D01*
X127416514Y-70604274D01*
X127471425Y-70773275D01*
X127490000Y-70950000D01*
X127471425Y-71126725D01*
X127416514Y-71295726D01*
X127327664Y-71449617D01*
X127208761Y-71581673D01*
X127065000Y-71686122D01*
X126902664Y-71758398D01*
X126728849Y-71795344D01*
X126551151Y-71795344D01*
X126377336Y-71758398D01*
X126215000Y-71686122D01*
X126071239Y-71581673D01*
X125952336Y-71449617D01*
X125863486Y-71295726D01*
X125808575Y-71126725D01*
X125790000Y-70950000D01*
X125808575Y-70773275D01*
X125863486Y-70604274D01*
X125952336Y-70450383D01*
X126071239Y-70318327D01*
X126215000Y-70213878D01*
X126377336Y-70141602D01*
X126551151Y-70104656D01*
X126728849Y-70104656D01*
X126902664Y-70141602D01*
G37*
G36*
X98902664Y-67601602D02*
G01*
X99065000Y-67673878D01*
X99208761Y-67778327D01*
X99327664Y-67910383D01*
X99416514Y-68064274D01*
X99471425Y-68233275D01*
X99490000Y-68410000D01*
X99471425Y-68586725D01*
X99416514Y-68755726D01*
X99327664Y-68909617D01*
X99208761Y-69041673D01*
X99065000Y-69146122D01*
X98902664Y-69218398D01*
X98728849Y-69255344D01*
X98551151Y-69255344D01*
X98377336Y-69218398D01*
X98215000Y-69146122D01*
X98071239Y-69041673D01*
X97952336Y-68909617D01*
X97863486Y-68755726D01*
X97808575Y-68586725D01*
X97790000Y-68410000D01*
X97808575Y-68233275D01*
X97863486Y-68064274D01*
X97952336Y-67910383D01*
X98071239Y-67778327D01*
X98215000Y-67673878D01*
X98377336Y-67601602D01*
X98551151Y-67564656D01*
X98728849Y-67564656D01*
X98902664Y-67601602D01*
G37*
G36*
X126902664Y-67601602D02*
G01*
X127065000Y-67673878D01*
X127208761Y-67778327D01*
X127327664Y-67910383D01*
X127416514Y-68064274D01*
X127471425Y-68233275D01*
X127490000Y-68410000D01*
X127471425Y-68586725D01*
X127416514Y-68755726D01*
X127327664Y-68909617D01*
X127208761Y-69041673D01*
X127065000Y-69146122D01*
X126902664Y-69218398D01*
X126728849Y-69255344D01*
X126551151Y-69255344D01*
X126377336Y-69218398D01*
X126215000Y-69146122D01*
X126071239Y-69041673D01*
X125952336Y-68909617D01*
X125863486Y-68755726D01*
X125808575Y-68586725D01*
X125790000Y-68410000D01*
X125808575Y-68233275D01*
X125863486Y-68064274D01*
X125952336Y-67910383D01*
X126071239Y-67778327D01*
X126215000Y-67673878D01*
X126377336Y-67601602D01*
X126551151Y-67564656D01*
X126728849Y-67564656D01*
X126902664Y-67601602D01*
G37*
G36*
X98902664Y-65061602D02*
G01*
X99065000Y-65133878D01*
X99208761Y-65238327D01*
X99327664Y-65370383D01*
X99416514Y-65524274D01*
X99471425Y-65693275D01*
X99490000Y-65870000D01*
X99471425Y-66046725D01*
X99416514Y-66215726D01*
X99327664Y-66369617D01*
X99208761Y-66501673D01*
X99065000Y-66606122D01*
X98902664Y-66678398D01*
X98728849Y-66715344D01*
X98551151Y-66715344D01*
X98377336Y-66678398D01*
X98215000Y-66606122D01*
X98071239Y-66501673D01*
X97952336Y-66369617D01*
X97863486Y-66215726D01*
X97808575Y-66046725D01*
X97790000Y-65870000D01*
X97808575Y-65693275D01*
X97863486Y-65524274D01*
X97952336Y-65370383D01*
X98071239Y-65238327D01*
X98215000Y-65133878D01*
X98377336Y-65061602D01*
X98551151Y-65024656D01*
X98728849Y-65024656D01*
X98902664Y-65061602D01*
G37*
G36*
X126902664Y-65061602D02*
G01*
X127065000Y-65133878D01*
X127208761Y-65238327D01*
X127327664Y-65370383D01*
X127416514Y-65524274D01*
X127471425Y-65693275D01*
X127490000Y-65870000D01*
X127471425Y-66046725D01*
X127416514Y-66215726D01*
X127327664Y-66369617D01*
X127208761Y-66501673D01*
X127065000Y-66606122D01*
X126902664Y-66678398D01*
X126728849Y-66715344D01*
X126551151Y-66715344D01*
X126377336Y-66678398D01*
X126215000Y-66606122D01*
X126071239Y-66501673D01*
X125952336Y-66369617D01*
X125863486Y-66215726D01*
X125808575Y-66046725D01*
X125790000Y-65870000D01*
X125808575Y-65693275D01*
X125863486Y-65524274D01*
X125952336Y-65370383D01*
X126071239Y-65238327D01*
X126215000Y-65133878D01*
X126377336Y-65061602D01*
X126551151Y-65024656D01*
X126728849Y-65024656D01*
X126902664Y-65061602D01*
G37*
G36*
X98902664Y-62521602D02*
G01*
X99065000Y-62593878D01*
X99208761Y-62698327D01*
X99327664Y-62830383D01*
X99416514Y-62984274D01*
X99471425Y-63153275D01*
X99490000Y-63330000D01*
X99471425Y-63506725D01*
X99416514Y-63675726D01*
X99327664Y-63829617D01*
X99208761Y-63961673D01*
X99065000Y-64066122D01*
X98902664Y-64138398D01*
X98728849Y-64175344D01*
X98551151Y-64175344D01*
X98377336Y-64138398D01*
X98215000Y-64066122D01*
X98071239Y-63961673D01*
X97952336Y-63829617D01*
X97863486Y-63675726D01*
X97808575Y-63506725D01*
X97790000Y-63330000D01*
X97808575Y-63153275D01*
X97863486Y-62984274D01*
X97952336Y-62830383D01*
X98071239Y-62698327D01*
X98215000Y-62593878D01*
X98377336Y-62521602D01*
X98551151Y-62484656D01*
X98728849Y-62484656D01*
X98902664Y-62521602D01*
G37*
G36*
X126902664Y-62521602D02*
G01*
X127065000Y-62593878D01*
X127208761Y-62698327D01*
X127327664Y-62830383D01*
X127416514Y-62984274D01*
X127471425Y-63153275D01*
X127490000Y-63330000D01*
X127471425Y-63506725D01*
X127416514Y-63675726D01*
X127327664Y-63829617D01*
X127208761Y-63961673D01*
X127065000Y-64066122D01*
X126902664Y-64138398D01*
X126728849Y-64175344D01*
X126551151Y-64175344D01*
X126377336Y-64138398D01*
X126215000Y-64066122D01*
X126071239Y-63961673D01*
X125952336Y-63829617D01*
X125863486Y-63675726D01*
X125808575Y-63506725D01*
X125790000Y-63330000D01*
X125808575Y-63153275D01*
X125863486Y-62984274D01*
X125952336Y-62830383D01*
X126071239Y-62698327D01*
X126215000Y-62593878D01*
X126377336Y-62521602D01*
X126551151Y-62484656D01*
X126728849Y-62484656D01*
X126902664Y-62521602D01*
G37*
G36*
X99490000Y-61640000D02*
G01*
X97790000Y-61640000D01*
X97790000Y-59940000D01*
X99490000Y-59940000D01*
X99490000Y-61640000D01*
G37*
G36*
X127490000Y-61640000D02*
G01*
X125790000Y-61640000D01*
X125790000Y-59940000D01*
X127490000Y-59940000D01*
X127490000Y-61640000D01*
G37*
G36*
X109192403Y-51861418D02*
G01*
X109241066Y-51893934D01*
X109273582Y-51942597D01*
X109285000Y-52000000D01*
X109285000Y-53250000D01*
X109273582Y-53307403D01*
X109241066Y-53356066D01*
X109192403Y-53388582D01*
X109135000Y-53400000D01*
X108835000Y-53400000D01*
X108777597Y-53388582D01*
X108728934Y-53356066D01*
X108696418Y-53307403D01*
X108685000Y-53250000D01*
X108685000Y-52000000D01*
X108696418Y-51942597D01*
X108728934Y-51893934D01*
X108777597Y-51861418D01*
X108835000Y-51850000D01*
X109135000Y-51850000D01*
X109192403Y-51861418D01*
G37*
G36*
X110192403Y-51861418D02*
G01*
X110241066Y-51893934D01*
X110273582Y-51942597D01*
X110285000Y-52000000D01*
X110285000Y-53250000D01*
X110273582Y-53307403D01*
X110241066Y-53356066D01*
X110192403Y-53388582D01*
X110135000Y-53400000D01*
X109835000Y-53400000D01*
X109777597Y-53388582D01*
X109728934Y-53356066D01*
X109696418Y-53307403D01*
X109685000Y-53250000D01*
X109685000Y-52000000D01*
X109696418Y-51942597D01*
X109728934Y-51893934D01*
X109777597Y-51861418D01*
X109835000Y-51850000D01*
X110135000Y-51850000D01*
X110192403Y-51861418D01*
G37*
G36*
X111192403Y-51861418D02*
G01*
X111241066Y-51893934D01*
X111273582Y-51942597D01*
X111285000Y-52000000D01*
X111285000Y-53250000D01*
X111273582Y-53307403D01*
X111241066Y-53356066D01*
X111192403Y-53388582D01*
X111135000Y-53400000D01*
X110835000Y-53400000D01*
X110777597Y-53388582D01*
X110728934Y-53356066D01*
X110696418Y-53307403D01*
X110685000Y-53250000D01*
X110685000Y-52000000D01*
X110696418Y-51942597D01*
X110728934Y-51893934D01*
X110777597Y-51861418D01*
X110835000Y-51850000D01*
X111135000Y-51850000D01*
X111192403Y-51861418D01*
G37*
G36*
X112192403Y-51861418D02*
G01*
X112241066Y-51893934D01*
X112273582Y-51942597D01*
X112285000Y-52000000D01*
X112285000Y-53250000D01*
X112273582Y-53307403D01*
X112241066Y-53356066D01*
X112192403Y-53388582D01*
X112135000Y-53400000D01*
X111835000Y-53400000D01*
X111777597Y-53388582D01*
X111728934Y-53356066D01*
X111696418Y-53307403D01*
X111685000Y-53250000D01*
X111685000Y-52000000D01*
X111696418Y-51942597D01*
X111728934Y-51893934D01*
X111777597Y-51861418D01*
X111835000Y-51850000D01*
X112135000Y-51850000D01*
X112192403Y-51861418D01*
G37*
G36*
X113192403Y-51861418D02*
G01*
X113241066Y-51893934D01*
X113273582Y-51942597D01*
X113285000Y-52000000D01*
X113285000Y-53250000D01*
X113273582Y-53307403D01*
X113241066Y-53356066D01*
X113192403Y-53388582D01*
X113135000Y-53400000D01*
X112835000Y-53400000D01*
X112777597Y-53388582D01*
X112728934Y-53356066D01*
X112696418Y-53307403D01*
X112685000Y-53250000D01*
X112685000Y-52000000D01*
X112696418Y-51942597D01*
X112728934Y-51893934D01*
X112777597Y-51861418D01*
X112835000Y-51850000D01*
X113135000Y-51850000D01*
X113192403Y-51861418D01*
G37*
G36*
X114192403Y-51861418D02*
G01*
X114241066Y-51893934D01*
X114273582Y-51942597D01*
X114285000Y-52000000D01*
X114285000Y-53250000D01*
X114273582Y-53307403D01*
X114241066Y-53356066D01*
X114192403Y-53388582D01*
X114135000Y-53400000D01*
X113835000Y-53400000D01*
X113777597Y-53388582D01*
X113728934Y-53356066D01*
X113696418Y-53307403D01*
X113685000Y-53250000D01*
X113685000Y-52000000D01*
X113696418Y-51942597D01*
X113728934Y-51893934D01*
X113777597Y-51861418D01*
X113835000Y-51850000D01*
X114135000Y-51850000D01*
X114192403Y-51861418D01*
G37*
G36*
X108039850Y-49200964D02*
G01*
X108090040Y-49206787D01*
X108107189Y-49214359D01*
X108130671Y-49219030D01*
X108155810Y-49235827D01*
X108175696Y-49244608D01*
X108189277Y-49258189D01*
X108211777Y-49273223D01*
X108226810Y-49295722D01*
X108240391Y-49309303D01*
X108249170Y-49329186D01*
X108265970Y-49354329D01*
X108270641Y-49377812D01*
X108278212Y-49394959D01*
X108284033Y-49445139D01*
X108285000Y-49450000D01*
X108285000Y-50750000D01*
X108284032Y-50754863D01*
X108278212Y-50805040D01*
X108270641Y-50822185D01*
X108265970Y-50845671D01*
X108249169Y-50870815D01*
X108240391Y-50890696D01*
X108226812Y-50904274D01*
X108211777Y-50926777D01*
X108189274Y-50941812D01*
X108175696Y-50955391D01*
X108155815Y-50964169D01*
X108130671Y-50980970D01*
X108107185Y-50985641D01*
X108090040Y-50993212D01*
X108039861Y-50999032D01*
X108035000Y-51000000D01*
X107335000Y-51000000D01*
X107330138Y-50999032D01*
X107279959Y-50993212D01*
X107262812Y-50985641D01*
X107239329Y-50980970D01*
X107214186Y-50964170D01*
X107194303Y-50955391D01*
X107180722Y-50941810D01*
X107158223Y-50926777D01*
X107143189Y-50904277D01*
X107129608Y-50890696D01*
X107120827Y-50870810D01*
X107104030Y-50845671D01*
X107099359Y-50822189D01*
X107091787Y-50805040D01*
X107085964Y-50754849D01*
X107085000Y-50750000D01*
X107085000Y-49450000D01*
X107085964Y-49445150D01*
X107091787Y-49394959D01*
X107099359Y-49377808D01*
X107104030Y-49354329D01*
X107120826Y-49329191D01*
X107129608Y-49309303D01*
X107143191Y-49295719D01*
X107158223Y-49273223D01*
X107180719Y-49258191D01*
X107194303Y-49244608D01*
X107214191Y-49235826D01*
X107239329Y-49219030D01*
X107262808Y-49214359D01*
X107279959Y-49206787D01*
X107330151Y-49200964D01*
X107335000Y-49200000D01*
X108035000Y-49200000D01*
X108039850Y-49200964D01*
G37*
G36*
X115639850Y-49200964D02*
G01*
X115690040Y-49206787D01*
X115707189Y-49214359D01*
X115730671Y-49219030D01*
X115755810Y-49235827D01*
X115775696Y-49244608D01*
X115789277Y-49258189D01*
X115811777Y-49273223D01*
X115826810Y-49295722D01*
X115840391Y-49309303D01*
X115849170Y-49329186D01*
X115865970Y-49354329D01*
X115870641Y-49377812D01*
X115878212Y-49394959D01*
X115884033Y-49445139D01*
X115885000Y-49450000D01*
X115885000Y-50750000D01*
X115884032Y-50754863D01*
X115878212Y-50805040D01*
X115870641Y-50822185D01*
X115865970Y-50845671D01*
X115849169Y-50870815D01*
X115840391Y-50890696D01*
X115826812Y-50904274D01*
X115811777Y-50926777D01*
X115789274Y-50941812D01*
X115775696Y-50955391D01*
X115755815Y-50964169D01*
X115730671Y-50980970D01*
X115707185Y-50985641D01*
X115690040Y-50993212D01*
X115639861Y-50999032D01*
X115635000Y-51000000D01*
X114935000Y-51000000D01*
X114930138Y-50999032D01*
X114879959Y-50993212D01*
X114862812Y-50985641D01*
X114839329Y-50980970D01*
X114814186Y-50964170D01*
X114794303Y-50955391D01*
X114780722Y-50941810D01*
X114758223Y-50926777D01*
X114743189Y-50904277D01*
X114729608Y-50890696D01*
X114720827Y-50870810D01*
X114704030Y-50845671D01*
X114699359Y-50822189D01*
X114691787Y-50805040D01*
X114685964Y-50754849D01*
X114685000Y-50750000D01*
X114685000Y-49450000D01*
X114685964Y-49445150D01*
X114691787Y-49394959D01*
X114699359Y-49377808D01*
X114704030Y-49354329D01*
X114720826Y-49329191D01*
X114729608Y-49309303D01*
X114743191Y-49295719D01*
X114758223Y-49273223D01*
X114780719Y-49258191D01*
X114794303Y-49244608D01*
X114814191Y-49235826D01*
X114839329Y-49219030D01*
X114862808Y-49214359D01*
X114879959Y-49206787D01*
X114930151Y-49200964D01*
X114935000Y-49200000D01*
X115635000Y-49200000D01*
X115639850Y-49200964D01*
G37*
M02*
