%TF.GenerationSoftware,KiCad,Pcbnew,8.0.8*%
%TF.CreationDate,2025-09-14T22:44:55+00:00*%
%TF.ProjectId,Attendance System_Simple,41747465-6e64-4616-9e63-652053797374,rev?*%
%TF.SameCoordinates,Original*%
%TF.FileFunction,Copper,L1,Top*%
%TF.FilePolarity,Positive*%
%FSLAX46Y46*%
G04 Gerber Fmt 4.6, Leading zero omitted, Abs format (unit mm)*
G04 Created by KiCad (PCBNEW 8.0.8) date 2025-09-14 22:44:55*
%MOMM*%
%LPD*%
G01*
G04 APERTURE LIST*
G04 Aperture macros list*
%AMRoundRect*
0 Rectangle with rounded corners*
0 $1 Rounding radius*
0 $2 $3 $4 $5 $6 $7 $8 $9 X,Y pos of 4 corners*
0 Add a 4 corners polygon primitive as box body*
4,1,4,$2,$3,$4,$5,$6,$7,$8,$9,$2,$3,0*
0 Add four circle primitives for the rounded corners*
1,1,$1+$1,$2,$3*
1,1,$1+$1,$4,$5*
1,1,$1+$1,$6,$7*
1,1,$1+$1,$8,$9*
0 Add four rect primitives between the rounded corners*
20,1,$1+$1,$2,$3,$4,$5,0*
20,1,$1+$1,$4,$5,$6,$7,0*
20,1,$1+$1,$6,$7,$8,$9,0*
20,1,$1+$1,$8,$9,$2,$3,0*%
G04 Aperture macros list end*
%TA.AperFunction,ComponentPad*%
%ADD10O,1.700000X1.700000*%
%TD*%
%TA.AperFunction,ComponentPad*%
%ADD11R,1.700000X1.700000*%
%TD*%
%TA.AperFunction,SMDPad,CuDef*%
%ADD12RoundRect,0.150000X-0.150000X-0.625000X0.150000X-0.625000X0.150000X0.625000X-0.150000X0.625000X0*%
%TD*%
%TA.AperFunction,SMDPad,CuDef*%
%ADD13RoundRect,0.250000X-0.350000X-0.650000X0.350000X-0.650000X0.350000X0.650000X-0.350000X0.650000X0*%
%TD*%
%TA.AperFunction,ViaPad*%
%ADD14C,0.600000*%
%TD*%
%TA.AperFunction,Conductor*%
%ADD15C,0.250000*%
%TD*%
%TA.AperFunction,Conductor*%
%ADD16C,0.600000*%
%TD*%
%TA.AperFunction,Conductor*%
%ADD17C,0.127000*%
%TD*%
G04 APERTURE END LIST*
D10*
%TO.P,J2,15,Pin_15*%
%TO.N,unconnected-(J2-Pin_15-Pad15)*%
X98640000Y-96350000D03*
%TO.P,J2,14,Pin_14*%
%TO.N,unconnected-(J2-Pin_14-Pad14)*%
X98640000Y-93810000D03*
%TO.P,J2,13,Pin_13*%
%TO.N,unconnected-(J2-Pin_13-Pad13)*%
X98640000Y-91270000D03*
%TO.P,J2,12,Pin_12*%
%TO.N,unconnected-(J2-Pin_12-Pad12)*%
X98640000Y-88730000D03*
%TO.P,J2,11,Pin_11*%
%TO.N,unconnected-(J2-Pin_11-Pad11)*%
X98640000Y-86190000D03*
%TO.P,J2,10,Pin_10*%
%TO.N,unconnected-(J2-Pin_10-Pad10)*%
X98640000Y-83650000D03*
%TO.P,J2,9,Pin_9*%
%TO.N,unconnected-(J2-Pin_9-Pad9)*%
X98640000Y-81110000D03*
%TO.P,J2,8,Pin_8*%
%TO.N,unconnected-(J2-Pin_8-Pad8)*%
X98640000Y-78570000D03*
%TO.P,J2,7,Pin_7*%
%TO.N,unconnected-(J2-Pin_7-Pad7)*%
X98640000Y-76030000D03*
%TO.P,J2,6,Pin_6*%
%TO.N,unconnected-(J2-Pin_6-Pad6)*%
X98640000Y-73490000D03*
%TO.P,J2,5,Pin_5*%
%TO.N,unconnected-(J2-Pin_5-Pad5)*%
X98640000Y-70950000D03*
%TO.P,J2,4,Pin_4*%
%TO.N,unconnected-(J2-Pin_4-Pad4)*%
X98640000Y-68410000D03*
%TO.P,J2,3,Pin_3*%
%TO.N,unconnected-(J2-Pin_3-Pad3)*%
X98640000Y-65870000D03*
%TO.P,J2,2,Pin_2*%
%TO.N,unconnected-(J2-Pin_2-Pad2)*%
X98640000Y-63330000D03*
D11*
%TO.P,J2,1,Pin_1*%
%TO.N,unconnected-(J2-Pin_1-Pad1)*%
X98640000Y-60790000D03*
%TD*%
%TO.P,J1,1,Pin_1*%
%TO.N,unconnected-(J1-Pin_1-Pad1)*%
X126640000Y-60790000D03*
D10*
%TO.P,J1,2,Pin_2*%
%TO.N,unconnected-(J1-Pin_2-Pad2)*%
X126640000Y-63330000D03*
%TO.P,J1,3,Pin_3*%
%TO.N,unconnected-(J1-Pin_3-Pad3)*%
X126640000Y-65870000D03*
%TO.P,J1,4,Pin_4*%
%TO.N,unconnected-(J1-Pin_4-Pad4)*%
X126640000Y-68410000D03*
%TO.P,J1,5,Pin_5*%
%TO.N,unconnected-(J1-Pin_5-Pad5)*%
X126640000Y-70950000D03*
%TO.P,J1,6,Pin_6*%
%TO.N,unconnected-(J1-Pin_6-Pad6)*%
X126640000Y-73490000D03*
%TO.P,J1,7,Pin_7*%
%TO.N,unconnected-(J1-Pin_7-Pad7)*%
X126640000Y-76030000D03*
%TO.P,J1,8,Pin_8*%
%TO.N,unconnected-(J1-Pin_8-Pad8)*%
X126640000Y-78570000D03*
%TO.P,J1,9,Pin_9*%
%TO.N,RX*%
X126640000Y-81110000D03*
%TO.P,J1,10,Pin_10*%
%TO.N,TX*%
X126640000Y-83650000D03*
%TO.P,J1,11,Pin_11*%
%TO.N,unconnected-(J1-Pin_11-Pad11)*%
X126640000Y-86190000D03*
%TO.P,J1,12,Pin_12*%
%TO.N,unconnected-(J1-Pin_12-Pad12)*%
X126640000Y-88730000D03*
%TO.P,J1,13,Pin_13*%
%TO.N,unconnected-(J1-Pin_13-Pad13)*%
X126640000Y-91270000D03*
%TO.P,J1,14,Pin_14*%
%TO.N,GND*%
X126640000Y-93810000D03*
%TO.P,J1,15,Pin_15*%
%TO.N,+3V3*%
X126640000Y-96350000D03*
%TD*%
D12*
%TO.P,J3,1,Pin_1*%
%TO.N,+3V3*%
X108985000Y-52625000D03*
%TO.P,J3,2,Pin_2*%
%TO.N,unconnected-(J3-Pin_2-Pad2)*%
X109985000Y-52625000D03*
%TO.P,J3,3,Pin_3*%
%TO.N,RX*%
X110985000Y-52625000D03*
%TO.P,J3,4,Pin_4*%
%TO.N,TX*%
X111985000Y-52625000D03*
%TO.P,J3,5,Pin_5*%
%TO.N,GND*%
X112985000Y-52625000D03*
%TO.P,J3,6,Pin_6*%
%TO.N,+3V3*%
X113985000Y-52625000D03*
D13*
%TO.P,J3,MP*%
%TO.N,N/C*%
X107685000Y-50100000D03*
X115285000Y-50100000D03*
%TD*%
D14*
%TO.N,TX*%
X116300000Y-74900000D03*
X116400000Y-67000000D03*
%TO.N,GND*%
X125800000Y-93300000D03*
X124300000Y-91600000D03*
X120700000Y-84700000D03*
X112900000Y-75800000D03*
X113000000Y-54500000D03*
%TD*%
D15*
%TO.N,TX*%
X125050000Y-83650000D02*
X126640000Y-83650000D01*
X116300000Y-74900000D02*
X125050000Y-83650000D01*
X111985000Y-62585000D02*
X116400000Y-67000000D01*
X111985000Y-52625000D02*
X111985000Y-62585000D01*
%TO.N,RX*%
X110985000Y-65455000D02*
X126640000Y-81110000D01*
X110985000Y-52625000D02*
X110985000Y-65455000D01*
D16*
%TO.N,GND*%
X124300000Y-91800000D02*
X125800000Y-93300000D01*
X124300000Y-91600000D02*
X124300000Y-91800000D01*
X113200000Y-77200000D02*
X120700000Y-84700000D01*
X113200000Y-76100000D02*
X113200000Y-77200000D01*
X112900000Y-75800000D02*
X113200000Y-76100000D01*
X112985000Y-54485000D02*
X113000000Y-54500000D01*
X112985000Y-52625000D02*
X112985000Y-54485000D01*
%TO.N,+3V3*%
X108985000Y-78695000D02*
X126640000Y-96350000D01*
X108985000Y-52625000D02*
X108985000Y-78695000D01*
X109277000Y-51423000D02*
X108985000Y-51715000D01*
X113557999Y-51423000D02*
X109277000Y-51423000D01*
X113985000Y-51850001D02*
X113557999Y-51423000D01*
X108985000Y-51715000D02*
X108985000Y-52625000D01*
X113985000Y-52625000D02*
X113985000Y-51850001D01*
D17*
X113985000Y-51985000D02*
X113985000Y-52625000D01*
%TD*%
%TA.AperFunction,Conductor*%
%TO.N,+3V3*%
G36*
X94489551Y-47210185D02*
G01*
X94535306Y-47262989D01*
X94545250Y-47332147D01*
X94516225Y-47395703D01*
X94473405Y-47427574D01*
X94204292Y-47548692D01*
X94111589Y-47604732D01*
X93916153Y-47722878D01*
X93651127Y-47930514D01*
X93651114Y-47930525D01*
X93413067Y-48168572D01*
X93413056Y-48168585D01*
X93205420Y-48433611D01*
X93031233Y-48721752D01*
X93031232Y-48721754D01*
X92993603Y-48805362D01*
X92914401Y-48981344D01*
X92893051Y-49028781D01*
X92893047Y-49028792D01*
X92792891Y-49350206D01*
X92792889Y-49350212D01*
X92792889Y-49350215D01*
X92783767Y-49399992D01*
X92732199Y-49681391D01*
X92711871Y-50017458D01*
X92732199Y-50353524D01*
X92732199Y-50353529D01*
X92732200Y-50353530D01*
X92792889Y-50684701D01*
X92792890Y-50684705D01*
X92792891Y-50684709D01*
X92893047Y-51006123D01*
X92893051Y-51006134D01*
X92893052Y-51006137D01*
X92893054Y-51006142D01*
X93031234Y-51313166D01*
X93200555Y-51593257D01*
X93205420Y-51601304D01*
X93267380Y-51680389D01*
X93413055Y-51866330D01*
X93413061Y-51866336D01*
X93413067Y-51866343D01*
X93651114Y-52104390D01*
X93651120Y-52104395D01*
X93651128Y-52104403D01*
X93793313Y-52215797D01*
X93916153Y-52312037D01*
X93916158Y-52312040D01*
X93916162Y-52312043D01*
X94204292Y-52486224D01*
X94511316Y-52624404D01*
X94511326Y-52624407D01*
X94511334Y-52624410D01*
X94653682Y-52668767D01*
X94832757Y-52724569D01*
X95163928Y-52785258D01*
X95500000Y-52805587D01*
X95836072Y-52785258D01*
X96167243Y-52724569D01*
X96488684Y-52624404D01*
X96795708Y-52486224D01*
X97083838Y-52312043D01*
X97348872Y-52104403D01*
X97586945Y-51866330D01*
X97794585Y-51601296D01*
X97968766Y-51313166D01*
X98106946Y-51006142D01*
X98207111Y-50684701D01*
X98267800Y-50353530D01*
X98288129Y-50017458D01*
X98267800Y-49681386D01*
X98216231Y-49399983D01*
X106584500Y-49399983D01*
X106584500Y-50800001D01*
X106584501Y-50800018D01*
X106595000Y-50902796D01*
X106595001Y-50902799D01*
X106629246Y-51006142D01*
X106650186Y-51069334D01*
X106742288Y-51218656D01*
X106866344Y-51342712D01*
X107015666Y-51434814D01*
X107182203Y-51489999D01*
X107284991Y-51500500D01*
X108085008Y-51500499D01*
X108149523Y-51493908D01*
X108218213Y-51506677D01*
X108269098Y-51554557D01*
X108286019Y-51622347D01*
X108268856Y-51680386D01*
X108233716Y-51739805D01*
X108233716Y-51739806D01*
X108187900Y-51897504D01*
X108187899Y-51897510D01*
X108185000Y-51934350D01*
X108185000Y-52375000D01*
X108735000Y-52375000D01*
X108735000Y-51934298D01*
X109184500Y-51934298D01*
X109184500Y-53315701D01*
X109187401Y-53352567D01*
X109187402Y-53352573D01*
X109230076Y-53499455D01*
X109235000Y-53534050D01*
X109235000Y-53897295D01*
X109235001Y-53897295D01*
X109237486Y-53897100D01*
X109395199Y-53851281D01*
X109421386Y-53835794D01*
X109489110Y-53818610D01*
X109547628Y-53835791D01*
X109574602Y-53851744D01*
X109574604Y-53851744D01*
X109574605Y-53851745D01*
X109732426Y-53897597D01*
X109732429Y-53897597D01*
X109732431Y-53897598D01*
X109769306Y-53900500D01*
X109769314Y-53900500D01*
X110200686Y-53900500D01*
X110200694Y-53900500D01*
X110225771Y-53898526D01*
X110294147Y-53912890D01*
X110343904Y-53961940D01*
X110359500Y-54022144D01*
X110359500Y-65516611D01*
X110383535Y-65637444D01*
X110383540Y-65637461D01*
X110430684Y-65751278D01*
X110430687Y-65751285D01*
X110444169Y-65771460D01*
X110444170Y-65771462D01*
X110499141Y-65853732D01*
X110499144Y-65853736D01*
X110590586Y-65945178D01*
X110590608Y-65945198D01*
X125299762Y-80654352D01*
X125333247Y-80715675D01*
X125331856Y-80774126D01*
X125304938Y-80874586D01*
X125304936Y-80874596D01*
X125284341Y-81109999D01*
X125284341Y-81110000D01*
X125304936Y-81345403D01*
X125304938Y-81345413D01*
X125366094Y-81573655D01*
X125366096Y-81573659D01*
X125366097Y-81573663D01*
X125465965Y-81787830D01*
X125465967Y-81787834D01*
X125601501Y-81981395D01*
X125601506Y-81981402D01*
X125768597Y-82148493D01*
X125768603Y-82148498D01*
X125954158Y-82278425D01*
X125997783Y-82333002D01*
X126004977Y-82402500D01*
X125973454Y-82464855D01*
X125954158Y-82481575D01*
X125768597Y-82611505D01*
X125601505Y-82778597D01*
X125466348Y-82971623D01*
X125411771Y-83015248D01*
X125364773Y-83024500D01*
X125360453Y-83024500D01*
X125293414Y-83004815D01*
X125272772Y-82988181D01*
X117126211Y-74841621D01*
X117092726Y-74780298D01*
X117090673Y-74767838D01*
X117085368Y-74720745D01*
X117025789Y-74550478D01*
X116929816Y-74397738D01*
X116802262Y-74270184D01*
X116649523Y-74174211D01*
X116479254Y-74114631D01*
X116479249Y-74114630D01*
X116300004Y-74094435D01*
X116299996Y-74094435D01*
X116120750Y-74114630D01*
X116120745Y-74114631D01*
X115950476Y-74174211D01*
X115797737Y-74270184D01*
X115670184Y-74397737D01*
X115574211Y-74550476D01*
X115514631Y-74720745D01*
X115514630Y-74720750D01*
X115494435Y-74899995D01*
X115494435Y-74900003D01*
X115514630Y-75079249D01*
X115514631Y-75079254D01*
X115574211Y-75249523D01*
X115670184Y-75402262D01*
X115797738Y-75529816D01*
X115856125Y-75566503D01*
X115942450Y-75620745D01*
X115950478Y-75625789D01*
X116120745Y-75685368D01*
X116167823Y-75690672D01*
X116232236Y-75717737D01*
X116241621Y-75726211D01*
X124651263Y-84135855D01*
X124651267Y-84135858D01*
X124753710Y-84204309D01*
X124753711Y-84204309D01*
X124753715Y-84204312D01*
X124820396Y-84231931D01*
X124820398Y-84231933D01*
X124867543Y-84251461D01*
X124867548Y-84251463D01*
X124887597Y-84255451D01*
X124921196Y-84262134D01*
X124988392Y-84275501D01*
X124988394Y-84275501D01*
X125117721Y-84275501D01*
X125117741Y-84275500D01*
X125364773Y-84275500D01*
X125431812Y-84295185D01*
X125466348Y-84328377D01*
X125601501Y-84521396D01*
X125601506Y-84521402D01*
X125768597Y-84688493D01*
X125768603Y-84688498D01*
X125954158Y-84818425D01*
X125997783Y-84873002D01*
X126004977Y-84942500D01*
X125973454Y-85004855D01*
X125954158Y-85021575D01*
X125768597Y-85151505D01*
X125601505Y-85318597D01*
X125465965Y-85512169D01*
X125465964Y-85512171D01*
X125366098Y-85726335D01*
X125366094Y-85726344D01*
X125304938Y-85954586D01*
X125304936Y-85954596D01*
X125284341Y-86189999D01*
X125284341Y-86190000D01*
X125304936Y-86425403D01*
X125304938Y-86425413D01*
X125366094Y-86653655D01*
X125366096Y-86653659D01*
X125366097Y-86653663D01*
X125465965Y-86867830D01*
X125465967Y-86867834D01*
X125601501Y-87061395D01*
X125601506Y-87061402D01*
X125768597Y-87228493D01*
X125768603Y-87228498D01*
X125954158Y-87358425D01*
X125997783Y-87413002D01*
X126004977Y-87482500D01*
X125973454Y-87544855D01*
X125954158Y-87561575D01*
X125768597Y-87691505D01*
X125601505Y-87858597D01*
X125465965Y-88052169D01*
X125465964Y-88052171D01*
X125366098Y-88266335D01*
X125366094Y-88266344D01*
X125304938Y-88494586D01*
X125304936Y-88494596D01*
X125284341Y-88729999D01*
X125284341Y-88730000D01*
X125304936Y-88965403D01*
X125304938Y-88965413D01*
X125366094Y-89193655D01*
X125366096Y-89193659D01*
X125366097Y-89193663D01*
X125465965Y-89407830D01*
X125465967Y-89407834D01*
X125601501Y-89601395D01*
X125601506Y-89601402D01*
X125768597Y-89768493D01*
X125768603Y-89768498D01*
X125954158Y-89898425D01*
X125997783Y-89953002D01*
X126004977Y-90022500D01*
X125973454Y-90084855D01*
X125954158Y-90101575D01*
X125768597Y-90231505D01*
X125601505Y-90398597D01*
X125465965Y-90592169D01*
X125465964Y-90592171D01*
X125366098Y-90806335D01*
X125366094Y-90806344D01*
X125304938Y-91034586D01*
X125304936Y-91034596D01*
X125284220Y-91271378D01*
X125258767Y-91336446D01*
X125202176Y-91377425D01*
X125132414Y-91381303D01*
X125071630Y-91346849D01*
X125043652Y-91301527D01*
X125025789Y-91250478D01*
X125019289Y-91240134D01*
X125009719Y-91221606D01*
X125009394Y-91220821D01*
X124972790Y-91166040D01*
X124970905Y-91163131D01*
X124929816Y-91097738D01*
X124802262Y-90970184D01*
X124802260Y-90970182D01*
X124802257Y-90970180D01*
X124736900Y-90929114D01*
X124733982Y-90927223D01*
X124679179Y-90890605D01*
X124679173Y-90890603D01*
X124678365Y-90890268D01*
X124659865Y-90880709D01*
X124649524Y-90874212D01*
X124649523Y-90874211D01*
X124649522Y-90874211D01*
X124588867Y-90852986D01*
X124582377Y-90850509D01*
X124533496Y-90830262D01*
X124519860Y-90827550D01*
X124503104Y-90822976D01*
X124479260Y-90814633D01*
X124479256Y-90814632D01*
X124479255Y-90814632D01*
X124458575Y-90812301D01*
X124428303Y-90808890D01*
X124418003Y-90807288D01*
X124378844Y-90799500D01*
X124378842Y-90799500D01*
X124351915Y-90799500D01*
X124338031Y-90798720D01*
X124300002Y-90794435D01*
X124299998Y-90794435D01*
X124261969Y-90798720D01*
X124248085Y-90799500D01*
X124221152Y-90799500D01*
X124181994Y-90807288D01*
X124171696Y-90808890D01*
X124120742Y-90814632D01*
X124120735Y-90814634D01*
X124096898Y-90822975D01*
X124080140Y-90827550D01*
X124066502Y-90830263D01*
X124066496Y-90830264D01*
X124017631Y-90850504D01*
X124011140Y-90852982D01*
X123950477Y-90874210D01*
X123950474Y-90874212D01*
X123940127Y-90880713D01*
X123921639Y-90890266D01*
X123920832Y-90890600D01*
X123920824Y-90890604D01*
X123866047Y-90927204D01*
X123863132Y-90929092D01*
X123797742Y-90970180D01*
X123797735Y-90970186D01*
X123670186Y-91097735D01*
X123670180Y-91097742D01*
X123629092Y-91163132D01*
X123627204Y-91166047D01*
X123590604Y-91220824D01*
X123590600Y-91220832D01*
X123590266Y-91221639D01*
X123580713Y-91240127D01*
X123574212Y-91250474D01*
X123574210Y-91250477D01*
X123552982Y-91311140D01*
X123550504Y-91317631D01*
X123530264Y-91366496D01*
X123530263Y-91366502D01*
X123527550Y-91380140D01*
X123522975Y-91396898D01*
X123514634Y-91420735D01*
X123514632Y-91420742D01*
X123508890Y-91471696D01*
X123507288Y-91481994D01*
X123499500Y-91521152D01*
X123499500Y-91548085D01*
X123498720Y-91561969D01*
X123494435Y-91599998D01*
X123494435Y-91600001D01*
X123498720Y-91638029D01*
X123499500Y-91651914D01*
X123499500Y-91878846D01*
X123530261Y-92033489D01*
X123530264Y-92033501D01*
X123590602Y-92179172D01*
X123590609Y-92179185D01*
X123678210Y-92310288D01*
X123678213Y-92310292D01*
X125170184Y-93802262D01*
X125262630Y-93894708D01*
X125296115Y-93956031D01*
X125298477Y-93971580D01*
X125304936Y-94045403D01*
X125304938Y-94045413D01*
X125366094Y-94273655D01*
X125366096Y-94273659D01*
X125366097Y-94273663D01*
X125447714Y-94448690D01*
X125465965Y-94487830D01*
X125465967Y-94487834D01*
X125601501Y-94681395D01*
X125601506Y-94681402D01*
X125768597Y-94848493D01*
X125768603Y-94848498D01*
X125954594Y-94978730D01*
X125998219Y-95033307D01*
X126005413Y-95102805D01*
X125973890Y-95165160D01*
X125954595Y-95181880D01*
X125768922Y-95311890D01*
X125768920Y-95311891D01*
X125601891Y-95478920D01*
X125601886Y-95478926D01*
X125466400Y-95672420D01*
X125466399Y-95672422D01*
X125366570Y-95886507D01*
X125366567Y-95886513D01*
X125309364Y-96099999D01*
X125309364Y-96100000D01*
X126206988Y-96100000D01*
X126174075Y-96157007D01*
X126140000Y-96284174D01*
X126140000Y-96415826D01*
X126174075Y-96542993D01*
X126206988Y-96600000D01*
X125309364Y-96600000D01*
X125366567Y-96813486D01*
X125366570Y-96813492D01*
X125466399Y-97027578D01*
X125601894Y-97221082D01*
X125768917Y-97388105D01*
X125962421Y-97523600D01*
X126176507Y-97623429D01*
X126176516Y-97623433D01*
X126390000Y-97680634D01*
X126390000Y-96783012D01*
X126447007Y-96815925D01*
X126574174Y-96850000D01*
X126705826Y-96850000D01*
X126832993Y-96815925D01*
X126890000Y-96783012D01*
X126890000Y-97680633D01*
X127103483Y-97623433D01*
X127103492Y-97623429D01*
X127317578Y-97523600D01*
X127511082Y-97388105D01*
X127678105Y-97221082D01*
X127813600Y-97027578D01*
X127913429Y-96813492D01*
X127913432Y-96813486D01*
X127970636Y-96600000D01*
X127073012Y-96600000D01*
X127105925Y-96542993D01*
X127140000Y-96415826D01*
X127140000Y-96284174D01*
X127105925Y-96157007D01*
X127073012Y-96100000D01*
X127970636Y-96100000D01*
X127970635Y-96099999D01*
X127913432Y-95886513D01*
X127913429Y-95886507D01*
X127813600Y-95672422D01*
X127813599Y-95672420D01*
X127678113Y-95478926D01*
X127678108Y-95478920D01*
X127511078Y-95311890D01*
X127325405Y-95181879D01*
X127281780Y-95127302D01*
X127274588Y-95057804D01*
X127306110Y-94995449D01*
X127325406Y-94978730D01*
X127325842Y-94978425D01*
X127511401Y-94848495D01*
X127678495Y-94681401D01*
X127814035Y-94487830D01*
X127913903Y-94273663D01*
X127975063Y-94045408D01*
X127995659Y-93810000D01*
X127975063Y-93574592D01*
X127913903Y-93346337D01*
X127814035Y-93132171D01*
X127678495Y-92938599D01*
X127678494Y-92938597D01*
X127511402Y-92771506D01*
X127511396Y-92771501D01*
X127325842Y-92641575D01*
X127282217Y-92586998D01*
X127275023Y-92517500D01*
X127306546Y-92455145D01*
X127325842Y-92438425D01*
X127348026Y-92422891D01*
X127511401Y-92308495D01*
X127678495Y-92141401D01*
X127814035Y-91947830D01*
X127913903Y-91733663D01*
X127975063Y-91505408D01*
X127995659Y-91270000D01*
X127975063Y-91034592D01*
X127913903Y-90806337D01*
X127814035Y-90592171D01*
X127678495Y-90398599D01*
X127678494Y-90398597D01*
X127511402Y-90231506D01*
X127511396Y-90231501D01*
X127325842Y-90101575D01*
X127282217Y-90046998D01*
X127275023Y-89977500D01*
X127306546Y-89915145D01*
X127325842Y-89898425D01*
X127348026Y-89882891D01*
X127511401Y-89768495D01*
X127678495Y-89601401D01*
X127814035Y-89407830D01*
X127913903Y-89193663D01*
X127975063Y-88965408D01*
X127995659Y-88730000D01*
X127975063Y-88494592D01*
X127913903Y-88266337D01*
X127814035Y-88052171D01*
X127678495Y-87858599D01*
X127678494Y-87858597D01*
X127511402Y-87691506D01*
X127511396Y-87691501D01*
X127325842Y-87561575D01*
X127282217Y-87506998D01*
X127275023Y-87437500D01*
X127306546Y-87375145D01*
X127325842Y-87358425D01*
X127348026Y-87342891D01*
X127511401Y-87228495D01*
X127678495Y-87061401D01*
X127814035Y-86867830D01*
X127913903Y-86653663D01*
X127975063Y-86425408D01*
X127995659Y-86190000D01*
X127975063Y-85954592D01*
X127913903Y-85726337D01*
X127814035Y-85512171D01*
X127809410Y-85505565D01*
X127678494Y-85318597D01*
X127511402Y-85151506D01*
X127511396Y-85151501D01*
X127325842Y-85021575D01*
X127282217Y-84966998D01*
X127275023Y-84897500D01*
X127306546Y-84835145D01*
X127325842Y-84818425D01*
X127420829Y-84751914D01*
X127511401Y-84688495D01*
X127678495Y-84521401D01*
X127814035Y-84327830D01*
X127913903Y-84113663D01*
X127975063Y-83885408D01*
X127995659Y-83650000D01*
X127975063Y-83414592D01*
X127913903Y-83186337D01*
X127814035Y-82972171D01*
X127813652Y-82971623D01*
X127678494Y-82778597D01*
X127511402Y-82611506D01*
X127511396Y-82611501D01*
X127325842Y-82481575D01*
X127282217Y-82426998D01*
X127275023Y-82357500D01*
X127306546Y-82295145D01*
X127325842Y-82278425D01*
X127348026Y-82262891D01*
X127511401Y-82148495D01*
X127678495Y-81981401D01*
X127814035Y-81787830D01*
X127913903Y-81573663D01*
X127975063Y-81345408D01*
X127995659Y-81110000D01*
X127975063Y-80874592D01*
X127913903Y-80646337D01*
X127814035Y-80432171D01*
X127678495Y-80238599D01*
X127678494Y-80238597D01*
X127511402Y-80071506D01*
X127511396Y-80071501D01*
X127325842Y-79941575D01*
X127282217Y-79886998D01*
X127275023Y-79817500D01*
X127306546Y-79755145D01*
X127325842Y-79738425D01*
X127348026Y-79722891D01*
X127511401Y-79608495D01*
X127678495Y-79441401D01*
X127814035Y-79247830D01*
X127913903Y-79033663D01*
X127975063Y-78805408D01*
X127995659Y-78570000D01*
X127975063Y-78334592D01*
X127913903Y-78106337D01*
X127814035Y-77892171D01*
X127686683Y-77710292D01*
X127678494Y-77698597D01*
X127511402Y-77531506D01*
X127511396Y-77531501D01*
X127325842Y-77401575D01*
X127282217Y-77346998D01*
X127275023Y-77277500D01*
X127306546Y-77215145D01*
X127325842Y-77198425D01*
X127348026Y-77182891D01*
X127511401Y-77068495D01*
X127678495Y-76901401D01*
X127814035Y-76707830D01*
X127913903Y-76493663D01*
X127975063Y-76265408D01*
X127995659Y-76030000D01*
X127975063Y-75794592D01*
X127919890Y-75588682D01*
X127913905Y-75566344D01*
X127913904Y-75566343D01*
X127913903Y-75566337D01*
X127814035Y-75352171D01*
X127742161Y-75249523D01*
X127678494Y-75158597D01*
X127511402Y-74991506D01*
X127511396Y-74991501D01*
X127325842Y-74861575D01*
X127282217Y-74806998D01*
X127275023Y-74737500D01*
X127306546Y-74675145D01*
X127325842Y-74658425D01*
X127348026Y-74642891D01*
X127511401Y-74528495D01*
X127678495Y-74361401D01*
X127814035Y-74167830D01*
X127913903Y-73953663D01*
X127975063Y-73725408D01*
X127995659Y-73490000D01*
X127975063Y-73254592D01*
X127913903Y-73026337D01*
X127814035Y-72812171D01*
X127678495Y-72618599D01*
X127678494Y-72618597D01*
X127511402Y-72451506D01*
X127511396Y-72451501D01*
X127325842Y-72321575D01*
X127282217Y-72266998D01*
X127275023Y-72197500D01*
X127306546Y-72135145D01*
X127325842Y-72118425D01*
X127348026Y-72102891D01*
X127511401Y-71988495D01*
X127678495Y-71821401D01*
X127814035Y-71627830D01*
X127913903Y-71413663D01*
X127975063Y-71185408D01*
X127995659Y-70950000D01*
X127975063Y-70714592D01*
X127913903Y-70486337D01*
X127814035Y-70272171D01*
X127678495Y-70078599D01*
X127678494Y-70078597D01*
X127511402Y-69911506D01*
X127511396Y-69911501D01*
X127325842Y-69781575D01*
X127282217Y-69726998D01*
X127275023Y-69657500D01*
X127306546Y-69595145D01*
X127325842Y-69578425D01*
X127348026Y-69562891D01*
X127511401Y-69448495D01*
X127678495Y-69281401D01*
X127814035Y-69087830D01*
X127913903Y-68873663D01*
X127975063Y-68645408D01*
X127995659Y-68410000D01*
X127975063Y-68174592D01*
X127913903Y-67946337D01*
X127814035Y-67732171D01*
X127809567Y-67725789D01*
X127678494Y-67538597D01*
X127511402Y-67371506D01*
X127511396Y-67371501D01*
X127325842Y-67241575D01*
X127282217Y-67186998D01*
X127275023Y-67117500D01*
X127306546Y-67055145D01*
X127325842Y-67038425D01*
X127380724Y-66999996D01*
X127511401Y-66908495D01*
X127678495Y-66741401D01*
X127814035Y-66547830D01*
X127913903Y-66333663D01*
X127975063Y-66105408D01*
X127995659Y-65870000D01*
X127975063Y-65634592D01*
X127913903Y-65406337D01*
X127814035Y-65192171D01*
X127799146Y-65170906D01*
X127678494Y-64998597D01*
X127511402Y-64831506D01*
X127511396Y-64831501D01*
X127325842Y-64701575D01*
X127282217Y-64646998D01*
X127275023Y-64577500D01*
X127306546Y-64515145D01*
X127325842Y-64498425D01*
X127348026Y-64482891D01*
X127511401Y-64368495D01*
X127678495Y-64201401D01*
X127814035Y-64007830D01*
X127913903Y-63793663D01*
X127975063Y-63565408D01*
X127995659Y-63330000D01*
X127975063Y-63094592D01*
X127913903Y-62866337D01*
X127814035Y-62652171D01*
X127678495Y-62458599D01*
X127556567Y-62336671D01*
X127523084Y-62275351D01*
X127528068Y-62205659D01*
X127569939Y-62149725D01*
X127600915Y-62132810D01*
X127732331Y-62083796D01*
X127847546Y-61997546D01*
X127933796Y-61882331D01*
X127984091Y-61747483D01*
X127990500Y-61687873D01*
X127990499Y-59892128D01*
X127984091Y-59832517D01*
X127933796Y-59697669D01*
X127933795Y-59697668D01*
X127933793Y-59697664D01*
X127847547Y-59582455D01*
X127847544Y-59582452D01*
X127732335Y-59496206D01*
X127732328Y-59496202D01*
X127597482Y-59445908D01*
X127597483Y-59445908D01*
X127537883Y-59439501D01*
X127537881Y-59439500D01*
X127537873Y-59439500D01*
X127537864Y-59439500D01*
X125742129Y-59439500D01*
X125742123Y-59439501D01*
X125682516Y-59445908D01*
X125547671Y-59496202D01*
X125547664Y-59496206D01*
X125432455Y-59582452D01*
X125432452Y-59582455D01*
X125346206Y-59697664D01*
X125346202Y-59697671D01*
X125295908Y-59832517D01*
X125289501Y-59892116D01*
X125289501Y-59892123D01*
X125289500Y-59892135D01*
X125289500Y-61687870D01*
X125289501Y-61687876D01*
X125295908Y-61747483D01*
X125346202Y-61882328D01*
X125346206Y-61882335D01*
X125432452Y-61997544D01*
X125432455Y-61997547D01*
X125547664Y-62083793D01*
X125547671Y-62083797D01*
X125679081Y-62132810D01*
X125735015Y-62174681D01*
X125759432Y-62240145D01*
X125744580Y-62308418D01*
X125723430Y-62336673D01*
X125601503Y-62458600D01*
X125465965Y-62652169D01*
X125465964Y-62652171D01*
X125366098Y-62866335D01*
X125366094Y-62866344D01*
X125304938Y-63094586D01*
X125304936Y-63094596D01*
X125284341Y-63329999D01*
X125284341Y-63330000D01*
X125304936Y-63565403D01*
X125304938Y-63565413D01*
X125366094Y-63793655D01*
X125366096Y-63793659D01*
X125366097Y-63793663D01*
X125465965Y-64007830D01*
X125465967Y-64007834D01*
X125601501Y-64201395D01*
X125601506Y-64201402D01*
X125768597Y-64368493D01*
X125768603Y-64368498D01*
X125954158Y-64498425D01*
X125997783Y-64553002D01*
X126004977Y-64622500D01*
X125973454Y-64684855D01*
X125954158Y-64701575D01*
X125768597Y-64831505D01*
X125601505Y-64998597D01*
X125465965Y-65192169D01*
X125465964Y-65192171D01*
X125366098Y-65406335D01*
X125366094Y-65406344D01*
X125304938Y-65634586D01*
X125304936Y-65634596D01*
X125284341Y-65869999D01*
X125284341Y-65870000D01*
X125304936Y-66105403D01*
X125304938Y-66105413D01*
X125366094Y-66333655D01*
X125366096Y-66333659D01*
X125366097Y-66333663D01*
X125442606Y-66497737D01*
X125465965Y-66547830D01*
X125465967Y-66547834D01*
X125601501Y-66741395D01*
X125601506Y-66741402D01*
X125768597Y-66908493D01*
X125768603Y-66908498D01*
X125954158Y-67038425D01*
X125997783Y-67093002D01*
X126004977Y-67162500D01*
X125973454Y-67224855D01*
X125954158Y-67241575D01*
X125768597Y-67371505D01*
X125601505Y-67538597D01*
X125465965Y-67732169D01*
X125465964Y-67732171D01*
X125366098Y-67946335D01*
X125366094Y-67946344D01*
X125304938Y-68174586D01*
X125304936Y-68174596D01*
X125284341Y-68409999D01*
X125284341Y-68410000D01*
X125304936Y-68645403D01*
X125304938Y-68645413D01*
X125366094Y-68873655D01*
X125366096Y-68873659D01*
X125366097Y-68873663D01*
X125465965Y-69087830D01*
X125465967Y-69087834D01*
X125601501Y-69281395D01*
X125601506Y-69281402D01*
X125768597Y-69448493D01*
X125768603Y-69448498D01*
X125954158Y-69578425D01*
X125997783Y-69633002D01*
X126004977Y-69702500D01*
X125973454Y-69764855D01*
X125954158Y-69781575D01*
X125768597Y-69911505D01*
X125601505Y-70078597D01*
X125465965Y-70272169D01*
X125465964Y-70272171D01*
X125366098Y-70486335D01*
X125366094Y-70486344D01*
X125304938Y-70714586D01*
X125304936Y-70714596D01*
X125284341Y-70949999D01*
X125284341Y-70950000D01*
X125304936Y-71185403D01*
X125304938Y-71185413D01*
X125366094Y-71413655D01*
X125366096Y-71413659D01*
X125366097Y-71413663D01*
X125465965Y-71627830D01*
X125465967Y-71627834D01*
X125601501Y-71821395D01*
X125601506Y-71821402D01*
X125768597Y-71988493D01*
X125768603Y-71988498D01*
X125954158Y-72118425D01*
X125997783Y-72173002D01*
X126004977Y-72242500D01*
X125973454Y-72304855D01*
X125954158Y-72321575D01*
X125768597Y-72451505D01*
X125601505Y-72618597D01*
X125465965Y-72812169D01*
X125465964Y-72812171D01*
X125366098Y-73026335D01*
X125366094Y-73026344D01*
X125304938Y-73254586D01*
X125304936Y-73254596D01*
X125284341Y-73489999D01*
X125284341Y-73490000D01*
X125304936Y-73725403D01*
X125304938Y-73725413D01*
X125366094Y-73953655D01*
X125366096Y-73953659D01*
X125366097Y-73953663D01*
X125431740Y-74094435D01*
X125465965Y-74167830D01*
X125465967Y-74167834D01*
X125601501Y-74361395D01*
X125601506Y-74361402D01*
X125768597Y-74528493D01*
X125768603Y-74528498D01*
X125954158Y-74658425D01*
X125997783Y-74713002D01*
X126004977Y-74782500D01*
X125973454Y-74844855D01*
X125954158Y-74861575D01*
X125768597Y-74991505D01*
X125601505Y-75158597D01*
X125465965Y-75352169D01*
X125465964Y-75352171D01*
X125366098Y-75566335D01*
X125366094Y-75566344D01*
X125304938Y-75794586D01*
X125304936Y-75794596D01*
X125284341Y-76029999D01*
X125284341Y-76030000D01*
X125304936Y-76265403D01*
X125304938Y-76265413D01*
X125366094Y-76493655D01*
X125366096Y-76493659D01*
X125366097Y-76493663D01*
X125465965Y-76707830D01*
X125465967Y-76707834D01*
X125601501Y-76901395D01*
X125601506Y-76901402D01*
X125768597Y-77068493D01*
X125768603Y-77068498D01*
X125954158Y-77198425D01*
X125997783Y-77253002D01*
X126004977Y-77322500D01*
X125973454Y-77384855D01*
X125954158Y-77401575D01*
X125768597Y-77531505D01*
X125601505Y-77698597D01*
X125465965Y-77892169D01*
X125465964Y-77892171D01*
X125366098Y-78106335D01*
X125366094Y-78106344D01*
X125304938Y-78334586D01*
X125304936Y-78334596D01*
X125284341Y-78569999D01*
X125284341Y-78570389D01*
X125284292Y-78570554D01*
X125283869Y-78575394D01*
X125282896Y-78575308D01*
X125264656Y-78637428D01*
X125211852Y-78683183D01*
X125142694Y-78693127D01*
X125079138Y-78664102D01*
X125072660Y-78658070D01*
X111646819Y-65232229D01*
X111613334Y-65170906D01*
X111610500Y-65144548D01*
X111610500Y-63394452D01*
X111630185Y-63327413D01*
X111682989Y-63281658D01*
X111752147Y-63271714D01*
X111815703Y-63300739D01*
X111822181Y-63306771D01*
X115573787Y-67058377D01*
X115607272Y-67119700D01*
X115609326Y-67132173D01*
X115614630Y-67179249D01*
X115674210Y-67349521D01*
X115688021Y-67371501D01*
X115770184Y-67502262D01*
X115897738Y-67629816D01*
X116050478Y-67725789D01*
X116068717Y-67732171D01*
X116220745Y-67785368D01*
X116220750Y-67785369D01*
X116399996Y-67805565D01*
X116400000Y-67805565D01*
X116400004Y-67805565D01*
X116579249Y-67785369D01*
X116579252Y-67785368D01*
X116579255Y-67785368D01*
X116749522Y-67725789D01*
X116902262Y-67629816D01*
X117029816Y-67502262D01*
X117125789Y-67349522D01*
X117185368Y-67179255D01*
X117190673Y-67132173D01*
X117205565Y-67000003D01*
X117205565Y-66999996D01*
X117185369Y-66820750D01*
X117185368Y-66820745D01*
X117125788Y-66650476D01*
X117029815Y-66497737D01*
X116902262Y-66370184D01*
X116749521Y-66274210D01*
X116579249Y-66214630D01*
X116532173Y-66209326D01*
X116467759Y-66182259D01*
X116458377Y-66173787D01*
X112646819Y-62362229D01*
X112613334Y-62300906D01*
X112610500Y-62274548D01*
X112610500Y-55389608D01*
X112630185Y-55322569D01*
X112682989Y-55276814D01*
X112752147Y-55266870D01*
X112760488Y-55268725D01*
X112760524Y-55268548D01*
X112766502Y-55269736D01*
X112766503Y-55269737D01*
X112780139Y-55272449D01*
X112796898Y-55277023D01*
X112820745Y-55285368D01*
X112871713Y-55291110D01*
X112881991Y-55292709D01*
X112909139Y-55298109D01*
X112921156Y-55300500D01*
X112921157Y-55300500D01*
X112948085Y-55300500D01*
X112961969Y-55301280D01*
X112999998Y-55305565D01*
X113000000Y-55305565D01*
X113000002Y-55305565D01*
X113038031Y-55301280D01*
X113051915Y-55300500D01*
X113078841Y-55300500D01*
X113078842Y-55300500D01*
X113118017Y-55292707D01*
X113128283Y-55291110D01*
X113179255Y-55285368D01*
X113203107Y-55277020D01*
X113219852Y-55272450D01*
X113233497Y-55269737D01*
X113282382Y-55249487D01*
X113288852Y-55247017D01*
X113349522Y-55225789D01*
X113359860Y-55219292D01*
X113378389Y-55209719D01*
X113379179Y-55209393D01*
X113433976Y-55172778D01*
X113436854Y-55170914D01*
X113502262Y-55129816D01*
X113629816Y-55002262D01*
X113670921Y-54936842D01*
X113672778Y-54933976D01*
X113709393Y-54879179D01*
X113709719Y-54878389D01*
X113719293Y-54859859D01*
X113725789Y-54849522D01*
X113747017Y-54788852D01*
X113749493Y-54782368D01*
X113769737Y-54733497D01*
X113772450Y-54719852D01*
X113777020Y-54703107D01*
X113785368Y-54679255D01*
X113791110Y-54628283D01*
X113792707Y-54618017D01*
X113800500Y-54578842D01*
X113800500Y-54551914D01*
X113801280Y-54538029D01*
X113805565Y-54500001D01*
X113805565Y-54499998D01*
X113801280Y-54461969D01*
X113800500Y-54448085D01*
X113800500Y-54421155D01*
X113792711Y-54382001D01*
X113791108Y-54371691D01*
X113786280Y-54328838D01*
X113785500Y-54314955D01*
X113785500Y-53897295D01*
X114235000Y-53897295D01*
X114235001Y-53897295D01*
X114237486Y-53897100D01*
X114395198Y-53851281D01*
X114536552Y-53767685D01*
X114536561Y-53767678D01*
X114652678Y-53651561D01*
X114652685Y-53651552D01*
X114736282Y-53510196D01*
X114736283Y-53510193D01*
X114782099Y-53352495D01*
X114782100Y-53352489D01*
X114784999Y-53315649D01*
X114785000Y-53315634D01*
X114785000Y-52875000D01*
X114235000Y-52875000D01*
X114235000Y-53897295D01*
X113785500Y-53897295D01*
X113785500Y-51934313D01*
X113785499Y-51934298D01*
X113782598Y-51897432D01*
X113782597Y-51897426D01*
X113739924Y-51750545D01*
X113735000Y-51715950D01*
X113735000Y-51352703D01*
X113732504Y-51352900D01*
X113574806Y-51398716D01*
X113574798Y-51398719D01*
X113548608Y-51414208D01*
X113480884Y-51431388D01*
X113422371Y-51414207D01*
X113395398Y-51398256D01*
X113395393Y-51398254D01*
X113237573Y-51352402D01*
X113237567Y-51352401D01*
X113200701Y-51349500D01*
X113200694Y-51349500D01*
X112769306Y-51349500D01*
X112769298Y-51349500D01*
X112732432Y-51352401D01*
X112732426Y-51352402D01*
X112574606Y-51398253D01*
X112548119Y-51413918D01*
X112480394Y-51431098D01*
X112421881Y-51413918D01*
X112395393Y-51398253D01*
X112237573Y-51352402D01*
X112237567Y-51352401D01*
X112200701Y-51349500D01*
X112200694Y-51349500D01*
X111769306Y-51349500D01*
X111769298Y-51349500D01*
X111732432Y-51352401D01*
X111732426Y-51352402D01*
X111574606Y-51398253D01*
X111548119Y-51413918D01*
X111480394Y-51431098D01*
X111421881Y-51413918D01*
X111395393Y-51398253D01*
X111237573Y-51352402D01*
X111237567Y-51352401D01*
X111200701Y-51349500D01*
X111200694Y-51349500D01*
X110769306Y-51349500D01*
X110769298Y-51349500D01*
X110732432Y-51352401D01*
X110732426Y-51352402D01*
X110574606Y-51398253D01*
X110548119Y-51413918D01*
X110480394Y-51431098D01*
X110421881Y-51413918D01*
X110395393Y-51398253D01*
X110237573Y-51352402D01*
X110237567Y-51352401D01*
X110200701Y-51349500D01*
X110200694Y-51349500D01*
X109769306Y-51349500D01*
X109769298Y-51349500D01*
X109732432Y-51352401D01*
X109732426Y-51352402D01*
X109574605Y-51398254D01*
X109574595Y-51398258D01*
X109547627Y-51414207D01*
X109479902Y-51431388D01*
X109421388Y-51414207D01*
X109395196Y-51398717D01*
X109395193Y-51398716D01*
X109237494Y-51352900D01*
X109237497Y-51352900D01*
X109235000Y-51352703D01*
X109235000Y-51715950D01*
X109230076Y-51750545D01*
X109187402Y-51897426D01*
X109187401Y-51897432D01*
X109184500Y-51934298D01*
X108735000Y-51934298D01*
X108735000Y-51352703D01*
X108717258Y-51336309D01*
X108710492Y-51334890D01*
X108660720Y-51285854D01*
X108645360Y-51217693D01*
X108663568Y-51160523D01*
X108719814Y-51069334D01*
X108774999Y-50902797D01*
X108785500Y-50800009D01*
X108785499Y-49399992D01*
X108785498Y-49399983D01*
X114184500Y-49399983D01*
X114184500Y-50800001D01*
X114184501Y-50800018D01*
X114195000Y-50902796D01*
X114195001Y-50902799D01*
X114229246Y-51006142D01*
X114250186Y-51069334D01*
X114306431Y-51160523D01*
X114324871Y-51227914D01*
X114303948Y-51294577D01*
X114250306Y-51339347D01*
X114249266Y-51339520D01*
X114235000Y-51352703D01*
X114235000Y-52375000D01*
X114785000Y-52375000D01*
X114785000Y-51934365D01*
X114784999Y-51934350D01*
X114782100Y-51897510D01*
X114782099Y-51897504D01*
X114736284Y-51739806D01*
X114701144Y-51680389D01*
X114683961Y-51612665D01*
X114706121Y-51546402D01*
X114760586Y-51502639D01*
X114820477Y-51493909D01*
X114884991Y-51500500D01*
X115685008Y-51500499D01*
X115685016Y-51500498D01*
X115685019Y-51500498D01*
X115749530Y-51493908D01*
X115787797Y-51489999D01*
X115954334Y-51434814D01*
X116103656Y-51342712D01*
X116227712Y-51218656D01*
X116319814Y-51069334D01*
X116374999Y-50902797D01*
X116385500Y-50800009D01*
X116385499Y-49399992D01*
X116374999Y-49297203D01*
X116319814Y-49130666D01*
X116227712Y-48981344D01*
X116103656Y-48857288D01*
X115954334Y-48765186D01*
X115787797Y-48710001D01*
X115787795Y-48710000D01*
X115685010Y-48699500D01*
X114884998Y-48699500D01*
X114884980Y-48699501D01*
X114782203Y-48710000D01*
X114782200Y-48710001D01*
X114615668Y-48765185D01*
X114615663Y-48765187D01*
X114466342Y-48857289D01*
X114342289Y-48981342D01*
X114250187Y-49130663D01*
X114250186Y-49130666D01*
X114195001Y-49297203D01*
X114195001Y-49297204D01*
X114195000Y-49297204D01*
X114184500Y-49399983D01*
X108785498Y-49399983D01*
X108774999Y-49297203D01*
X108719814Y-49130666D01*
X108627712Y-48981344D01*
X108503656Y-48857288D01*
X108354334Y-48765186D01*
X108187797Y-48710001D01*
X108187795Y-48710000D01*
X108085010Y-48699500D01*
X107284998Y-48699500D01*
X107284980Y-48699501D01*
X107182203Y-48710000D01*
X107182200Y-48710001D01*
X107015668Y-48765185D01*
X107015663Y-48765187D01*
X106866342Y-48857289D01*
X106742289Y-48981342D01*
X106650187Y-49130663D01*
X106650186Y-49130666D01*
X106595001Y-49297203D01*
X106595001Y-49297204D01*
X106595000Y-49297204D01*
X106584500Y-49399983D01*
X98216231Y-49399983D01*
X98207111Y-49350215D01*
X98159099Y-49196140D01*
X98106952Y-49028792D01*
X98106948Y-49028781D01*
X98106946Y-49028774D01*
X97968766Y-48721750D01*
X97794585Y-48433620D01*
X97794582Y-48433616D01*
X97794579Y-48433611D01*
X97674307Y-48280096D01*
X97586945Y-48168586D01*
X97586937Y-48168578D01*
X97586932Y-48168572D01*
X97348885Y-47930525D01*
X97348878Y-47930519D01*
X97348872Y-47930513D01*
X97231995Y-47838946D01*
X97083846Y-47722878D01*
X97083838Y-47722873D01*
X96795708Y-47548692D01*
X96526595Y-47427574D01*
X96473543Y-47382112D01*
X96453490Y-47315181D01*
X96472806Y-47248035D01*
X96525358Y-47201990D01*
X96577488Y-47190500D01*
X128518283Y-47190500D01*
X128585322Y-47210185D01*
X128631077Y-47262989D01*
X128641021Y-47332147D01*
X128611996Y-47395703D01*
X128553218Y-47433477D01*
X128540642Y-47436467D01*
X128232757Y-47492889D01*
X128232754Y-47492889D01*
X128232748Y-47492891D01*
X127911334Y-47593047D01*
X127911323Y-47593051D01*
X127604296Y-47731232D01*
X127604294Y-47731233D01*
X127316153Y-47905420D01*
X127051127Y-48113056D01*
X127051114Y-48113067D01*
X126813067Y-48351114D01*
X126813056Y-48351127D01*
X126605420Y-48616153D01*
X126431233Y-48904294D01*
X126431232Y-48904296D01*
X126293051Y-49211323D01*
X126293047Y-49211334D01*
X126192891Y-49532748D01*
X126192889Y-49532754D01*
X126192889Y-49532757D01*
X126143895Y-49800107D01*
X126132199Y-49863933D01*
X126111871Y-50200000D01*
X126132199Y-50536066D01*
X126132199Y-50536071D01*
X126132200Y-50536072D01*
X126192889Y-50867243D01*
X126192890Y-50867247D01*
X126192891Y-50867251D01*
X126293047Y-51188665D01*
X126293051Y-51188676D01*
X126293052Y-51188679D01*
X126293054Y-51188684D01*
X126431234Y-51495708D01*
X126585289Y-51750545D01*
X126605420Y-51783846D01*
X126670043Y-51866330D01*
X126813055Y-52048872D01*
X126813061Y-52048878D01*
X126813067Y-52048885D01*
X127051114Y-52286932D01*
X127051120Y-52286937D01*
X127051128Y-52286945D01*
X127193313Y-52398339D01*
X127316153Y-52494579D01*
X127316158Y-52494582D01*
X127316162Y-52494585D01*
X127604292Y-52668766D01*
X127911316Y-52806946D01*
X127911326Y-52806949D01*
X127911334Y-52806952D01*
X128125610Y-52873722D01*
X128232757Y-52907111D01*
X128563928Y-52967800D01*
X128900000Y-52988129D01*
X129236072Y-52967800D01*
X129567243Y-52907111D01*
X129888684Y-52806946D01*
X130195708Y-52668766D01*
X130483838Y-52494585D01*
X130748872Y-52286945D01*
X130986945Y-52048872D01*
X131194585Y-51783838D01*
X131368766Y-51495708D01*
X131506946Y-51188684D01*
X131607111Y-50867243D01*
X131667800Y-50536072D01*
X131688129Y-50200000D01*
X131667800Y-49863928D01*
X131607111Y-49532757D01*
X131565740Y-49399992D01*
X131506952Y-49211334D01*
X131506948Y-49211323D01*
X131506946Y-49211316D01*
X131368766Y-48904292D01*
X131194585Y-48616162D01*
X131194582Y-48616158D01*
X131194579Y-48616153D01*
X131051566Y-48433611D01*
X130986945Y-48351128D01*
X130986937Y-48351120D01*
X130986932Y-48351114D01*
X130748885Y-48113067D01*
X130748878Y-48113061D01*
X130748872Y-48113055D01*
X130631995Y-48021488D01*
X130483846Y-47905420D01*
X130483838Y-47905415D01*
X130195708Y-47731234D01*
X129888684Y-47593054D01*
X129888679Y-47593052D01*
X129888676Y-47593051D01*
X129888665Y-47593047D01*
X129567251Y-47492891D01*
X129567247Y-47492890D01*
X129567243Y-47492889D01*
X129259363Y-47436468D01*
X129196972Y-47405023D01*
X129161485Y-47344836D01*
X129164171Y-47275018D01*
X129204176Y-47217735D01*
X129268801Y-47191175D01*
X129281717Y-47190500D01*
X133925500Y-47190500D01*
X133992539Y-47210185D01*
X134038294Y-47262989D01*
X134049500Y-47314500D01*
X134049500Y-95044374D01*
X134029815Y-95111413D01*
X133977011Y-95157168D01*
X133907853Y-95167112D01*
X133844297Y-95138087D01*
X133827890Y-95120848D01*
X133786946Y-95068587D01*
X133786932Y-95068572D01*
X133548885Y-94830525D01*
X133548878Y-94830519D01*
X133548872Y-94830513D01*
X133410046Y-94721750D01*
X133283846Y-94622878D01*
X133283838Y-94622873D01*
X132995708Y-94448692D01*
X132688684Y-94310512D01*
X132688679Y-94310510D01*
X132688676Y-94310509D01*
X132688665Y-94310505D01*
X132367251Y-94210349D01*
X132367247Y-94210348D01*
X132367243Y-94210347D01*
X132036072Y-94149658D01*
X132036071Y-94149657D01*
X132036066Y-94149657D01*
X131700000Y-94129329D01*
X131363933Y-94149657D01*
X131363928Y-94149658D01*
X131032757Y-94210347D01*
X131032754Y-94210347D01*
X131032748Y-94210349D01*
X130711334Y-94310505D01*
X130711323Y-94310509D01*
X130404296Y-94448690D01*
X130404294Y-94448691D01*
X130116153Y-94622878D01*
X129851127Y-94830514D01*
X129851114Y-94830525D01*
X129613067Y-95068572D01*
X129613056Y-95068585D01*
X129405420Y-95333611D01*
X129231233Y-95621752D01*
X129231232Y-95621754D01*
X129093051Y-95928781D01*
X129093047Y-95928792D01*
X128992891Y-96250206D01*
X128992889Y-96250212D01*
X128992889Y-96250215D01*
X128986666Y-96284174D01*
X128932199Y-96581391D01*
X128911871Y-96917458D01*
X128932199Y-97253524D01*
X128932199Y-97253529D01*
X128932200Y-97253530D01*
X128992889Y-97584701D01*
X128992890Y-97584705D01*
X128992891Y-97584709D01*
X129093047Y-97906123D01*
X129093051Y-97906134D01*
X129093052Y-97906137D01*
X129093054Y-97906142D01*
X129231234Y-98213166D01*
X129396304Y-98486224D01*
X129405420Y-98501304D01*
X129501865Y-98624406D01*
X129613055Y-98766330D01*
X129613061Y-98766336D01*
X129613067Y-98766343D01*
X129851114Y-99004390D01*
X129851120Y-99004395D01*
X129851128Y-99004403D01*
X129993313Y-99115797D01*
X130116153Y-99212037D01*
X130116158Y-99212040D01*
X130116162Y-99212043D01*
X130404292Y-99386224D01*
X130711316Y-99524404D01*
X130711326Y-99524407D01*
X130711334Y-99524410D01*
X130925610Y-99591180D01*
X131032757Y-99624569D01*
X131363928Y-99685258D01*
X131700000Y-99705587D01*
X132036072Y-99685258D01*
X132367243Y-99624569D01*
X132688684Y-99524404D01*
X132995708Y-99386224D01*
X133283838Y-99212043D01*
X133548872Y-99004403D01*
X133786945Y-98766330D01*
X133827890Y-98714067D01*
X133884728Y-98673435D01*
X133954512Y-98669982D01*
X134015085Y-98704805D01*
X134047216Y-98766849D01*
X134049500Y-98790540D01*
X134049500Y-100285500D01*
X134029815Y-100352539D01*
X133977011Y-100398294D01*
X133925500Y-100409500D01*
X95955135Y-100409500D01*
X95950699Y-100409421D01*
X90320064Y-100207876D01*
X90253772Y-100185806D01*
X90209935Y-100131399D01*
X90200500Y-100083955D01*
X90200500Y-96017458D01*
X90911871Y-96017458D01*
X90932199Y-96353524D01*
X90932199Y-96353529D01*
X90932200Y-96353530D01*
X90992889Y-96684701D01*
X90992890Y-96684705D01*
X90992891Y-96684709D01*
X91093047Y-97006123D01*
X91093051Y-97006134D01*
X91093052Y-97006137D01*
X91093054Y-97006142D01*
X91231234Y-97313166D01*
X91395383Y-97584701D01*
X91405420Y-97601304D01*
X91521488Y-97749453D01*
X91613055Y-97866330D01*
X91613061Y-97866336D01*
X91613067Y-97866343D01*
X91851114Y-98104390D01*
X91851120Y-98104395D01*
X91851128Y-98104403D01*
X91989954Y-98213166D01*
X92116153Y-98312037D01*
X92116158Y-98312040D01*
X92116162Y-98312043D01*
X92404292Y-98486224D01*
X92711316Y-98624404D01*
X92711326Y-98624407D01*
X92711334Y-98624410D01*
X92808924Y-98654820D01*
X93032757Y-98724569D01*
X93363928Y-98785258D01*
X93700000Y-98805587D01*
X94036072Y-98785258D01*
X94367243Y-98724569D01*
X94688684Y-98624404D01*
X94995708Y-98486224D01*
X95283838Y-98312043D01*
X95548872Y-98104403D01*
X95786945Y-97866330D01*
X95994585Y-97601296D01*
X96168766Y-97313166D01*
X96306946Y-97006142D01*
X96407111Y-96684701D01*
X96467800Y-96353530D01*
X96488129Y-96017458D01*
X96467800Y-95681386D01*
X96407111Y-95350215D01*
X96354656Y-95181880D01*
X96306952Y-95028792D01*
X96306948Y-95028781D01*
X96306946Y-95028774D01*
X96168766Y-94721750D01*
X95994585Y-94433620D01*
X95994582Y-94433616D01*
X95994579Y-94433611D01*
X95869261Y-94273655D01*
X95786945Y-94168586D01*
X95786937Y-94168578D01*
X95786932Y-94168572D01*
X95548885Y-93930525D01*
X95548878Y-93930519D01*
X95548872Y-93930513D01*
X95395047Y-93809999D01*
X95283846Y-93722878D01*
X95283838Y-93722873D01*
X94995708Y-93548692D01*
X94688684Y-93410512D01*
X94688679Y-93410510D01*
X94688676Y-93410509D01*
X94688665Y-93410505D01*
X94367251Y-93310349D01*
X94367247Y-93310348D01*
X94367243Y-93310347D01*
X94036072Y-93249658D01*
X94036071Y-93249657D01*
X94036066Y-93249657D01*
X93700000Y-93229329D01*
X93363933Y-93249657D01*
X93363928Y-93249658D01*
X93032757Y-93310347D01*
X93032754Y-93310347D01*
X93032748Y-93310349D01*
X92711334Y-93410505D01*
X92711323Y-93410509D01*
X92404296Y-93548690D01*
X92404294Y-93548691D01*
X92116153Y-93722878D01*
X91851127Y-93930514D01*
X91851114Y-93930525D01*
X91613067Y-94168572D01*
X91613056Y-94168585D01*
X91405420Y-94433611D01*
X91380905Y-94474164D01*
X91255630Y-94681395D01*
X91231233Y-94721752D01*
X91231232Y-94721754D01*
X91093051Y-95028781D01*
X91093047Y-95028792D01*
X90992891Y-95350206D01*
X90992889Y-95350212D01*
X90992889Y-95350215D01*
X90979283Y-95424460D01*
X90932199Y-95681391D01*
X90911871Y-96017458D01*
X90200500Y-96017458D01*
X90200500Y-63329999D01*
X97284341Y-63329999D01*
X97284341Y-63330000D01*
X97304936Y-63565403D01*
X97304938Y-63565413D01*
X97366094Y-63793655D01*
X97366096Y-63793659D01*
X97366097Y-63793663D01*
X97465965Y-64007830D01*
X97465967Y-64007834D01*
X97601501Y-64201395D01*
X97601506Y-64201402D01*
X97768597Y-64368493D01*
X97768603Y-64368498D01*
X97954158Y-64498425D01*
X97997783Y-64553002D01*
X98004977Y-64622500D01*
X97973454Y-64684855D01*
X97954158Y-64701575D01*
X97768597Y-64831505D01*
X97601505Y-64998597D01*
X97465965Y-65192169D01*
X97465964Y-65192171D01*
X97366098Y-65406335D01*
X97366094Y-65406344D01*
X97304938Y-65634586D01*
X97304936Y-65634596D01*
X97284341Y-65869999D01*
X97284341Y-65870000D01*
X97304936Y-66105403D01*
X97304938Y-66105413D01*
X97366094Y-66333655D01*
X97366096Y-66333659D01*
X97366097Y-66333663D01*
X97442606Y-66497737D01*
X97465965Y-66547830D01*
X97465967Y-66547834D01*
X97601501Y-66741395D01*
X97601506Y-66741402D01*
X97768597Y-66908493D01*
X97768603Y-66908498D01*
X97954158Y-67038425D01*
X97997783Y-67093002D01*
X98004977Y-67162500D01*
X97973454Y-67224855D01*
X97954158Y-67241575D01*
X97768597Y-67371505D01*
X97601505Y-67538597D01*
X97465965Y-67732169D01*
X97465964Y-67732171D01*
X97366098Y-67946335D01*
X97366094Y-67946344D01*
X97304938Y-68174586D01*
X97304936Y-68174596D01*
X97284341Y-68409999D01*
X97284341Y-68410000D01*
X97304936Y-68645403D01*
X97304938Y-68645413D01*
X97366094Y-68873655D01*
X97366096Y-68873659D01*
X97366097Y-68873663D01*
X97465965Y-69087830D01*
X97465967Y-69087834D01*
X97601501Y-69281395D01*
X97601506Y-69281402D01*
X97768597Y-69448493D01*
X97768603Y-69448498D01*
X97954158Y-69578425D01*
X97997783Y-69633002D01*
X98004977Y-69702500D01*
X97973454Y-69764855D01*
X97954158Y-69781575D01*
X97768597Y-69911505D01*
X97601505Y-70078597D01*
X97465965Y-70272169D01*
X97465964Y-70272171D01*
X97366098Y-70486335D01*
X97366094Y-70486344D01*
X97304938Y-70714586D01*
X97304936Y-70714596D01*
X97284341Y-70949999D01*
X97284341Y-70950000D01*
X97304936Y-71185403D01*
X97304938Y-71185413D01*
X97366094Y-71413655D01*
X97366096Y-71413659D01*
X97366097Y-71413663D01*
X97465965Y-71627830D01*
X97465967Y-71627834D01*
X97601501Y-71821395D01*
X97601506Y-71821402D01*
X97768597Y-71988493D01*
X97768603Y-71988498D01*
X97954158Y-72118425D01*
X97997783Y-72173002D01*
X98004977Y-72242500D01*
X97973454Y-72304855D01*
X97954158Y-72321575D01*
X97768597Y-72451505D01*
X97601505Y-72618597D01*
X97465965Y-72812169D01*
X97465964Y-72812171D01*
X97366098Y-73026335D01*
X97366094Y-73026344D01*
X97304938Y-73254586D01*
X97304936Y-73254596D01*
X97284341Y-73489999D01*
X97284341Y-73490000D01*
X97304936Y-73725403D01*
X97304938Y-73725413D01*
X97366094Y-73953655D01*
X97366096Y-73953659D01*
X97366097Y-73953663D01*
X97431740Y-74094435D01*
X97465965Y-74167830D01*
X97465967Y-74167834D01*
X97601501Y-74361395D01*
X97601506Y-74361402D01*
X97768597Y-74528493D01*
X97768603Y-74528498D01*
X97954158Y-74658425D01*
X97997783Y-74713002D01*
X98004977Y-74782500D01*
X97973454Y-74844855D01*
X97954158Y-74861575D01*
X97768597Y-74991505D01*
X97601505Y-75158597D01*
X97465965Y-75352169D01*
X97465964Y-75352171D01*
X97366098Y-75566335D01*
X97366094Y-75566344D01*
X97304938Y-75794586D01*
X97304936Y-75794596D01*
X97284341Y-76029999D01*
X97284341Y-76030000D01*
X97304936Y-76265403D01*
X97304938Y-76265413D01*
X97366094Y-76493655D01*
X97366096Y-76493659D01*
X97366097Y-76493663D01*
X97465965Y-76707830D01*
X97465967Y-76707834D01*
X97601501Y-76901395D01*
X97601506Y-76901402D01*
X97768597Y-77068493D01*
X97768603Y-77068498D01*
X97954158Y-77198425D01*
X97997783Y-77253002D01*
X98004977Y-77322500D01*
X97973454Y-77384855D01*
X97954158Y-77401575D01*
X97768597Y-77531505D01*
X97601505Y-77698597D01*
X97465965Y-77892169D01*
X97465964Y-77892171D01*
X97366098Y-78106335D01*
X97366094Y-78106344D01*
X97304938Y-78334586D01*
X97304936Y-78334596D01*
X97284341Y-78569999D01*
X97284341Y-78570000D01*
X97304936Y-78805403D01*
X97304938Y-78805413D01*
X97366094Y-79033655D01*
X97366096Y-79033659D01*
X97366097Y-79033663D01*
X97465965Y-79247830D01*
X97465967Y-79247834D01*
X97601501Y-79441395D01*
X97601506Y-79441402D01*
X97768597Y-79608493D01*
X97768603Y-79608498D01*
X97954158Y-79738425D01*
X97997783Y-79793002D01*
X98004977Y-79862500D01*
X97973454Y-79924855D01*
X97954158Y-79941575D01*
X97768597Y-80071505D01*
X97601505Y-80238597D01*
X97465965Y-80432169D01*
X97465964Y-80432171D01*
X97366098Y-80646335D01*
X97366094Y-80646344D01*
X97304938Y-80874586D01*
X97304936Y-80874596D01*
X97284341Y-81109999D01*
X97284341Y-81110000D01*
X97304936Y-81345403D01*
X97304938Y-81345413D01*
X97366094Y-81573655D01*
X97366096Y-81573659D01*
X97366097Y-81573663D01*
X97465965Y-81787830D01*
X97465967Y-81787834D01*
X97601501Y-81981395D01*
X97601506Y-81981402D01*
X97768597Y-82148493D01*
X97768603Y-82148498D01*
X97954158Y-82278425D01*
X97997783Y-82333002D01*
X98004977Y-82402500D01*
X97973454Y-82464855D01*
X97954158Y-82481575D01*
X97768597Y-82611505D01*
X97601505Y-82778597D01*
X97465965Y-82972169D01*
X97465964Y-82972171D01*
X97366098Y-83186335D01*
X97366094Y-83186344D01*
X97304938Y-83414586D01*
X97304936Y-83414596D01*
X97284341Y-83649999D01*
X97284341Y-83650000D01*
X97304936Y-83885403D01*
X97304938Y-83885413D01*
X97366094Y-84113655D01*
X97366096Y-84113659D01*
X97366097Y-84113663D01*
X97441563Y-84275500D01*
X97465965Y-84327830D01*
X97465967Y-84327834D01*
X97524281Y-84411114D01*
X97601501Y-84521396D01*
X97601506Y-84521402D01*
X97768597Y-84688493D01*
X97768603Y-84688498D01*
X97954158Y-84818425D01*
X97997783Y-84873002D01*
X98004977Y-84942500D01*
X97973454Y-85004855D01*
X97954158Y-85021575D01*
X97768597Y-85151505D01*
X97601505Y-85318597D01*
X97465965Y-85512169D01*
X97465964Y-85512171D01*
X97366098Y-85726335D01*
X97366094Y-85726344D01*
X97304938Y-85954586D01*
X97304936Y-85954596D01*
X97284341Y-86189999D01*
X97284341Y-86190000D01*
X97304936Y-86425403D01*
X97304938Y-86425413D01*
X97366094Y-86653655D01*
X97366096Y-86653659D01*
X97366097Y-86653663D01*
X97465965Y-86867830D01*
X97465967Y-86867834D01*
X97601501Y-87061395D01*
X97601506Y-87061402D01*
X97768597Y-87228493D01*
X97768603Y-87228498D01*
X97954158Y-87358425D01*
X97997783Y-87413002D01*
X98004977Y-87482500D01*
X97973454Y-87544855D01*
X97954158Y-87561575D01*
X97768597Y-87691505D01*
X97601505Y-87858597D01*
X97465965Y-88052169D01*
X97465964Y-88052171D01*
X97366098Y-88266335D01*
X97366094Y-88266344D01*
X97304938Y-88494586D01*
X97304936Y-88494596D01*
X97284341Y-88729999D01*
X97284341Y-88730000D01*
X97304936Y-88965403D01*
X97304938Y-88965413D01*
X97366094Y-89193655D01*
X97366096Y-89193659D01*
X97366097Y-89193663D01*
X97465965Y-89407830D01*
X97465967Y-89407834D01*
X97601501Y-89601395D01*
X97601506Y-89601402D01*
X97768597Y-89768493D01*
X97768603Y-89768498D01*
X97954158Y-89898425D01*
X97997783Y-89953002D01*
X98004977Y-90022500D01*
X97973454Y-90084855D01*
X97954158Y-90101575D01*
X97768597Y-90231505D01*
X97601505Y-90398597D01*
X97465965Y-90592169D01*
X97465964Y-90592171D01*
X97366098Y-90806335D01*
X97366094Y-90806344D01*
X97304938Y-91034586D01*
X97304936Y-91034596D01*
X97284341Y-91269999D01*
X97284341Y-91270000D01*
X97304936Y-91505403D01*
X97304938Y-91505413D01*
X97366094Y-91733655D01*
X97366096Y-91733659D01*
X97366097Y-91733663D01*
X97433795Y-91878842D01*
X97465965Y-91947830D01*
X97465967Y-91947834D01*
X97601501Y-92141395D01*
X97601506Y-92141402D01*
X97768597Y-92308493D01*
X97768603Y-92308498D01*
X97954158Y-92438425D01*
X97997783Y-92493002D01*
X98004977Y-92562500D01*
X97973454Y-92624855D01*
X97954158Y-92641575D01*
X97768597Y-92771505D01*
X97601505Y-92938597D01*
X97465965Y-93132169D01*
X97465964Y-93132171D01*
X97366098Y-93346335D01*
X97366094Y-93346344D01*
X97304938Y-93574586D01*
X97304936Y-93574596D01*
X97284341Y-93809999D01*
X97284341Y-93810000D01*
X97304936Y-94045403D01*
X97304938Y-94045413D01*
X97366094Y-94273655D01*
X97366096Y-94273659D01*
X97366097Y-94273663D01*
X97447714Y-94448690D01*
X97465965Y-94487830D01*
X97465967Y-94487834D01*
X97601501Y-94681395D01*
X97601506Y-94681402D01*
X97768597Y-94848493D01*
X97768603Y-94848498D01*
X97954158Y-94978425D01*
X97997783Y-95033002D01*
X98004977Y-95102500D01*
X97973454Y-95164855D01*
X97954158Y-95181575D01*
X97768597Y-95311505D01*
X97601505Y-95478597D01*
X97465965Y-95672169D01*
X97465964Y-95672171D01*
X97366098Y-95886335D01*
X97366094Y-95886344D01*
X97304938Y-96114586D01*
X97304936Y-96114596D01*
X97284341Y-96349999D01*
X97284341Y-96350000D01*
X97304936Y-96585403D01*
X97304938Y-96585413D01*
X97366094Y-96813655D01*
X97366096Y-96813659D01*
X97366097Y-96813663D01*
X97414498Y-96917458D01*
X97465965Y-97027830D01*
X97465967Y-97027834D01*
X97574281Y-97182521D01*
X97601505Y-97221401D01*
X97768599Y-97388495D01*
X97846046Y-97442724D01*
X97962165Y-97524032D01*
X97962167Y-97524033D01*
X97962170Y-97524035D01*
X98176337Y-97623903D01*
X98404592Y-97685063D01*
X98592918Y-97701539D01*
X98639999Y-97705659D01*
X98640000Y-97705659D01*
X98640001Y-97705659D01*
X98679234Y-97702226D01*
X98875408Y-97685063D01*
X99103663Y-97623903D01*
X99317830Y-97524035D01*
X99511401Y-97388495D01*
X99678495Y-97221401D01*
X99814035Y-97027830D01*
X99913903Y-96813663D01*
X99975063Y-96585408D01*
X99995659Y-96350000D01*
X99975063Y-96114592D01*
X99925274Y-95928774D01*
X99913905Y-95886344D01*
X99913904Y-95886343D01*
X99913903Y-95886337D01*
X99814035Y-95672171D01*
X99778732Y-95621752D01*
X99678494Y-95478597D01*
X99511402Y-95311506D01*
X99511396Y-95311501D01*
X99325842Y-95181575D01*
X99282217Y-95126998D01*
X99275023Y-95057500D01*
X99306546Y-94995145D01*
X99325842Y-94978425D01*
X99348026Y-94962891D01*
X99511401Y-94848495D01*
X99678495Y-94681401D01*
X99814035Y-94487830D01*
X99913903Y-94273663D01*
X99975063Y-94045408D01*
X99995659Y-93810000D01*
X99975063Y-93574592D01*
X99913903Y-93346337D01*
X99814035Y-93132171D01*
X99678495Y-92938599D01*
X99678494Y-92938597D01*
X99511402Y-92771506D01*
X99511396Y-92771501D01*
X99325842Y-92641575D01*
X99282217Y-92586998D01*
X99275023Y-92517500D01*
X99306546Y-92455145D01*
X99325842Y-92438425D01*
X99348026Y-92422891D01*
X99511401Y-92308495D01*
X99678495Y-92141401D01*
X99814035Y-91947830D01*
X99913903Y-91733663D01*
X99975063Y-91505408D01*
X99995659Y-91270000D01*
X99975063Y-91034592D01*
X99913903Y-90806337D01*
X99814035Y-90592171D01*
X99678495Y-90398599D01*
X99678494Y-90398597D01*
X99511402Y-90231506D01*
X99511396Y-90231501D01*
X99325842Y-90101575D01*
X99282217Y-90046998D01*
X99275023Y-89977500D01*
X99306546Y-89915145D01*
X99325842Y-89898425D01*
X99348026Y-89882891D01*
X99511401Y-89768495D01*
X99678495Y-89601401D01*
X99814035Y-89407830D01*
X99913903Y-89193663D01*
X99975063Y-88965408D01*
X99995659Y-88730000D01*
X99975063Y-88494592D01*
X99913903Y-88266337D01*
X99814035Y-88052171D01*
X99678495Y-87858599D01*
X99678494Y-87858597D01*
X99511402Y-87691506D01*
X99511396Y-87691501D01*
X99325842Y-87561575D01*
X99282217Y-87506998D01*
X99275023Y-87437500D01*
X99306546Y-87375145D01*
X99325842Y-87358425D01*
X99348026Y-87342891D01*
X99511401Y-87228495D01*
X99678495Y-87061401D01*
X99814035Y-86867830D01*
X99913903Y-86653663D01*
X99975063Y-86425408D01*
X99995659Y-86190000D01*
X99975063Y-85954592D01*
X99913903Y-85726337D01*
X99814035Y-85512171D01*
X99809410Y-85505565D01*
X99678494Y-85318597D01*
X99511402Y-85151506D01*
X99511396Y-85151501D01*
X99325842Y-85021575D01*
X99282217Y-84966998D01*
X99275023Y-84897500D01*
X99306546Y-84835145D01*
X99325842Y-84818425D01*
X99420829Y-84751914D01*
X99511401Y-84688495D01*
X99678495Y-84521401D01*
X99814035Y-84327830D01*
X99913903Y-84113663D01*
X99975063Y-83885408D01*
X99995659Y-83650000D01*
X99975063Y-83414592D01*
X99913903Y-83186337D01*
X99814035Y-82972171D01*
X99813652Y-82971623D01*
X99678494Y-82778597D01*
X99511402Y-82611506D01*
X99511396Y-82611501D01*
X99325842Y-82481575D01*
X99282217Y-82426998D01*
X99275023Y-82357500D01*
X99306546Y-82295145D01*
X99325842Y-82278425D01*
X99348026Y-82262891D01*
X99511401Y-82148495D01*
X99678495Y-81981401D01*
X99814035Y-81787830D01*
X99913903Y-81573663D01*
X99975063Y-81345408D01*
X99995659Y-81110000D01*
X99975063Y-80874592D01*
X99913903Y-80646337D01*
X99814035Y-80432171D01*
X99678495Y-80238599D01*
X99678494Y-80238597D01*
X99511402Y-80071506D01*
X99511396Y-80071501D01*
X99325842Y-79941575D01*
X99282217Y-79886998D01*
X99275023Y-79817500D01*
X99306546Y-79755145D01*
X99325842Y-79738425D01*
X99348026Y-79722891D01*
X99511401Y-79608495D01*
X99678495Y-79441401D01*
X99814035Y-79247830D01*
X99913903Y-79033663D01*
X99975063Y-78805408D01*
X99995659Y-78570000D01*
X99975063Y-78334592D01*
X99913903Y-78106337D01*
X99814035Y-77892171D01*
X99686683Y-77710292D01*
X99678494Y-77698597D01*
X99511402Y-77531506D01*
X99511396Y-77531501D01*
X99325842Y-77401575D01*
X99282217Y-77346998D01*
X99275023Y-77277500D01*
X99306546Y-77215145D01*
X99325842Y-77198425D01*
X99348026Y-77182891D01*
X99511401Y-77068495D01*
X99678495Y-76901401D01*
X99814035Y-76707830D01*
X99913903Y-76493663D01*
X99975063Y-76265408D01*
X99995659Y-76030000D01*
X99975536Y-75799998D01*
X112094435Y-75799998D01*
X112094435Y-75800001D01*
X112098720Y-75838029D01*
X112099500Y-75851914D01*
X112099500Y-75878844D01*
X112107288Y-75918003D01*
X112108890Y-75928303D01*
X112114632Y-75979252D01*
X112114633Y-75979260D01*
X112122976Y-76003104D01*
X112127550Y-76019860D01*
X112130262Y-76033496D01*
X112150509Y-76082377D01*
X112152988Y-76088872D01*
X112174212Y-76149524D01*
X112180709Y-76159865D01*
X112190268Y-76178365D01*
X112190603Y-76179173D01*
X112190605Y-76179179D01*
X112227223Y-76233982D01*
X112229114Y-76236900D01*
X112270180Y-76302257D01*
X112270182Y-76302260D01*
X112363181Y-76395259D01*
X112396666Y-76456582D01*
X112399500Y-76482940D01*
X112399500Y-77278846D01*
X112430261Y-77433489D01*
X112430264Y-77433501D01*
X112490602Y-77579172D01*
X112490609Y-77579185D01*
X112578210Y-77710288D01*
X112578213Y-77710292D01*
X116441577Y-81573655D01*
X120070184Y-85202262D01*
X120197738Y-85329816D01*
X120263096Y-85370883D01*
X120263131Y-85370905D01*
X120266040Y-85372790D01*
X120320821Y-85409394D01*
X120321606Y-85409719D01*
X120340134Y-85419289D01*
X120350478Y-85425789D01*
X120411114Y-85447006D01*
X120417611Y-85449486D01*
X120466503Y-85469738D01*
X120466510Y-85469739D01*
X120466512Y-85469740D01*
X120480142Y-85472451D01*
X120496907Y-85477026D01*
X120520745Y-85485368D01*
X120571711Y-85491109D01*
X120581998Y-85492710D01*
X120599562Y-85496204D01*
X120621155Y-85500500D01*
X120621158Y-85500500D01*
X120648085Y-85500500D01*
X120661969Y-85501280D01*
X120699998Y-85505565D01*
X120700000Y-85505565D01*
X120700002Y-85505565D01*
X120738031Y-85501280D01*
X120751915Y-85500500D01*
X120778845Y-85500500D01*
X120791003Y-85498080D01*
X120818009Y-85492708D01*
X120828285Y-85491110D01*
X120879255Y-85485368D01*
X120903095Y-85477025D01*
X120919845Y-85472452D01*
X120933497Y-85469738D01*
X120982407Y-85449477D01*
X120988837Y-85447022D01*
X121049522Y-85425789D01*
X121059868Y-85419287D01*
X121078390Y-85409720D01*
X121079179Y-85409394D01*
X121133987Y-85372771D01*
X121136825Y-85370931D01*
X121202262Y-85329816D01*
X121329816Y-85202262D01*
X121370931Y-85136825D01*
X121372777Y-85133979D01*
X121409389Y-85079186D01*
X121409394Y-85079179D01*
X121409720Y-85078390D01*
X121419287Y-85059868D01*
X121425789Y-85049522D01*
X121447022Y-84988837D01*
X121449477Y-84982407D01*
X121469738Y-84933497D01*
X121472452Y-84919845D01*
X121477025Y-84903095D01*
X121485368Y-84879255D01*
X121491110Y-84828285D01*
X121492708Y-84818009D01*
X121500500Y-84778843D01*
X121500500Y-84751914D01*
X121501280Y-84738029D01*
X121505565Y-84700001D01*
X121505565Y-84699998D01*
X121501280Y-84661969D01*
X121500500Y-84648085D01*
X121500500Y-84621154D01*
X121492712Y-84582010D01*
X121491109Y-84571711D01*
X121485368Y-84520745D01*
X121477026Y-84496907D01*
X121472451Y-84480142D01*
X121469740Y-84466512D01*
X121469739Y-84466510D01*
X121469738Y-84466503D01*
X121449486Y-84417611D01*
X121447006Y-84411114D01*
X121425789Y-84350479D01*
X121425789Y-84350478D01*
X121419289Y-84340134D01*
X121409719Y-84321606D01*
X121409394Y-84320821D01*
X121372790Y-84266040D01*
X121370905Y-84263131D01*
X121329816Y-84197738D01*
X121202262Y-84070184D01*
X114036819Y-76904741D01*
X114003334Y-76843418D01*
X114000500Y-76817060D01*
X114000500Y-76021155D01*
X114000499Y-76021153D01*
X113979981Y-75918003D01*
X113969737Y-75866503D01*
X113942190Y-75799998D01*
X113909397Y-75720827D01*
X113909390Y-75720814D01*
X113821790Y-75589712D01*
X113798413Y-75566335D01*
X113710289Y-75478211D01*
X113410289Y-75178211D01*
X113402262Y-75170184D01*
X113402260Y-75170182D01*
X113402257Y-75170180D01*
X113336900Y-75129114D01*
X113333982Y-75127223D01*
X113279179Y-75090605D01*
X113279173Y-75090603D01*
X113278365Y-75090268D01*
X113259865Y-75080709D01*
X113249524Y-75074212D01*
X113249523Y-75074211D01*
X113249522Y-75074211D01*
X113188867Y-75052986D01*
X113182377Y-75050509D01*
X113133496Y-75030262D01*
X113119860Y-75027550D01*
X113103104Y-75022976D01*
X113079260Y-75014633D01*
X113079256Y-75014632D01*
X113079255Y-75014632D01*
X113058575Y-75012301D01*
X113028303Y-75008890D01*
X113018003Y-75007288D01*
X112978844Y-74999500D01*
X112978842Y-74999500D01*
X112951915Y-74999500D01*
X112938031Y-74998720D01*
X112900002Y-74994435D01*
X112899998Y-74994435D01*
X112861969Y-74998720D01*
X112848085Y-74999500D01*
X112821152Y-74999500D01*
X112781994Y-75007288D01*
X112771696Y-75008890D01*
X112720742Y-75014632D01*
X112720735Y-75014634D01*
X112696898Y-75022975D01*
X112680140Y-75027550D01*
X112666502Y-75030263D01*
X112666496Y-75030264D01*
X112617631Y-75050504D01*
X112611140Y-75052982D01*
X112550477Y-75074210D01*
X112550474Y-75074212D01*
X112540127Y-75080713D01*
X112521639Y-75090266D01*
X112520832Y-75090600D01*
X112520824Y-75090604D01*
X112466047Y-75127204D01*
X112463132Y-75129092D01*
X112397742Y-75170180D01*
X112397735Y-75170186D01*
X112270186Y-75297735D01*
X112270180Y-75297742D01*
X112229092Y-75363132D01*
X112227204Y-75366047D01*
X112190604Y-75420824D01*
X112190600Y-75420832D01*
X112190266Y-75421639D01*
X112180713Y-75440127D01*
X112174212Y-75450474D01*
X112174210Y-75450477D01*
X112152982Y-75511140D01*
X112150504Y-75517631D01*
X112130264Y-75566496D01*
X112130263Y-75566502D01*
X112127550Y-75580140D01*
X112122975Y-75596898D01*
X112114634Y-75620735D01*
X112114632Y-75620742D01*
X112108890Y-75671696D01*
X112107288Y-75681994D01*
X112099500Y-75721152D01*
X112099500Y-75748085D01*
X112098720Y-75761969D01*
X112094435Y-75799998D01*
X99975536Y-75799998D01*
X99975063Y-75794592D01*
X99919890Y-75588682D01*
X99913905Y-75566344D01*
X99913904Y-75566343D01*
X99913903Y-75566337D01*
X99814035Y-75352171D01*
X99742161Y-75249523D01*
X99678494Y-75158597D01*
X99511402Y-74991506D01*
X99511396Y-74991501D01*
X99325842Y-74861575D01*
X99282217Y-74806998D01*
X99275023Y-74737500D01*
X99306546Y-74675145D01*
X99325842Y-74658425D01*
X99348026Y-74642891D01*
X99511401Y-74528495D01*
X99678495Y-74361401D01*
X99814035Y-74167830D01*
X99913903Y-73953663D01*
X99975063Y-73725408D01*
X99995659Y-73490000D01*
X99975063Y-73254592D01*
X99913903Y-73026337D01*
X99814035Y-72812171D01*
X99678495Y-72618599D01*
X99678494Y-72618597D01*
X99511402Y-72451506D01*
X99511396Y-72451501D01*
X99325842Y-72321575D01*
X99282217Y-72266998D01*
X99275023Y-72197500D01*
X99306546Y-72135145D01*
X99325842Y-72118425D01*
X99348026Y-72102891D01*
X99511401Y-71988495D01*
X99678495Y-71821401D01*
X99814035Y-71627830D01*
X99913903Y-71413663D01*
X99975063Y-71185408D01*
X99995659Y-70950000D01*
X99975063Y-70714592D01*
X99913903Y-70486337D01*
X99814035Y-70272171D01*
X99678495Y-70078599D01*
X99678494Y-70078597D01*
X99511402Y-69911506D01*
X99511396Y-69911501D01*
X99325842Y-69781575D01*
X99282217Y-69726998D01*
X99275023Y-69657500D01*
X99306546Y-69595145D01*
X99325842Y-69578425D01*
X99348026Y-69562891D01*
X99511401Y-69448495D01*
X99678495Y-69281401D01*
X99814035Y-69087830D01*
X99913903Y-68873663D01*
X99975063Y-68645408D01*
X99995659Y-68410000D01*
X99975063Y-68174592D01*
X99913903Y-67946337D01*
X99814035Y-67732171D01*
X99809567Y-67725789D01*
X99678494Y-67538597D01*
X99511402Y-67371506D01*
X99511396Y-67371501D01*
X99325842Y-67241575D01*
X99282217Y-67186998D01*
X99275023Y-67117500D01*
X99306546Y-67055145D01*
X99325842Y-67038425D01*
X99380724Y-66999996D01*
X99511401Y-66908495D01*
X99678495Y-66741401D01*
X99814035Y-66547830D01*
X99913903Y-66333663D01*
X99975063Y-66105408D01*
X99995659Y-65870000D01*
X99975063Y-65634592D01*
X99913903Y-65406337D01*
X99814035Y-65192171D01*
X99799146Y-65170906D01*
X99678494Y-64998597D01*
X99511402Y-64831506D01*
X99511396Y-64831501D01*
X99325842Y-64701575D01*
X99282217Y-64646998D01*
X99275023Y-64577500D01*
X99306546Y-64515145D01*
X99325842Y-64498425D01*
X99348026Y-64482891D01*
X99511401Y-64368495D01*
X99678495Y-64201401D01*
X99814035Y-64007830D01*
X99913903Y-63793663D01*
X99975063Y-63565408D01*
X99995659Y-63330000D01*
X99975063Y-63094592D01*
X99913903Y-62866337D01*
X99814035Y-62652171D01*
X99678495Y-62458599D01*
X99556567Y-62336671D01*
X99523084Y-62275351D01*
X99528068Y-62205659D01*
X99569939Y-62149725D01*
X99600915Y-62132810D01*
X99732331Y-62083796D01*
X99847546Y-61997546D01*
X99933796Y-61882331D01*
X99984091Y-61747483D01*
X99990500Y-61687873D01*
X99990499Y-59892128D01*
X99984091Y-59832517D01*
X99933796Y-59697669D01*
X99933795Y-59697668D01*
X99933793Y-59697664D01*
X99847547Y-59582455D01*
X99847544Y-59582452D01*
X99732335Y-59496206D01*
X99732328Y-59496202D01*
X99597482Y-59445908D01*
X99597483Y-59445908D01*
X99537883Y-59439501D01*
X99537881Y-59439500D01*
X99537873Y-59439500D01*
X99537864Y-59439500D01*
X97742129Y-59439500D01*
X97742123Y-59439501D01*
X97682516Y-59445908D01*
X97547671Y-59496202D01*
X97547664Y-59496206D01*
X97432455Y-59582452D01*
X97432452Y-59582455D01*
X97346206Y-59697664D01*
X97346202Y-59697671D01*
X97295908Y-59832517D01*
X97289501Y-59892116D01*
X97289501Y-59892123D01*
X97289500Y-59892135D01*
X97289500Y-61687870D01*
X97289501Y-61687876D01*
X97295908Y-61747483D01*
X97346202Y-61882328D01*
X97346206Y-61882335D01*
X97432452Y-61997544D01*
X97432455Y-61997547D01*
X97547664Y-62083793D01*
X97547671Y-62083797D01*
X97679081Y-62132810D01*
X97735015Y-62174681D01*
X97759432Y-62240145D01*
X97744580Y-62308418D01*
X97723430Y-62336673D01*
X97601503Y-62458600D01*
X97465965Y-62652169D01*
X97465964Y-62652171D01*
X97366098Y-62866335D01*
X97366094Y-62866344D01*
X97304938Y-63094586D01*
X97304936Y-63094596D01*
X97284341Y-63329999D01*
X90200500Y-63329999D01*
X90200500Y-53315649D01*
X108185000Y-53315649D01*
X108187899Y-53352489D01*
X108187900Y-53352495D01*
X108233716Y-53510193D01*
X108233717Y-53510196D01*
X108317314Y-53651552D01*
X108317321Y-53651561D01*
X108433438Y-53767678D01*
X108433447Y-53767685D01*
X108574801Y-53851281D01*
X108732514Y-53897100D01*
X108732511Y-53897100D01*
X108734998Y-53897295D01*
X108735000Y-53897295D01*
X108735000Y-52875000D01*
X108185000Y-52875000D01*
X108185000Y-53315649D01*
X90200500Y-53315649D01*
X90200500Y-47314500D01*
X90220185Y-47247461D01*
X90272989Y-47201706D01*
X90324500Y-47190500D01*
X94422512Y-47190500D01*
X94489551Y-47210185D01*
G37*
%TD.AperFunction*%
%TD*%
M02*
