%TF.GenerationSoftware,KiCad,Pcbnew,8.0.8*%
%TF.CreationDate,2025-11-05T19:44:22+00:00*%
%TF.ProjectId,Attendance System_v2,41747465-6e64-4616-9e63-652053797374,rev?*%
%TF.SameCoordinates,Original*%
%TF.FileFunction,Copper,L1,Top*%
%TF.FilePolarity,Positive*%
%FSLAX46Y46*%
G04 Gerber Fmt 4.6, Leading zero omitted, Abs format (unit mm)*
G04 Created by KiCad (PCBNEW 8.0.8) date 2025-11-05 19:44:22*
%MOMM*%
%LPD*%
G01*
G04 APERTURE LIST*
G04 Aperture macros list*
%AMRoundRect*
0 Rectangle with rounded corners*
0 $1 Rounding radius*
0 $2 $3 $4 $5 $6 $7 $8 $9 X,Y pos of 4 corners*
0 Add a 4 corners polygon primitive as box body*
4,1,4,$2,$3,$4,$5,$6,$7,$8,$9,$2,$3,0*
0 Add four circle primitives for the rounded corners*
1,1,$1+$1,$2,$3*
1,1,$1+$1,$4,$5*
1,1,$1+$1,$6,$7*
1,1,$1+$1,$8,$9*
0 Add four rect primitives between the rounded corners*
20,1,$1+$1,$2,$3,$4,$5,0*
20,1,$1+$1,$4,$5,$6,$7,0*
20,1,$1+$1,$6,$7,$8,$9,0*
20,1,$1+$1,$8,$9,$2,$3,0*%
G04 Aperture macros list end*
%TA.AperFunction,SMDPad,CuDef*%
%ADD10RoundRect,0.150000X-0.150000X-0.700000X0.150000X-0.700000X0.150000X0.700000X-0.150000X0.700000X0*%
%TD*%
%TA.AperFunction,SMDPad,CuDef*%
%ADD11RoundRect,0.250000X-0.250000X-1.150000X0.250000X-1.150000X0.250000X1.150000X-0.250000X1.150000X0*%
%TD*%
%TA.AperFunction,ComponentPad*%
%ADD12R,1.700000X1.700000*%
%TD*%
%TA.AperFunction,ComponentPad*%
%ADD13O,1.700000X1.700000*%
%TD*%
%TA.AperFunction,SMDPad,CuDef*%
%ADD14RoundRect,0.250000X-0.350000X-0.650000X0.350000X-0.650000X0.350000X0.650000X-0.350000X0.650000X0*%
%TD*%
%TA.AperFunction,SMDPad,CuDef*%
%ADD15RoundRect,0.150000X-0.150000X-0.625000X0.150000X-0.625000X0.150000X0.625000X-0.150000X0.625000X0*%
%TD*%
%TA.AperFunction,ViaPad*%
%ADD16C,0.600000*%
%TD*%
%TA.AperFunction,Conductor*%
%ADD17C,0.600000*%
%TD*%
%TA.AperFunction,Conductor*%
%ADD18C,0.200000*%
%TD*%
%TA.AperFunction,Conductor*%
%ADD19C,0.250000*%
%TD*%
%TA.AperFunction,Conductor*%
%ADD20C,0.127000*%
%TD*%
G04 APERTURE END LIST*
D10*
%TO.P,J5,1,Pin_1*%
%TO.N,+5V*%
X94375000Y-53750000D03*
%TO.P,J5,2,Pin_2*%
%TO.N,GND*%
X95625000Y-53750000D03*
D11*
%TO.P,J5,MP*%
%TO.N,N/C*%
X92525000Y-50400000D03*
X97475000Y-50400000D03*
%TD*%
D12*
%TO.P,J4,1,Pin_1*%
%TO.N,GND*%
X93400000Y-70420000D03*
D13*
%TO.P,J4,2,Pin_2*%
%TO.N,+3V3*%
X93400000Y-72960000D03*
%TO.P,J4,3,Pin_3*%
%TO.N,SDA*%
X93400000Y-75500000D03*
%TO.P,J4,4,Pin_4*%
%TO.N,SCL*%
X93400000Y-78040000D03*
%TO.P,J4,5,Pin_5*%
%TO.N,SKW*%
X93400000Y-80580000D03*
%TO.P,J4,6,Pin_6*%
%TO.N,32K*%
X93400000Y-83120000D03*
%TD*%
D14*
%TO.P,J3,MP*%
%TO.N,N/C*%
X115285000Y-50100000D03*
X107685000Y-50100000D03*
D15*
%TO.P,J3,6,Pin_6*%
%TO.N,+3V3*%
X113985000Y-52625000D03*
%TO.P,J3,5,Pin_5*%
%TO.N,GND*%
X112985000Y-52625000D03*
%TO.P,J3,4,Pin_4*%
%TO.N,TX*%
X111985000Y-52625000D03*
%TO.P,J3,3,Pin_3*%
%TO.N,RX*%
X110985000Y-52625000D03*
%TO.P,J3,2,Pin_2*%
%TO.N,unconnected-(J3-Pin_2-Pad2)*%
X109985000Y-52625000D03*
%TO.P,J3,1,Pin_1*%
%TO.N,+3V3*%
X108985000Y-52625000D03*
%TD*%
D13*
%TO.P,J2,15,Pin_15*%
%TO.N,+5V*%
X100640000Y-96350000D03*
%TO.P,J2,14,Pin_14*%
%TO.N,GND*%
X100640000Y-93810000D03*
%TO.P,J2,13,Pin_13*%
%TO.N,unconnected-(J2-Pin_13-Pad13)*%
X100640000Y-91270000D03*
%TO.P,J2,12,Pin_12*%
%TO.N,unconnected-(J2-Pin_12-Pad12)*%
X100640000Y-88730000D03*
%TO.P,J2,11,Pin_11*%
%TO.N,unconnected-(J2-Pin_11-Pad11)*%
X100640000Y-86190000D03*
%TO.P,J2,10,Pin_10*%
%TO.N,unconnected-(J2-Pin_10-Pad10)*%
X100640000Y-83650000D03*
%TO.P,J2,9,Pin_9*%
%TO.N,unconnected-(J2-Pin_9-Pad9)*%
X100640000Y-81110000D03*
%TO.P,J2,8,Pin_8*%
%TO.N,unconnected-(J2-Pin_8-Pad8)*%
X100640000Y-78570000D03*
%TO.P,J2,7,Pin_7*%
%TO.N,unconnected-(J2-Pin_7-Pad7)*%
X100640000Y-76030000D03*
%TO.P,J2,6,Pin_6*%
%TO.N,unconnected-(J2-Pin_6-Pad6)*%
X100640000Y-73490000D03*
%TO.P,J2,5,Pin_5*%
%TO.N,unconnected-(J2-Pin_5-Pad5)*%
X100640000Y-70950000D03*
%TO.P,J2,4,Pin_4*%
%TO.N,unconnected-(J2-Pin_4-Pad4)*%
X100640000Y-68410000D03*
%TO.P,J2,3,Pin_3*%
%TO.N,unconnected-(J2-Pin_3-Pad3)*%
X100640000Y-65870000D03*
%TO.P,J2,2,Pin_2*%
%TO.N,unconnected-(J2-Pin_2-Pad2)*%
X100640000Y-63330000D03*
D12*
%TO.P,J2,1,Pin_1*%
%TO.N,unconnected-(J2-Pin_1-Pad1)*%
X100640000Y-60790000D03*
%TD*%
%TO.P,J1,1,Pin_1*%
%TO.N,unconnected-(J1-Pin_1-Pad1)*%
X126640000Y-60790000D03*
D13*
%TO.P,J1,2,Pin_2*%
%TO.N,SCL*%
X126640000Y-63330000D03*
%TO.P,J1,3,Pin_3*%
%TO.N,unconnected-(J1-Pin_3-Pad3)*%
X126640000Y-65870000D03*
%TO.P,J1,4,Pin_4*%
%TO.N,unconnected-(J1-Pin_4-Pad4)*%
X126640000Y-68410000D03*
%TO.P,J1,5,Pin_5*%
%TO.N,SDA*%
X126640000Y-70950000D03*
%TO.P,J1,6,Pin_6*%
%TO.N,unconnected-(J1-Pin_6-Pad6)*%
X126640000Y-73490000D03*
%TO.P,J1,7,Pin_7*%
%TO.N,unconnected-(J1-Pin_7-Pad7)*%
X126640000Y-76030000D03*
%TO.P,J1,8,Pin_8*%
%TO.N,unconnected-(J1-Pin_8-Pad8)*%
X126640000Y-78570000D03*
%TO.P,J1,9,Pin_9*%
%TO.N,RX*%
X126640000Y-81110000D03*
%TO.P,J1,10,Pin_10*%
%TO.N,TX*%
X126640000Y-83650000D03*
%TO.P,J1,11,Pin_11*%
%TO.N,unconnected-(J1-Pin_11-Pad11)*%
X126640000Y-86190000D03*
%TO.P,J1,12,Pin_12*%
%TO.N,unconnected-(J1-Pin_12-Pad12)*%
X126640000Y-88730000D03*
%TO.P,J1,13,Pin_13*%
%TO.N,unconnected-(J1-Pin_13-Pad13)*%
X126640000Y-91270000D03*
%TO.P,J1,14,Pin_14*%
%TO.N,GND*%
X126640000Y-93810000D03*
%TO.P,J1,15,Pin_15*%
%TO.N,+3V3*%
X126640000Y-96350000D03*
%TD*%
D16*
%TO.N,+5V*%
X90800000Y-92600000D03*
X97300000Y-96200000D03*
%TO.N,SCL*%
X123000000Y-64000000D03*
X96100000Y-78000000D03*
%TO.N,SDA*%
X112100000Y-65200000D03*
X95600000Y-75400000D03*
%TO.N,GND*%
X124959067Y-93640933D03*
X116400000Y-93800000D03*
%TO.N,TX*%
X116400000Y-67000000D03*
X116300000Y-74900000D03*
%TO.N,GND*%
X113000000Y-54500000D03*
X124300000Y-91600000D03*
X120700000Y-84700000D03*
X112900000Y-75800000D03*
%TD*%
D17*
%TO.N,+5V*%
X97300000Y-96200000D02*
X100490000Y-96200000D01*
X100490000Y-96200000D02*
X100640000Y-96350000D01*
X90800000Y-57325000D02*
X90800000Y-92600000D01*
X94375000Y-53750000D02*
X90800000Y-57325000D01*
%TO.N,GND*%
X95625000Y-67325000D02*
X95700000Y-67400000D01*
X95625000Y-53750000D02*
X95625000Y-67325000D01*
X95700000Y-67400000D02*
X94600000Y-67400000D01*
X97000000Y-67400000D02*
X95700000Y-67400000D01*
D18*
%TO.N,SCL*%
X123670000Y-63330000D02*
X126640000Y-63330000D01*
X123000000Y-64000000D02*
X123670000Y-63330000D01*
X96060000Y-78040000D02*
X96100000Y-78000000D01*
X93400000Y-78040000D02*
X96060000Y-78040000D01*
%TO.N,SDA*%
X123000000Y-71500000D02*
X123550000Y-70950000D01*
X118400000Y-71500000D02*
X123000000Y-71500000D01*
X112100000Y-65200000D02*
X118400000Y-71500000D01*
X123550000Y-70950000D02*
X126640000Y-70950000D01*
X95500000Y-75500000D02*
X95600000Y-75400000D01*
X93400000Y-75500000D02*
X95500000Y-75500000D01*
D17*
%TO.N,+3V3*%
X94200000Y-98500000D02*
X122200000Y-98500000D01*
X122200000Y-98500000D02*
X124350000Y-96350000D01*
X92123000Y-96423000D02*
X94200000Y-98500000D01*
X124350000Y-96350000D02*
X126640000Y-96350000D01*
X92123000Y-74237000D02*
X92123000Y-96423000D01*
X93400000Y-72960000D02*
X92123000Y-74237000D01*
%TO.N,GND*%
X93400000Y-68400000D02*
X93400000Y-70420000D01*
X94600000Y-67400000D02*
X94500000Y-67300000D01*
X97000000Y-90170000D02*
X97000000Y-67400000D01*
X94500000Y-67300000D02*
X93400000Y-68400000D01*
X100640000Y-93810000D02*
X97000000Y-90170000D01*
X126470933Y-93640933D02*
X126640000Y-93810000D01*
X124959067Y-93640933D02*
X126470933Y-93640933D01*
X116390000Y-93810000D02*
X116400000Y-93800000D01*
X100640000Y-93810000D02*
X116390000Y-93810000D01*
D19*
%TO.N,TX*%
X111985000Y-52625000D02*
X111985000Y-62585000D01*
X116300000Y-74900000D02*
X125050000Y-83650000D01*
X125050000Y-83650000D02*
X126640000Y-83650000D01*
X111985000Y-62585000D02*
X116400000Y-67000000D01*
D17*
%TO.N,GND*%
X112985000Y-54485000D02*
X113000000Y-54500000D01*
X113200000Y-76100000D02*
X113200000Y-77200000D01*
X124300000Y-91600000D02*
X124300000Y-91800000D01*
X112985000Y-52625000D02*
X112985000Y-54485000D01*
X113200000Y-77200000D02*
X120700000Y-84700000D01*
X112900000Y-75800000D02*
X113200000Y-76100000D01*
X124300000Y-91800000D02*
X125800000Y-93300000D01*
D19*
%TO.N,RX*%
X110985000Y-65455000D02*
X126640000Y-81110000D01*
X110985000Y-52625000D02*
X110985000Y-65455000D01*
D17*
%TO.N,+3V3*%
X108985000Y-51715000D02*
X108985000Y-52625000D01*
X109277000Y-51423000D02*
X108985000Y-51715000D01*
X108985000Y-52625000D02*
X108985000Y-78695000D01*
D20*
X113985000Y-51985000D02*
X113985000Y-52625000D01*
D17*
X108985000Y-78695000D02*
X126640000Y-96350000D01*
X113557999Y-51423000D02*
X109277000Y-51423000D01*
X113985000Y-51850001D02*
X113557999Y-51423000D01*
X113985000Y-52625000D02*
X113985000Y-51850001D01*
%TD*%
M02*
