%TF.GenerationSoftware,KiCad,Pcbnew,8.0.8*%
%TF.CreationDate,2025-11-05T19:44:22+00:00*%
%TF.ProjectId,Attendance System_v2,41747465-6e64-4616-9e63-652053797374,rev?*%
%TF.SameCoordinates,Original*%
%TF.FileFunction,Copper,L2,Bot*%
%TF.FilePolarity,Positive*%
%FSLAX46Y46*%
G04 Gerber Fmt 4.6, Leading zero omitted, Abs format (unit mm)*
G04 Created by KiCad (PCBNEW 8.0.8) date 2025-11-05 19:44:22*
%MOMM*%
%LPD*%
G01*
G04 APERTURE LIST*
%TA.AperFunction,ComponentPad*%
%ADD10R,1.700000X1.700000*%
%TD*%
%TA.AperFunction,ComponentPad*%
%ADD11O,1.700000X1.700000*%
%TD*%
%TA.AperFunction,ViaPad*%
%ADD12C,0.600000*%
%TD*%
%TA.AperFunction,Conductor*%
%ADD13C,0.600000*%
%TD*%
%TA.AperFunction,Conductor*%
%ADD14C,0.200000*%
%TD*%
%TA.AperFunction,Conductor*%
%ADD15C,0.250000*%
%TD*%
G04 APERTURE END LIST*
D10*
%TO.P,J4,1,Pin_1*%
%TO.N,GND*%
X93400000Y-70420000D03*
D11*
%TO.P,J4,2,Pin_2*%
%TO.N,+3V3*%
X93400000Y-72960000D03*
%TO.P,J4,3,Pin_3*%
%TO.N,SDA*%
X93400000Y-75500000D03*
%TO.P,J4,4,Pin_4*%
%TO.N,SCL*%
X93400000Y-78040000D03*
%TO.P,J4,5,Pin_5*%
%TO.N,SKW*%
X93400000Y-80580000D03*
%TO.P,J4,6,Pin_6*%
%TO.N,32K*%
X93400000Y-83120000D03*
%TD*%
%TO.P,J2,15,Pin_15*%
%TO.N,+5V*%
X100640000Y-96350000D03*
%TO.P,J2,14,Pin_14*%
%TO.N,GND*%
X100640000Y-93810000D03*
%TO.P,J2,13,Pin_13*%
%TO.N,unconnected-(J2-Pin_13-Pad13)*%
X100640000Y-91270000D03*
%TO.P,J2,12,Pin_12*%
%TO.N,unconnected-(J2-Pin_12-Pad12)*%
X100640000Y-88730000D03*
%TO.P,J2,11,Pin_11*%
%TO.N,unconnected-(J2-Pin_11-Pad11)*%
X100640000Y-86190000D03*
%TO.P,J2,10,Pin_10*%
%TO.N,unconnected-(J2-Pin_10-Pad10)*%
X100640000Y-83650000D03*
%TO.P,J2,9,Pin_9*%
%TO.N,unconnected-(J2-Pin_9-Pad9)*%
X100640000Y-81110000D03*
%TO.P,J2,8,Pin_8*%
%TO.N,unconnected-(J2-Pin_8-Pad8)*%
X100640000Y-78570000D03*
%TO.P,J2,7,Pin_7*%
%TO.N,unconnected-(J2-Pin_7-Pad7)*%
X100640000Y-76030000D03*
%TO.P,J2,6,Pin_6*%
%TO.N,unconnected-(J2-Pin_6-Pad6)*%
X100640000Y-73490000D03*
%TO.P,J2,5,Pin_5*%
%TO.N,unconnected-(J2-Pin_5-Pad5)*%
X100640000Y-70950000D03*
%TO.P,J2,4,Pin_4*%
%TO.N,unconnected-(J2-Pin_4-Pad4)*%
X100640000Y-68410000D03*
%TO.P,J2,3,Pin_3*%
%TO.N,unconnected-(J2-Pin_3-Pad3)*%
X100640000Y-65870000D03*
%TO.P,J2,2,Pin_2*%
%TO.N,unconnected-(J2-Pin_2-Pad2)*%
X100640000Y-63330000D03*
D10*
%TO.P,J2,1,Pin_1*%
%TO.N,unconnected-(J2-Pin_1-Pad1)*%
X100640000Y-60790000D03*
%TD*%
%TO.P,J1,1,Pin_1*%
%TO.N,unconnected-(J1-Pin_1-Pad1)*%
X126640000Y-60790000D03*
D11*
%TO.P,J1,2,Pin_2*%
%TO.N,SCL*%
X126640000Y-63330000D03*
%TO.P,J1,3,Pin_3*%
%TO.N,unconnected-(J1-Pin_3-Pad3)*%
X126640000Y-65870000D03*
%TO.P,J1,4,Pin_4*%
%TO.N,unconnected-(J1-Pin_4-Pad4)*%
X126640000Y-68410000D03*
%TO.P,J1,5,Pin_5*%
%TO.N,SDA*%
X126640000Y-70950000D03*
%TO.P,J1,6,Pin_6*%
%TO.N,unconnected-(J1-Pin_6-Pad6)*%
X126640000Y-73490000D03*
%TO.P,J1,7,Pin_7*%
%TO.N,unconnected-(J1-Pin_7-Pad7)*%
X126640000Y-76030000D03*
%TO.P,J1,8,Pin_8*%
%TO.N,unconnected-(J1-Pin_8-Pad8)*%
X126640000Y-78570000D03*
%TO.P,J1,9,Pin_9*%
%TO.N,RX*%
X126640000Y-81110000D03*
%TO.P,J1,10,Pin_10*%
%TO.N,TX*%
X126640000Y-83650000D03*
%TO.P,J1,11,Pin_11*%
%TO.N,unconnected-(J1-Pin_11-Pad11)*%
X126640000Y-86190000D03*
%TO.P,J1,12,Pin_12*%
%TO.N,unconnected-(J1-Pin_12-Pad12)*%
X126640000Y-88730000D03*
%TO.P,J1,13,Pin_13*%
%TO.N,unconnected-(J1-Pin_13-Pad13)*%
X126640000Y-91270000D03*
%TO.P,J1,14,Pin_14*%
%TO.N,GND*%
X126640000Y-93810000D03*
%TO.P,J1,15,Pin_15*%
%TO.N,+3V3*%
X126640000Y-96350000D03*
%TD*%
D12*
%TO.N,+5V*%
X90800000Y-92600000D03*
X97300000Y-96200000D03*
%TO.N,SCL*%
X123000000Y-64000000D03*
X96100000Y-78000000D03*
%TO.N,SDA*%
X112100000Y-65200000D03*
X95600000Y-75400000D03*
%TO.N,GND*%
X124959067Y-93640933D03*
X116400000Y-93800000D03*
%TO.N,TX*%
X116400000Y-67000000D03*
X116300000Y-74900000D03*
%TO.N,GND*%
X113000000Y-54500000D03*
X124300000Y-91600000D03*
X120700000Y-84700000D03*
X112900000Y-75800000D03*
%TD*%
D13*
%TO.N,+5V*%
X94400000Y-96200000D02*
X97300000Y-96200000D01*
X90800000Y-92600000D02*
X94400000Y-96200000D01*
D14*
%TO.N,SCL*%
X123000000Y-74200000D02*
X123000000Y-64000000D01*
X96607000Y-77493000D02*
X119707000Y-77493000D01*
X119707000Y-77493000D02*
X123000000Y-74200000D01*
X96100000Y-78000000D02*
X96607000Y-77493000D01*
%TO.N,SDA*%
X99800000Y-55800000D02*
X102700000Y-55800000D01*
X102700000Y-55800000D02*
X112100000Y-65200000D01*
X99600000Y-55800000D02*
X99800000Y-55800000D01*
X98200000Y-57200000D02*
X99600000Y-55800000D01*
X98200000Y-72800000D02*
X98200000Y-57200000D01*
X95600000Y-75400000D02*
X98200000Y-72800000D01*
D13*
%TO.N,GND*%
X116400000Y-93800000D02*
X124800000Y-93800000D01*
X124800000Y-93800000D02*
X124959067Y-93640933D01*
D15*
%TO.N,TX*%
X116400000Y-67000000D02*
X116400000Y-74800000D01*
X116400000Y-74800000D02*
X116300000Y-74900000D01*
D13*
%TO.N,GND*%
X113000000Y-54500000D02*
X113000000Y-75700000D01*
X120700000Y-84700000D02*
X124300000Y-88300000D01*
X113000000Y-75700000D02*
X112900000Y-75800000D01*
X124300000Y-88300000D02*
X124300000Y-91600000D01*
%TD*%
M02*
