M48
; DRILL file {KiCad 8.0.8} date 2025-11-05T19:44:22+0000
; FORMAT={-:-/ absolute / inch / decimal}
; #@! TF.CreationDate,2025-11-05T19:44:22+00:00
; #@! TF.GenerationSoftware,Kicad,Pcbnew,8.0.8
; #@! TF.FileFunction,Plated,1,2,PTH
FMAT,2
INCH
; #@! TA.AperFunction,Plated,PTH,ViaDrill
T1C0.0118
; #@! TA.AperFunction,Plated,PTH,ComponentDrill
T2C0.0394
%
G90
G05
T1
X3.5748Y-3.6457
X3.7638Y-2.9685
X3.7835Y-3.0709
X3.8307Y-3.7874
X4.4134Y-2.5669
X4.4449Y-2.9843
X4.4488Y-2.1457
X4.5787Y-2.9488
X4.5827Y-2.6378
X4.5827Y-3.6929
X4.752Y-3.3346
X4.8425Y-2.5197
X4.8937Y-3.6063
X4.9196Y-3.6867
T2
X3.6772Y-2.7724
X3.6772Y-2.8724
X3.6772Y-2.9724
X3.6772Y-3.0724
X3.6772Y-3.1724
X3.6772Y-3.2724
X3.9622Y-2.3933
X3.9622Y-2.4933
X3.9622Y-2.5933
X3.9622Y-2.6933
X3.9622Y-2.7933
X3.9622Y-2.8933
X3.9622Y-2.9933
X3.9622Y-3.0933
X3.9622Y-3.1933
X3.9622Y-3.2933
X3.9622Y-3.3933
X3.9622Y-3.4933
X3.9622Y-3.5933
X3.9622Y-3.6933
X3.9622Y-3.7933
X4.9858Y-2.3933
X4.9858Y-2.4933
X4.9858Y-2.5933
X4.9858Y-2.6933
X4.9858Y-2.7933
X4.9858Y-2.8933
X4.9858Y-2.9933
X4.9858Y-3.0933
X4.9858Y-3.1933
X4.9858Y-3.2933
X4.9858Y-3.3933
X4.9858Y-3.4933
X4.9858Y-3.5933
X4.9858Y-3.6933
X4.9858Y-3.7933
M30
