%TF.GenerationSoftware,KiCad,Pcbnew,8.0.8*%
%TF.CreationDate,2025-11-05T19:44:22+00:00*%
%TF.ProjectId,Attendance System_v2,41747465-6e64-4616-9e63-652053797374,rev?*%
%TF.SameCoordinates,Original*%
%TF.FileFunction,Soldermask,Bot*%
%TF.FilePolarity,Negative*%
%FSLAX46Y46*%
G04 Gerber Fmt 4.6, Leading zero omitted, Abs format (unit mm)*
G04 Created by KiCad (PCBNEW 8.0.8) date 2025-11-05 19:44:22*
%MOMM*%
%LPD*%
G01*
G04 APERTURE LIST*
G04 APERTURE END LIST*
G36*
X100902664Y-95541602D02*
G01*
X101065000Y-95613878D01*
X101208761Y-95718327D01*
X101327664Y-95850383D01*
X101416514Y-96004274D01*
X101471425Y-96173275D01*
X101490000Y-96350000D01*
X101471425Y-96526725D01*
X101416514Y-96695726D01*
X101327664Y-96849617D01*
X101208761Y-96981673D01*
X101065000Y-97086122D01*
X100902664Y-97158398D01*
X100728849Y-97195344D01*
X100551151Y-97195344D01*
X100377336Y-97158398D01*
X100215000Y-97086122D01*
X100071239Y-96981673D01*
X99952336Y-96849617D01*
X99863486Y-96695726D01*
X99808575Y-96526725D01*
X99790000Y-96350000D01*
X99808575Y-96173275D01*
X99863486Y-96004274D01*
X99952336Y-95850383D01*
X100071239Y-95718327D01*
X100215000Y-95613878D01*
X100377336Y-95541602D01*
X100551151Y-95504656D01*
X100728849Y-95504656D01*
X100902664Y-95541602D01*
G37*
G36*
X126902664Y-95541602D02*
G01*
X127065000Y-95613878D01*
X127208761Y-95718327D01*
X127327664Y-95850383D01*
X127416514Y-96004274D01*
X127471425Y-96173275D01*
X127490000Y-96350000D01*
X127471425Y-96526725D01*
X127416514Y-96695726D01*
X127327664Y-96849617D01*
X127208761Y-96981673D01*
X127065000Y-97086122D01*
X126902664Y-97158398D01*
X126728849Y-97195344D01*
X126551151Y-97195344D01*
X126377336Y-97158398D01*
X126215000Y-97086122D01*
X126071239Y-96981673D01*
X125952336Y-96849617D01*
X125863486Y-96695726D01*
X125808575Y-96526725D01*
X125790000Y-96350000D01*
X125808575Y-96173275D01*
X125863486Y-96004274D01*
X125952336Y-95850383D01*
X126071239Y-95718327D01*
X126215000Y-95613878D01*
X126377336Y-95541602D01*
X126551151Y-95504656D01*
X126728849Y-95504656D01*
X126902664Y-95541602D01*
G37*
G36*
X100902664Y-93001602D02*
G01*
X101065000Y-93073878D01*
X101208761Y-93178327D01*
X101327664Y-93310383D01*
X101416514Y-93464274D01*
X101471425Y-93633275D01*
X101490000Y-93810000D01*
X101471425Y-93986725D01*
X101416514Y-94155726D01*
X101327664Y-94309617D01*
X101208761Y-94441673D01*
X101065000Y-94546122D01*
X100902664Y-94618398D01*
X100728849Y-94655344D01*
X100551151Y-94655344D01*
X100377336Y-94618398D01*
X100215000Y-94546122D01*
X100071239Y-94441673D01*
X99952336Y-94309617D01*
X99863486Y-94155726D01*
X99808575Y-93986725D01*
X99790000Y-93810000D01*
X99808575Y-93633275D01*
X99863486Y-93464274D01*
X99952336Y-93310383D01*
X100071239Y-93178327D01*
X100215000Y-93073878D01*
X100377336Y-93001602D01*
X100551151Y-92964656D01*
X100728849Y-92964656D01*
X100902664Y-93001602D01*
G37*
G36*
X126902664Y-93001602D02*
G01*
X127065000Y-93073878D01*
X127208761Y-93178327D01*
X127327664Y-93310383D01*
X127416514Y-93464274D01*
X127471425Y-93633275D01*
X127490000Y-93810000D01*
X127471425Y-93986725D01*
X127416514Y-94155726D01*
X127327664Y-94309617D01*
X127208761Y-94441673D01*
X127065000Y-94546122D01*
X126902664Y-94618398D01*
X126728849Y-94655344D01*
X126551151Y-94655344D01*
X126377336Y-94618398D01*
X126215000Y-94546122D01*
X126071239Y-94441673D01*
X125952336Y-94309617D01*
X125863486Y-94155726D01*
X125808575Y-93986725D01*
X125790000Y-93810000D01*
X125808575Y-93633275D01*
X125863486Y-93464274D01*
X125952336Y-93310383D01*
X126071239Y-93178327D01*
X126215000Y-93073878D01*
X126377336Y-93001602D01*
X126551151Y-92964656D01*
X126728849Y-92964656D01*
X126902664Y-93001602D01*
G37*
G36*
X100902664Y-90461602D02*
G01*
X101065000Y-90533878D01*
X101208761Y-90638327D01*
X101327664Y-90770383D01*
X101416514Y-90924274D01*
X101471425Y-91093275D01*
X101490000Y-91270000D01*
X101471425Y-91446725D01*
X101416514Y-91615726D01*
X101327664Y-91769617D01*
X101208761Y-91901673D01*
X101065000Y-92006122D01*
X100902664Y-92078398D01*
X100728849Y-92115344D01*
X100551151Y-92115344D01*
X100377336Y-92078398D01*
X100215000Y-92006122D01*
X100071239Y-91901673D01*
X99952336Y-91769617D01*
X99863486Y-91615726D01*
X99808575Y-91446725D01*
X99790000Y-91270000D01*
X99808575Y-91093275D01*
X99863486Y-90924274D01*
X99952336Y-90770383D01*
X100071239Y-90638327D01*
X100215000Y-90533878D01*
X100377336Y-90461602D01*
X100551151Y-90424656D01*
X100728849Y-90424656D01*
X100902664Y-90461602D01*
G37*
G36*
X126902664Y-90461602D02*
G01*
X127065000Y-90533878D01*
X127208761Y-90638327D01*
X127327664Y-90770383D01*
X127416514Y-90924274D01*
X127471425Y-91093275D01*
X127490000Y-91270000D01*
X127471425Y-91446725D01*
X127416514Y-91615726D01*
X127327664Y-91769617D01*
X127208761Y-91901673D01*
X127065000Y-92006122D01*
X126902664Y-92078398D01*
X126728849Y-92115344D01*
X126551151Y-92115344D01*
X126377336Y-92078398D01*
X126215000Y-92006122D01*
X126071239Y-91901673D01*
X125952336Y-91769617D01*
X125863486Y-91615726D01*
X125808575Y-91446725D01*
X125790000Y-91270000D01*
X125808575Y-91093275D01*
X125863486Y-90924274D01*
X125952336Y-90770383D01*
X126071239Y-90638327D01*
X126215000Y-90533878D01*
X126377336Y-90461602D01*
X126551151Y-90424656D01*
X126728849Y-90424656D01*
X126902664Y-90461602D01*
G37*
G36*
X100902664Y-87921602D02*
G01*
X101065000Y-87993878D01*
X101208761Y-88098327D01*
X101327664Y-88230383D01*
X101416514Y-88384274D01*
X101471425Y-88553275D01*
X101490000Y-88730000D01*
X101471425Y-88906725D01*
X101416514Y-89075726D01*
X101327664Y-89229617D01*
X101208761Y-89361673D01*
X101065000Y-89466122D01*
X100902664Y-89538398D01*
X100728849Y-89575344D01*
X100551151Y-89575344D01*
X100377336Y-89538398D01*
X100215000Y-89466122D01*
X100071239Y-89361673D01*
X99952336Y-89229617D01*
X99863486Y-89075726D01*
X99808575Y-88906725D01*
X99790000Y-88730000D01*
X99808575Y-88553275D01*
X99863486Y-88384274D01*
X99952336Y-88230383D01*
X100071239Y-88098327D01*
X100215000Y-87993878D01*
X100377336Y-87921602D01*
X100551151Y-87884656D01*
X100728849Y-87884656D01*
X100902664Y-87921602D01*
G37*
G36*
X126902664Y-87921602D02*
G01*
X127065000Y-87993878D01*
X127208761Y-88098327D01*
X127327664Y-88230383D01*
X127416514Y-88384274D01*
X127471425Y-88553275D01*
X127490000Y-88730000D01*
X127471425Y-88906725D01*
X127416514Y-89075726D01*
X127327664Y-89229617D01*
X127208761Y-89361673D01*
X127065000Y-89466122D01*
X126902664Y-89538398D01*
X126728849Y-89575344D01*
X126551151Y-89575344D01*
X126377336Y-89538398D01*
X126215000Y-89466122D01*
X126071239Y-89361673D01*
X125952336Y-89229617D01*
X125863486Y-89075726D01*
X125808575Y-88906725D01*
X125790000Y-88730000D01*
X125808575Y-88553275D01*
X125863486Y-88384274D01*
X125952336Y-88230383D01*
X126071239Y-88098327D01*
X126215000Y-87993878D01*
X126377336Y-87921602D01*
X126551151Y-87884656D01*
X126728849Y-87884656D01*
X126902664Y-87921602D01*
G37*
G36*
X100902664Y-85381602D02*
G01*
X101065000Y-85453878D01*
X101208761Y-85558327D01*
X101327664Y-85690383D01*
X101416514Y-85844274D01*
X101471425Y-86013275D01*
X101490000Y-86190000D01*
X101471425Y-86366725D01*
X101416514Y-86535726D01*
X101327664Y-86689617D01*
X101208761Y-86821673D01*
X101065000Y-86926122D01*
X100902664Y-86998398D01*
X100728849Y-87035344D01*
X100551151Y-87035344D01*
X100377336Y-86998398D01*
X100215000Y-86926122D01*
X100071239Y-86821673D01*
X99952336Y-86689617D01*
X99863486Y-86535726D01*
X99808575Y-86366725D01*
X99790000Y-86190000D01*
X99808575Y-86013275D01*
X99863486Y-85844274D01*
X99952336Y-85690383D01*
X100071239Y-85558327D01*
X100215000Y-85453878D01*
X100377336Y-85381602D01*
X100551151Y-85344656D01*
X100728849Y-85344656D01*
X100902664Y-85381602D01*
G37*
G36*
X126902664Y-85381602D02*
G01*
X127065000Y-85453878D01*
X127208761Y-85558327D01*
X127327664Y-85690383D01*
X127416514Y-85844274D01*
X127471425Y-86013275D01*
X127490000Y-86190000D01*
X127471425Y-86366725D01*
X127416514Y-86535726D01*
X127327664Y-86689617D01*
X127208761Y-86821673D01*
X127065000Y-86926122D01*
X126902664Y-86998398D01*
X126728849Y-87035344D01*
X126551151Y-87035344D01*
X126377336Y-86998398D01*
X126215000Y-86926122D01*
X126071239Y-86821673D01*
X125952336Y-86689617D01*
X125863486Y-86535726D01*
X125808575Y-86366725D01*
X125790000Y-86190000D01*
X125808575Y-86013275D01*
X125863486Y-85844274D01*
X125952336Y-85690383D01*
X126071239Y-85558327D01*
X126215000Y-85453878D01*
X126377336Y-85381602D01*
X126551151Y-85344656D01*
X126728849Y-85344656D01*
X126902664Y-85381602D01*
G37*
G36*
X100902664Y-82841602D02*
G01*
X101065000Y-82913878D01*
X101208761Y-83018327D01*
X101327664Y-83150383D01*
X101416514Y-83304274D01*
X101471425Y-83473275D01*
X101490000Y-83650000D01*
X101471425Y-83826725D01*
X101416514Y-83995726D01*
X101327664Y-84149617D01*
X101208761Y-84281673D01*
X101065000Y-84386122D01*
X100902664Y-84458398D01*
X100728849Y-84495344D01*
X100551151Y-84495344D01*
X100377336Y-84458398D01*
X100215000Y-84386122D01*
X100071239Y-84281673D01*
X99952336Y-84149617D01*
X99863486Y-83995726D01*
X99808575Y-83826725D01*
X99790000Y-83650000D01*
X99808575Y-83473275D01*
X99863486Y-83304274D01*
X99952336Y-83150383D01*
X100071239Y-83018327D01*
X100215000Y-82913878D01*
X100377336Y-82841602D01*
X100551151Y-82804656D01*
X100728849Y-82804656D01*
X100902664Y-82841602D01*
G37*
G36*
X126902664Y-82841602D02*
G01*
X127065000Y-82913878D01*
X127208761Y-83018327D01*
X127327664Y-83150383D01*
X127416514Y-83304274D01*
X127471425Y-83473275D01*
X127490000Y-83650000D01*
X127471425Y-83826725D01*
X127416514Y-83995726D01*
X127327664Y-84149617D01*
X127208761Y-84281673D01*
X127065000Y-84386122D01*
X126902664Y-84458398D01*
X126728849Y-84495344D01*
X126551151Y-84495344D01*
X126377336Y-84458398D01*
X126215000Y-84386122D01*
X126071239Y-84281673D01*
X125952336Y-84149617D01*
X125863486Y-83995726D01*
X125808575Y-83826725D01*
X125790000Y-83650000D01*
X125808575Y-83473275D01*
X125863486Y-83304274D01*
X125952336Y-83150383D01*
X126071239Y-83018327D01*
X126215000Y-82913878D01*
X126377336Y-82841602D01*
X126551151Y-82804656D01*
X126728849Y-82804656D01*
X126902664Y-82841602D01*
G37*
G36*
X93662664Y-82311602D02*
G01*
X93825000Y-82383878D01*
X93968761Y-82488327D01*
X94087664Y-82620383D01*
X94176514Y-82774274D01*
X94231425Y-82943275D01*
X94250000Y-83120000D01*
X94231425Y-83296725D01*
X94176514Y-83465726D01*
X94087664Y-83619617D01*
X93968761Y-83751673D01*
X93825000Y-83856122D01*
X93662664Y-83928398D01*
X93488849Y-83965344D01*
X93311151Y-83965344D01*
X93137336Y-83928398D01*
X92975000Y-83856122D01*
X92831239Y-83751673D01*
X92712336Y-83619617D01*
X92623486Y-83465726D01*
X92568575Y-83296725D01*
X92550000Y-83120000D01*
X92568575Y-82943275D01*
X92623486Y-82774274D01*
X92712336Y-82620383D01*
X92831239Y-82488327D01*
X92975000Y-82383878D01*
X93137336Y-82311602D01*
X93311151Y-82274656D01*
X93488849Y-82274656D01*
X93662664Y-82311602D01*
G37*
G36*
X100902664Y-80301602D02*
G01*
X101065000Y-80373878D01*
X101208761Y-80478327D01*
X101327664Y-80610383D01*
X101416514Y-80764274D01*
X101471425Y-80933275D01*
X101490000Y-81110000D01*
X101471425Y-81286725D01*
X101416514Y-81455726D01*
X101327664Y-81609617D01*
X101208761Y-81741673D01*
X101065000Y-81846122D01*
X100902664Y-81918398D01*
X100728849Y-81955344D01*
X100551151Y-81955344D01*
X100377336Y-81918398D01*
X100215000Y-81846122D01*
X100071239Y-81741673D01*
X99952336Y-81609617D01*
X99863486Y-81455726D01*
X99808575Y-81286725D01*
X99790000Y-81110000D01*
X99808575Y-80933275D01*
X99863486Y-80764274D01*
X99952336Y-80610383D01*
X100071239Y-80478327D01*
X100215000Y-80373878D01*
X100377336Y-80301602D01*
X100551151Y-80264656D01*
X100728849Y-80264656D01*
X100902664Y-80301602D01*
G37*
G36*
X126902664Y-80301602D02*
G01*
X127065000Y-80373878D01*
X127208761Y-80478327D01*
X127327664Y-80610383D01*
X127416514Y-80764274D01*
X127471425Y-80933275D01*
X127490000Y-81110000D01*
X127471425Y-81286725D01*
X127416514Y-81455726D01*
X127327664Y-81609617D01*
X127208761Y-81741673D01*
X127065000Y-81846122D01*
X126902664Y-81918398D01*
X126728849Y-81955344D01*
X126551151Y-81955344D01*
X126377336Y-81918398D01*
X126215000Y-81846122D01*
X126071239Y-81741673D01*
X125952336Y-81609617D01*
X125863486Y-81455726D01*
X125808575Y-81286725D01*
X125790000Y-81110000D01*
X125808575Y-80933275D01*
X125863486Y-80764274D01*
X125952336Y-80610383D01*
X126071239Y-80478327D01*
X126215000Y-80373878D01*
X126377336Y-80301602D01*
X126551151Y-80264656D01*
X126728849Y-80264656D01*
X126902664Y-80301602D01*
G37*
G36*
X93662664Y-79771602D02*
G01*
X93825000Y-79843878D01*
X93968761Y-79948327D01*
X94087664Y-80080383D01*
X94176514Y-80234274D01*
X94231425Y-80403275D01*
X94250000Y-80580000D01*
X94231425Y-80756725D01*
X94176514Y-80925726D01*
X94087664Y-81079617D01*
X93968761Y-81211673D01*
X93825000Y-81316122D01*
X93662664Y-81388398D01*
X93488849Y-81425344D01*
X93311151Y-81425344D01*
X93137336Y-81388398D01*
X92975000Y-81316122D01*
X92831239Y-81211673D01*
X92712336Y-81079617D01*
X92623486Y-80925726D01*
X92568575Y-80756725D01*
X92550000Y-80580000D01*
X92568575Y-80403275D01*
X92623486Y-80234274D01*
X92712336Y-80080383D01*
X92831239Y-79948327D01*
X92975000Y-79843878D01*
X93137336Y-79771602D01*
X93311151Y-79734656D01*
X93488849Y-79734656D01*
X93662664Y-79771602D01*
G37*
G36*
X100902664Y-77761602D02*
G01*
X101065000Y-77833878D01*
X101208761Y-77938327D01*
X101327664Y-78070383D01*
X101416514Y-78224274D01*
X101471425Y-78393275D01*
X101490000Y-78570000D01*
X101471425Y-78746725D01*
X101416514Y-78915726D01*
X101327664Y-79069617D01*
X101208761Y-79201673D01*
X101065000Y-79306122D01*
X100902664Y-79378398D01*
X100728849Y-79415344D01*
X100551151Y-79415344D01*
X100377336Y-79378398D01*
X100215000Y-79306122D01*
X100071239Y-79201673D01*
X99952336Y-79069617D01*
X99863486Y-78915726D01*
X99808575Y-78746725D01*
X99790000Y-78570000D01*
X99808575Y-78393275D01*
X99863486Y-78224274D01*
X99952336Y-78070383D01*
X100071239Y-77938327D01*
X100215000Y-77833878D01*
X100377336Y-77761602D01*
X100551151Y-77724656D01*
X100728849Y-77724656D01*
X100902664Y-77761602D01*
G37*
G36*
X126902664Y-77761602D02*
G01*
X127065000Y-77833878D01*
X127208761Y-77938327D01*
X127327664Y-78070383D01*
X127416514Y-78224274D01*
X127471425Y-78393275D01*
X127490000Y-78570000D01*
X127471425Y-78746725D01*
X127416514Y-78915726D01*
X127327664Y-79069617D01*
X127208761Y-79201673D01*
X127065000Y-79306122D01*
X126902664Y-79378398D01*
X126728849Y-79415344D01*
X126551151Y-79415344D01*
X126377336Y-79378398D01*
X126215000Y-79306122D01*
X126071239Y-79201673D01*
X125952336Y-79069617D01*
X125863486Y-78915726D01*
X125808575Y-78746725D01*
X125790000Y-78570000D01*
X125808575Y-78393275D01*
X125863486Y-78224274D01*
X125952336Y-78070383D01*
X126071239Y-77938327D01*
X126215000Y-77833878D01*
X126377336Y-77761602D01*
X126551151Y-77724656D01*
X126728849Y-77724656D01*
X126902664Y-77761602D01*
G37*
G36*
X93662664Y-77231602D02*
G01*
X93825000Y-77303878D01*
X93968761Y-77408327D01*
X94087664Y-77540383D01*
X94176514Y-77694274D01*
X94231425Y-77863275D01*
X94250000Y-78040000D01*
X94231425Y-78216725D01*
X94176514Y-78385726D01*
X94087664Y-78539617D01*
X93968761Y-78671673D01*
X93825000Y-78776122D01*
X93662664Y-78848398D01*
X93488849Y-78885344D01*
X93311151Y-78885344D01*
X93137336Y-78848398D01*
X92975000Y-78776122D01*
X92831239Y-78671673D01*
X92712336Y-78539617D01*
X92623486Y-78385726D01*
X92568575Y-78216725D01*
X92550000Y-78040000D01*
X92568575Y-77863275D01*
X92623486Y-77694274D01*
X92712336Y-77540383D01*
X92831239Y-77408327D01*
X92975000Y-77303878D01*
X93137336Y-77231602D01*
X93311151Y-77194656D01*
X93488849Y-77194656D01*
X93662664Y-77231602D01*
G37*
G36*
X100902664Y-75221602D02*
G01*
X101065000Y-75293878D01*
X101208761Y-75398327D01*
X101327664Y-75530383D01*
X101416514Y-75684274D01*
X101471425Y-75853275D01*
X101490000Y-76030000D01*
X101471425Y-76206725D01*
X101416514Y-76375726D01*
X101327664Y-76529617D01*
X101208761Y-76661673D01*
X101065000Y-76766122D01*
X100902664Y-76838398D01*
X100728849Y-76875344D01*
X100551151Y-76875344D01*
X100377336Y-76838398D01*
X100215000Y-76766122D01*
X100071239Y-76661673D01*
X99952336Y-76529617D01*
X99863486Y-76375726D01*
X99808575Y-76206725D01*
X99790000Y-76030000D01*
X99808575Y-75853275D01*
X99863486Y-75684274D01*
X99952336Y-75530383D01*
X100071239Y-75398327D01*
X100215000Y-75293878D01*
X100377336Y-75221602D01*
X100551151Y-75184656D01*
X100728849Y-75184656D01*
X100902664Y-75221602D01*
G37*
G36*
X126902664Y-75221602D02*
G01*
X127065000Y-75293878D01*
X127208761Y-75398327D01*
X127327664Y-75530383D01*
X127416514Y-75684274D01*
X127471425Y-75853275D01*
X127490000Y-76030000D01*
X127471425Y-76206725D01*
X127416514Y-76375726D01*
X127327664Y-76529617D01*
X127208761Y-76661673D01*
X127065000Y-76766122D01*
X126902664Y-76838398D01*
X126728849Y-76875344D01*
X126551151Y-76875344D01*
X126377336Y-76838398D01*
X126215000Y-76766122D01*
X126071239Y-76661673D01*
X125952336Y-76529617D01*
X125863486Y-76375726D01*
X125808575Y-76206725D01*
X125790000Y-76030000D01*
X125808575Y-75853275D01*
X125863486Y-75684274D01*
X125952336Y-75530383D01*
X126071239Y-75398327D01*
X126215000Y-75293878D01*
X126377336Y-75221602D01*
X126551151Y-75184656D01*
X126728849Y-75184656D01*
X126902664Y-75221602D01*
G37*
G36*
X93662664Y-74691602D02*
G01*
X93825000Y-74763878D01*
X93968761Y-74868327D01*
X94087664Y-75000383D01*
X94176514Y-75154274D01*
X94231425Y-75323275D01*
X94250000Y-75500000D01*
X94231425Y-75676725D01*
X94176514Y-75845726D01*
X94087664Y-75999617D01*
X93968761Y-76131673D01*
X93825000Y-76236122D01*
X93662664Y-76308398D01*
X93488849Y-76345344D01*
X93311151Y-76345344D01*
X93137336Y-76308398D01*
X92975000Y-76236122D01*
X92831239Y-76131673D01*
X92712336Y-75999617D01*
X92623486Y-75845726D01*
X92568575Y-75676725D01*
X92550000Y-75500000D01*
X92568575Y-75323275D01*
X92623486Y-75154274D01*
X92712336Y-75000383D01*
X92831239Y-74868327D01*
X92975000Y-74763878D01*
X93137336Y-74691602D01*
X93311151Y-74654656D01*
X93488849Y-74654656D01*
X93662664Y-74691602D01*
G37*
G36*
X100902664Y-72681602D02*
G01*
X101065000Y-72753878D01*
X101208761Y-72858327D01*
X101327664Y-72990383D01*
X101416514Y-73144274D01*
X101471425Y-73313275D01*
X101490000Y-73490000D01*
X101471425Y-73666725D01*
X101416514Y-73835726D01*
X101327664Y-73989617D01*
X101208761Y-74121673D01*
X101065000Y-74226122D01*
X100902664Y-74298398D01*
X100728849Y-74335344D01*
X100551151Y-74335344D01*
X100377336Y-74298398D01*
X100215000Y-74226122D01*
X100071239Y-74121673D01*
X99952336Y-73989617D01*
X99863486Y-73835726D01*
X99808575Y-73666725D01*
X99790000Y-73490000D01*
X99808575Y-73313275D01*
X99863486Y-73144274D01*
X99952336Y-72990383D01*
X100071239Y-72858327D01*
X100215000Y-72753878D01*
X100377336Y-72681602D01*
X100551151Y-72644656D01*
X100728849Y-72644656D01*
X100902664Y-72681602D01*
G37*
G36*
X126902664Y-72681602D02*
G01*
X127065000Y-72753878D01*
X127208761Y-72858327D01*
X127327664Y-72990383D01*
X127416514Y-73144274D01*
X127471425Y-73313275D01*
X127490000Y-73490000D01*
X127471425Y-73666725D01*
X127416514Y-73835726D01*
X127327664Y-73989617D01*
X127208761Y-74121673D01*
X127065000Y-74226122D01*
X126902664Y-74298398D01*
X126728849Y-74335344D01*
X126551151Y-74335344D01*
X126377336Y-74298398D01*
X126215000Y-74226122D01*
X126071239Y-74121673D01*
X125952336Y-73989617D01*
X125863486Y-73835726D01*
X125808575Y-73666725D01*
X125790000Y-73490000D01*
X125808575Y-73313275D01*
X125863486Y-73144274D01*
X125952336Y-72990383D01*
X126071239Y-72858327D01*
X126215000Y-72753878D01*
X126377336Y-72681602D01*
X126551151Y-72644656D01*
X126728849Y-72644656D01*
X126902664Y-72681602D01*
G37*
G36*
X93662664Y-72151602D02*
G01*
X93825000Y-72223878D01*
X93968761Y-72328327D01*
X94087664Y-72460383D01*
X94176514Y-72614274D01*
X94231425Y-72783275D01*
X94250000Y-72960000D01*
X94231425Y-73136725D01*
X94176514Y-73305726D01*
X94087664Y-73459617D01*
X93968761Y-73591673D01*
X93825000Y-73696122D01*
X93662664Y-73768398D01*
X93488849Y-73805344D01*
X93311151Y-73805344D01*
X93137336Y-73768398D01*
X92975000Y-73696122D01*
X92831239Y-73591673D01*
X92712336Y-73459617D01*
X92623486Y-73305726D01*
X92568575Y-73136725D01*
X92550000Y-72960000D01*
X92568575Y-72783275D01*
X92623486Y-72614274D01*
X92712336Y-72460383D01*
X92831239Y-72328327D01*
X92975000Y-72223878D01*
X93137336Y-72151602D01*
X93311151Y-72114656D01*
X93488849Y-72114656D01*
X93662664Y-72151602D01*
G37*
G36*
X100902664Y-70141602D02*
G01*
X101065000Y-70213878D01*
X101208761Y-70318327D01*
X101327664Y-70450383D01*
X101416514Y-70604274D01*
X101471425Y-70773275D01*
X101490000Y-70950000D01*
X101471425Y-71126725D01*
X101416514Y-71295726D01*
X101327664Y-71449617D01*
X101208761Y-71581673D01*
X101065000Y-71686122D01*
X100902664Y-71758398D01*
X100728849Y-71795344D01*
X100551151Y-71795344D01*
X100377336Y-71758398D01*
X100215000Y-71686122D01*
X100071239Y-71581673D01*
X99952336Y-71449617D01*
X99863486Y-71295726D01*
X99808575Y-71126725D01*
X99790000Y-70950000D01*
X99808575Y-70773275D01*
X99863486Y-70604274D01*
X99952336Y-70450383D01*
X100071239Y-70318327D01*
X100215000Y-70213878D01*
X100377336Y-70141602D01*
X100551151Y-70104656D01*
X100728849Y-70104656D01*
X100902664Y-70141602D01*
G37*
G36*
X126902664Y-70141602D02*
G01*
X127065000Y-70213878D01*
X127208761Y-70318327D01*
X127327664Y-70450383D01*
X127416514Y-70604274D01*
X127471425Y-70773275D01*
X127490000Y-70950000D01*
X127471425Y-71126725D01*
X127416514Y-71295726D01*
X127327664Y-71449617D01*
X127208761Y-71581673D01*
X127065000Y-71686122D01*
X126902664Y-71758398D01*
X126728849Y-71795344D01*
X126551151Y-71795344D01*
X126377336Y-71758398D01*
X126215000Y-71686122D01*
X126071239Y-71581673D01*
X125952336Y-71449617D01*
X125863486Y-71295726D01*
X125808575Y-71126725D01*
X125790000Y-70950000D01*
X125808575Y-70773275D01*
X125863486Y-70604274D01*
X125952336Y-70450383D01*
X126071239Y-70318327D01*
X126215000Y-70213878D01*
X126377336Y-70141602D01*
X126551151Y-70104656D01*
X126728849Y-70104656D01*
X126902664Y-70141602D01*
G37*
G36*
X94250000Y-71270000D02*
G01*
X92550000Y-71270000D01*
X92550000Y-69570000D01*
X94250000Y-69570000D01*
X94250000Y-71270000D01*
G37*
G36*
X100902664Y-67601602D02*
G01*
X101065000Y-67673878D01*
X101208761Y-67778327D01*
X101327664Y-67910383D01*
X101416514Y-68064274D01*
X101471425Y-68233275D01*
X101490000Y-68410000D01*
X101471425Y-68586725D01*
X101416514Y-68755726D01*
X101327664Y-68909617D01*
X101208761Y-69041673D01*
X101065000Y-69146122D01*
X100902664Y-69218398D01*
X100728849Y-69255344D01*
X100551151Y-69255344D01*
X100377336Y-69218398D01*
X100215000Y-69146122D01*
X100071239Y-69041673D01*
X99952336Y-68909617D01*
X99863486Y-68755726D01*
X99808575Y-68586725D01*
X99790000Y-68410000D01*
X99808575Y-68233275D01*
X99863486Y-68064274D01*
X99952336Y-67910383D01*
X100071239Y-67778327D01*
X100215000Y-67673878D01*
X100377336Y-67601602D01*
X100551151Y-67564656D01*
X100728849Y-67564656D01*
X100902664Y-67601602D01*
G37*
G36*
X126902664Y-67601602D02*
G01*
X127065000Y-67673878D01*
X127208761Y-67778327D01*
X127327664Y-67910383D01*
X127416514Y-68064274D01*
X127471425Y-68233275D01*
X127490000Y-68410000D01*
X127471425Y-68586725D01*
X127416514Y-68755726D01*
X127327664Y-68909617D01*
X127208761Y-69041673D01*
X127065000Y-69146122D01*
X126902664Y-69218398D01*
X126728849Y-69255344D01*
X126551151Y-69255344D01*
X126377336Y-69218398D01*
X126215000Y-69146122D01*
X126071239Y-69041673D01*
X125952336Y-68909617D01*
X125863486Y-68755726D01*
X125808575Y-68586725D01*
X125790000Y-68410000D01*
X125808575Y-68233275D01*
X125863486Y-68064274D01*
X125952336Y-67910383D01*
X126071239Y-67778327D01*
X126215000Y-67673878D01*
X126377336Y-67601602D01*
X126551151Y-67564656D01*
X126728849Y-67564656D01*
X126902664Y-67601602D01*
G37*
G36*
X100902664Y-65061602D02*
G01*
X101065000Y-65133878D01*
X101208761Y-65238327D01*
X101327664Y-65370383D01*
X101416514Y-65524274D01*
X101471425Y-65693275D01*
X101490000Y-65870000D01*
X101471425Y-66046725D01*
X101416514Y-66215726D01*
X101327664Y-66369617D01*
X101208761Y-66501673D01*
X101065000Y-66606122D01*
X100902664Y-66678398D01*
X100728849Y-66715344D01*
X100551151Y-66715344D01*
X100377336Y-66678398D01*
X100215000Y-66606122D01*
X100071239Y-66501673D01*
X99952336Y-66369617D01*
X99863486Y-66215726D01*
X99808575Y-66046725D01*
X99790000Y-65870000D01*
X99808575Y-65693275D01*
X99863486Y-65524274D01*
X99952336Y-65370383D01*
X100071239Y-65238327D01*
X100215000Y-65133878D01*
X100377336Y-65061602D01*
X100551151Y-65024656D01*
X100728849Y-65024656D01*
X100902664Y-65061602D01*
G37*
G36*
X126902664Y-65061602D02*
G01*
X127065000Y-65133878D01*
X127208761Y-65238327D01*
X127327664Y-65370383D01*
X127416514Y-65524274D01*
X127471425Y-65693275D01*
X127490000Y-65870000D01*
X127471425Y-66046725D01*
X127416514Y-66215726D01*
X127327664Y-66369617D01*
X127208761Y-66501673D01*
X127065000Y-66606122D01*
X126902664Y-66678398D01*
X126728849Y-66715344D01*
X126551151Y-66715344D01*
X126377336Y-66678398D01*
X126215000Y-66606122D01*
X126071239Y-66501673D01*
X125952336Y-66369617D01*
X125863486Y-66215726D01*
X125808575Y-66046725D01*
X125790000Y-65870000D01*
X125808575Y-65693275D01*
X125863486Y-65524274D01*
X125952336Y-65370383D01*
X126071239Y-65238327D01*
X126215000Y-65133878D01*
X126377336Y-65061602D01*
X126551151Y-65024656D01*
X126728849Y-65024656D01*
X126902664Y-65061602D01*
G37*
G36*
X100902664Y-62521602D02*
G01*
X101065000Y-62593878D01*
X101208761Y-62698327D01*
X101327664Y-62830383D01*
X101416514Y-62984274D01*
X101471425Y-63153275D01*
X101490000Y-63330000D01*
X101471425Y-63506725D01*
X101416514Y-63675726D01*
X101327664Y-63829617D01*
X101208761Y-63961673D01*
X101065000Y-64066122D01*
X100902664Y-64138398D01*
X100728849Y-64175344D01*
X100551151Y-64175344D01*
X100377336Y-64138398D01*
X100215000Y-64066122D01*
X100071239Y-63961673D01*
X99952336Y-63829617D01*
X99863486Y-63675726D01*
X99808575Y-63506725D01*
X99790000Y-63330000D01*
X99808575Y-63153275D01*
X99863486Y-62984274D01*
X99952336Y-62830383D01*
X100071239Y-62698327D01*
X100215000Y-62593878D01*
X100377336Y-62521602D01*
X100551151Y-62484656D01*
X100728849Y-62484656D01*
X100902664Y-62521602D01*
G37*
G36*
X126902664Y-62521602D02*
G01*
X127065000Y-62593878D01*
X127208761Y-62698327D01*
X127327664Y-62830383D01*
X127416514Y-62984274D01*
X127471425Y-63153275D01*
X127490000Y-63330000D01*
X127471425Y-63506725D01*
X127416514Y-63675726D01*
X127327664Y-63829617D01*
X127208761Y-63961673D01*
X127065000Y-64066122D01*
X126902664Y-64138398D01*
X126728849Y-64175344D01*
X126551151Y-64175344D01*
X126377336Y-64138398D01*
X126215000Y-64066122D01*
X126071239Y-63961673D01*
X125952336Y-63829617D01*
X125863486Y-63675726D01*
X125808575Y-63506725D01*
X125790000Y-63330000D01*
X125808575Y-63153275D01*
X125863486Y-62984274D01*
X125952336Y-62830383D01*
X126071239Y-62698327D01*
X126215000Y-62593878D01*
X126377336Y-62521602D01*
X126551151Y-62484656D01*
X126728849Y-62484656D01*
X126902664Y-62521602D01*
G37*
G36*
X101490000Y-61640000D02*
G01*
X99790000Y-61640000D01*
X99790000Y-59940000D01*
X101490000Y-59940000D01*
X101490000Y-61640000D01*
G37*
G36*
X127490000Y-61640000D02*
G01*
X125790000Y-61640000D01*
X125790000Y-59940000D01*
X127490000Y-59940000D01*
X127490000Y-61640000D01*
G37*
M02*
