%TF.GenerationSoftware,KiCad,Pcbnew,8.0.8*%
%TF.CreationDate,2025-11-05T19:44:22+00:00*%
%TF.ProjectId,Attendance System_v2,41747465-6e64-4616-9e63-652053797374,rev?*%
%TF.SameCoordinates,Original*%
%TF.FileFunction,Legend,Top*%
%TF.FilePolarity,Positive*%
%FSLAX46Y46*%
G04 Gerber Fmt 4.6, Leading zero omitted, Abs format (unit mm)*
G04 Created by KiCad (PCBNEW 8.0.8) date 2025-11-05 19:44:22*
%MOMM*%
%LPD*%
G01*
G04 APERTURE LIST*
G04 Aperture macros list*
%AMRoundRect*
0 Rectangle with rounded corners*
0 $1 Rounding radius*
0 $2 $3 $4 $5 $6 $7 $8 $9 X,Y pos of 4 corners*
0 Add a 4 corners polygon primitive as box body*
4,1,4,$2,$3,$4,$5,$6,$7,$8,$9,$2,$3,0*
0 Add four circle primitives for the rounded corners*
1,1,$1+$1,$2,$3*
1,1,$1+$1,$4,$5*
1,1,$1+$1,$6,$7*
1,1,$1+$1,$8,$9*
0 Add four rect primitives between the rounded corners*
20,1,$1+$1,$2,$3,$4,$5,0*
20,1,$1+$1,$4,$5,$6,$7,0*
20,1,$1+$1,$6,$7,$8,$9,0*
20,1,$1+$1,$8,$9,$2,$3,0*%
G04 Aperture macros list end*
%ADD10C,0.152400*%
%ADD11C,0.120000*%
%ADD12RoundRect,0.150000X-0.150000X-0.700000X0.150000X-0.700000X0.150000X0.700000X-0.150000X0.700000X0*%
%ADD13RoundRect,0.250000X-0.250000X-1.150000X0.250000X-1.150000X0.250000X1.150000X-0.250000X1.150000X0*%
%ADD14R,1.700000X1.700000*%
%ADD15O,1.700000X1.700000*%
%ADD16RoundRect,0.250000X-0.350000X-0.650000X0.350000X-0.650000X0.350000X0.650000X-0.350000X0.650000X0*%
%ADD17RoundRect,0.150000X-0.150000X-0.625000X0.150000X-0.625000X0.150000X0.625000X-0.150000X0.625000X0*%
G04 APERTURE END LIST*
D10*
X109858243Y-48092603D02*
X109587310Y-47705556D01*
X109393786Y-48092603D02*
X109393786Y-47279803D01*
X109393786Y-47279803D02*
X109703424Y-47279803D01*
X109703424Y-47279803D02*
X109780834Y-47318508D01*
X109780834Y-47318508D02*
X109819539Y-47357213D01*
X109819539Y-47357213D02*
X109858243Y-47434622D01*
X109858243Y-47434622D02*
X109858243Y-47550737D01*
X109858243Y-47550737D02*
X109819539Y-47628146D01*
X109819539Y-47628146D02*
X109780834Y-47666851D01*
X109780834Y-47666851D02*
X109703424Y-47705556D01*
X109703424Y-47705556D02*
X109393786Y-47705556D01*
X110593634Y-47279803D02*
X110206586Y-47279803D01*
X110206586Y-47279803D02*
X110167882Y-47666851D01*
X110167882Y-47666851D02*
X110206586Y-47628146D01*
X110206586Y-47628146D02*
X110283996Y-47589441D01*
X110283996Y-47589441D02*
X110477520Y-47589441D01*
X110477520Y-47589441D02*
X110554929Y-47628146D01*
X110554929Y-47628146D02*
X110593634Y-47666851D01*
X110593634Y-47666851D02*
X110632339Y-47744260D01*
X110632339Y-47744260D02*
X110632339Y-47937784D01*
X110632339Y-47937784D02*
X110593634Y-48015194D01*
X110593634Y-48015194D02*
X110554929Y-48053899D01*
X110554929Y-48053899D02*
X110477520Y-48092603D01*
X110477520Y-48092603D02*
X110283996Y-48092603D01*
X110283996Y-48092603D02*
X110206586Y-48053899D01*
X110206586Y-48053899D02*
X110167882Y-48015194D01*
X111135500Y-47279803D02*
X111212910Y-47279803D01*
X111212910Y-47279803D02*
X111290319Y-47318508D01*
X111290319Y-47318508D02*
X111329024Y-47357213D01*
X111329024Y-47357213D02*
X111367729Y-47434622D01*
X111367729Y-47434622D02*
X111406434Y-47589441D01*
X111406434Y-47589441D02*
X111406434Y-47782965D01*
X111406434Y-47782965D02*
X111367729Y-47937784D01*
X111367729Y-47937784D02*
X111329024Y-48015194D01*
X111329024Y-48015194D02*
X111290319Y-48053899D01*
X111290319Y-48053899D02*
X111212910Y-48092603D01*
X111212910Y-48092603D02*
X111135500Y-48092603D01*
X111135500Y-48092603D02*
X111058091Y-48053899D01*
X111058091Y-48053899D02*
X111019386Y-48015194D01*
X111019386Y-48015194D02*
X110980681Y-47937784D01*
X110980681Y-47937784D02*
X110941977Y-47782965D01*
X110941977Y-47782965D02*
X110941977Y-47589441D01*
X110941977Y-47589441D02*
X110980681Y-47434622D01*
X110980681Y-47434622D02*
X111019386Y-47357213D01*
X111019386Y-47357213D02*
X111058091Y-47318508D01*
X111058091Y-47318508D02*
X111135500Y-47279803D01*
X111677367Y-47279803D02*
X112180529Y-47279803D01*
X112180529Y-47279803D02*
X111909595Y-47589441D01*
X111909595Y-47589441D02*
X112025710Y-47589441D01*
X112025710Y-47589441D02*
X112103119Y-47628146D01*
X112103119Y-47628146D02*
X112141824Y-47666851D01*
X112141824Y-47666851D02*
X112180529Y-47744260D01*
X112180529Y-47744260D02*
X112180529Y-47937784D01*
X112180529Y-47937784D02*
X112141824Y-48015194D01*
X112141824Y-48015194D02*
X112103119Y-48053899D01*
X112103119Y-48053899D02*
X112025710Y-48092603D01*
X112025710Y-48092603D02*
X111793481Y-48092603D01*
X111793481Y-48092603D02*
X111716072Y-48053899D01*
X111716072Y-48053899D02*
X111677367Y-48015194D01*
X92414548Y-66408503D02*
X91914548Y-65694217D01*
X91557405Y-66408503D02*
X91557405Y-64908503D01*
X91557405Y-64908503D02*
X92128834Y-64908503D01*
X92128834Y-64908503D02*
X92271691Y-64979932D01*
X92271691Y-64979932D02*
X92343120Y-65051360D01*
X92343120Y-65051360D02*
X92414548Y-65194217D01*
X92414548Y-65194217D02*
X92414548Y-65408503D01*
X92414548Y-65408503D02*
X92343120Y-65551360D01*
X92343120Y-65551360D02*
X92271691Y-65622789D01*
X92271691Y-65622789D02*
X92128834Y-65694217D01*
X92128834Y-65694217D02*
X91557405Y-65694217D01*
X92843120Y-64908503D02*
X93700263Y-64908503D01*
X93271691Y-66408503D02*
X93271691Y-64908503D01*
X95057405Y-66265646D02*
X94985977Y-66337075D01*
X94985977Y-66337075D02*
X94771691Y-66408503D01*
X94771691Y-66408503D02*
X94628834Y-66408503D01*
X94628834Y-66408503D02*
X94414548Y-66337075D01*
X94414548Y-66337075D02*
X94271691Y-66194217D01*
X94271691Y-66194217D02*
X94200262Y-66051360D01*
X94200262Y-66051360D02*
X94128834Y-65765646D01*
X94128834Y-65765646D02*
X94128834Y-65551360D01*
X94128834Y-65551360D02*
X94200262Y-65265646D01*
X94200262Y-65265646D02*
X94271691Y-65122789D01*
X94271691Y-65122789D02*
X94414548Y-64979932D01*
X94414548Y-64979932D02*
X94628834Y-64908503D01*
X94628834Y-64908503D02*
X94771691Y-64908503D01*
X94771691Y-64908503D02*
X94985977Y-64979932D01*
X94985977Y-64979932D02*
X95057405Y-65051360D01*
X86285977Y-78437075D02*
X86500263Y-78508503D01*
X86500263Y-78508503D02*
X86857405Y-78508503D01*
X86857405Y-78508503D02*
X87000263Y-78437075D01*
X87000263Y-78437075D02*
X87071691Y-78365646D01*
X87071691Y-78365646D02*
X87143120Y-78222789D01*
X87143120Y-78222789D02*
X87143120Y-78079932D01*
X87143120Y-78079932D02*
X87071691Y-77937075D01*
X87071691Y-77937075D02*
X87000263Y-77865646D01*
X87000263Y-77865646D02*
X86857405Y-77794217D01*
X86857405Y-77794217D02*
X86571691Y-77722789D01*
X86571691Y-77722789D02*
X86428834Y-77651360D01*
X86428834Y-77651360D02*
X86357405Y-77579932D01*
X86357405Y-77579932D02*
X86285977Y-77437075D01*
X86285977Y-77437075D02*
X86285977Y-77294217D01*
X86285977Y-77294217D02*
X86357405Y-77151360D01*
X86357405Y-77151360D02*
X86428834Y-77079932D01*
X86428834Y-77079932D02*
X86571691Y-77008503D01*
X86571691Y-77008503D02*
X86928834Y-77008503D01*
X86928834Y-77008503D02*
X87143120Y-77079932D01*
X88643119Y-78365646D02*
X88571691Y-78437075D01*
X88571691Y-78437075D02*
X88357405Y-78508503D01*
X88357405Y-78508503D02*
X88214548Y-78508503D01*
X88214548Y-78508503D02*
X88000262Y-78437075D01*
X88000262Y-78437075D02*
X87857405Y-78294217D01*
X87857405Y-78294217D02*
X87785976Y-78151360D01*
X87785976Y-78151360D02*
X87714548Y-77865646D01*
X87714548Y-77865646D02*
X87714548Y-77651360D01*
X87714548Y-77651360D02*
X87785976Y-77365646D01*
X87785976Y-77365646D02*
X87857405Y-77222789D01*
X87857405Y-77222789D02*
X88000262Y-77079932D01*
X88000262Y-77079932D02*
X88214548Y-77008503D01*
X88214548Y-77008503D02*
X88357405Y-77008503D01*
X88357405Y-77008503D02*
X88571691Y-77079932D01*
X88571691Y-77079932D02*
X88643119Y-77151360D01*
X90000262Y-78508503D02*
X89285976Y-78508503D01*
X89285976Y-78508503D02*
X89285976Y-77008503D01*
X86185977Y-75737075D02*
X86400263Y-75808503D01*
X86400263Y-75808503D02*
X86757405Y-75808503D01*
X86757405Y-75808503D02*
X86900263Y-75737075D01*
X86900263Y-75737075D02*
X86971691Y-75665646D01*
X86971691Y-75665646D02*
X87043120Y-75522789D01*
X87043120Y-75522789D02*
X87043120Y-75379932D01*
X87043120Y-75379932D02*
X86971691Y-75237075D01*
X86971691Y-75237075D02*
X86900263Y-75165646D01*
X86900263Y-75165646D02*
X86757405Y-75094217D01*
X86757405Y-75094217D02*
X86471691Y-75022789D01*
X86471691Y-75022789D02*
X86328834Y-74951360D01*
X86328834Y-74951360D02*
X86257405Y-74879932D01*
X86257405Y-74879932D02*
X86185977Y-74737075D01*
X86185977Y-74737075D02*
X86185977Y-74594217D01*
X86185977Y-74594217D02*
X86257405Y-74451360D01*
X86257405Y-74451360D02*
X86328834Y-74379932D01*
X86328834Y-74379932D02*
X86471691Y-74308503D01*
X86471691Y-74308503D02*
X86828834Y-74308503D01*
X86828834Y-74308503D02*
X87043120Y-74379932D01*
X87685976Y-75808503D02*
X87685976Y-74308503D01*
X87685976Y-74308503D02*
X88043119Y-74308503D01*
X88043119Y-74308503D02*
X88257405Y-74379932D01*
X88257405Y-74379932D02*
X88400262Y-74522789D01*
X88400262Y-74522789D02*
X88471691Y-74665646D01*
X88471691Y-74665646D02*
X88543119Y-74951360D01*
X88543119Y-74951360D02*
X88543119Y-75165646D01*
X88543119Y-75165646D02*
X88471691Y-75451360D01*
X88471691Y-75451360D02*
X88400262Y-75594217D01*
X88400262Y-75594217D02*
X88257405Y-75737075D01*
X88257405Y-75737075D02*
X88043119Y-75808503D01*
X88043119Y-75808503D02*
X87685976Y-75808503D01*
X89114548Y-75379932D02*
X89828834Y-75379932D01*
X88971691Y-75808503D02*
X89471691Y-74308503D01*
X89471691Y-74308503D02*
X89971691Y-75808503D01*
X86043120Y-71908503D02*
X86543120Y-73408503D01*
X86543120Y-73408503D02*
X87043120Y-71908503D01*
X88400262Y-73265646D02*
X88328834Y-73337075D01*
X88328834Y-73337075D02*
X88114548Y-73408503D01*
X88114548Y-73408503D02*
X87971691Y-73408503D01*
X87971691Y-73408503D02*
X87757405Y-73337075D01*
X87757405Y-73337075D02*
X87614548Y-73194217D01*
X87614548Y-73194217D02*
X87543119Y-73051360D01*
X87543119Y-73051360D02*
X87471691Y-72765646D01*
X87471691Y-72765646D02*
X87471691Y-72551360D01*
X87471691Y-72551360D02*
X87543119Y-72265646D01*
X87543119Y-72265646D02*
X87614548Y-72122789D01*
X87614548Y-72122789D02*
X87757405Y-71979932D01*
X87757405Y-71979932D02*
X87971691Y-71908503D01*
X87971691Y-71908503D02*
X88114548Y-71908503D01*
X88114548Y-71908503D02*
X88328834Y-71979932D01*
X88328834Y-71979932D02*
X88400262Y-72051360D01*
X89900262Y-73265646D02*
X89828834Y-73337075D01*
X89828834Y-73337075D02*
X89614548Y-73408503D01*
X89614548Y-73408503D02*
X89471691Y-73408503D01*
X89471691Y-73408503D02*
X89257405Y-73337075D01*
X89257405Y-73337075D02*
X89114548Y-73194217D01*
X89114548Y-73194217D02*
X89043119Y-73051360D01*
X89043119Y-73051360D02*
X88971691Y-72765646D01*
X88971691Y-72765646D02*
X88971691Y-72551360D01*
X88971691Y-72551360D02*
X89043119Y-72265646D01*
X89043119Y-72265646D02*
X89114548Y-72122789D01*
X89114548Y-72122789D02*
X89257405Y-71979932D01*
X89257405Y-71979932D02*
X89471691Y-71908503D01*
X89471691Y-71908503D02*
X89614548Y-71908503D01*
X89614548Y-71908503D02*
X89828834Y-71979932D01*
X89828834Y-71979932D02*
X89900262Y-72051360D01*
X87043120Y-69579932D02*
X86900263Y-69508503D01*
X86900263Y-69508503D02*
X86685977Y-69508503D01*
X86685977Y-69508503D02*
X86471691Y-69579932D01*
X86471691Y-69579932D02*
X86328834Y-69722789D01*
X86328834Y-69722789D02*
X86257405Y-69865646D01*
X86257405Y-69865646D02*
X86185977Y-70151360D01*
X86185977Y-70151360D02*
X86185977Y-70365646D01*
X86185977Y-70365646D02*
X86257405Y-70651360D01*
X86257405Y-70651360D02*
X86328834Y-70794217D01*
X86328834Y-70794217D02*
X86471691Y-70937075D01*
X86471691Y-70937075D02*
X86685977Y-71008503D01*
X86685977Y-71008503D02*
X86828834Y-71008503D01*
X86828834Y-71008503D02*
X87043120Y-70937075D01*
X87043120Y-70937075D02*
X87114548Y-70865646D01*
X87114548Y-70865646D02*
X87114548Y-70365646D01*
X87114548Y-70365646D02*
X86828834Y-70365646D01*
X87757405Y-71008503D02*
X87757405Y-69508503D01*
X87757405Y-69508503D02*
X88614548Y-71008503D01*
X88614548Y-71008503D02*
X88614548Y-69508503D01*
X89328834Y-71008503D02*
X89328834Y-69508503D01*
X89328834Y-69508503D02*
X89685977Y-69508503D01*
X89685977Y-69508503D02*
X89900263Y-69579932D01*
X89900263Y-69579932D02*
X90043120Y-69722789D01*
X90043120Y-69722789D02*
X90114549Y-69865646D01*
X90114549Y-69865646D02*
X90185977Y-70151360D01*
X90185977Y-70151360D02*
X90185977Y-70365646D01*
X90185977Y-70365646D02*
X90114549Y-70651360D01*
X90114549Y-70651360D02*
X90043120Y-70794217D01*
X90043120Y-70794217D02*
X89900263Y-70937075D01*
X89900263Y-70937075D02*
X89685977Y-71008503D01*
X89685977Y-71008503D02*
X89328834Y-71008503D01*
X98876453Y-51685408D02*
X100400263Y-51685408D01*
X89776453Y-51685408D02*
X91300263Y-51685408D01*
X90538358Y-52447313D02*
X90538358Y-50923503D01*
X93064720Y-47766851D02*
X93180834Y-47805556D01*
X93180834Y-47805556D02*
X93219539Y-47844260D01*
X93219539Y-47844260D02*
X93258243Y-47921670D01*
X93258243Y-47921670D02*
X93258243Y-48037784D01*
X93258243Y-48037784D02*
X93219539Y-48115194D01*
X93219539Y-48115194D02*
X93180834Y-48153899D01*
X93180834Y-48153899D02*
X93103424Y-48192603D01*
X93103424Y-48192603D02*
X92793786Y-48192603D01*
X92793786Y-48192603D02*
X92793786Y-47379803D01*
X92793786Y-47379803D02*
X93064720Y-47379803D01*
X93064720Y-47379803D02*
X93142129Y-47418508D01*
X93142129Y-47418508D02*
X93180834Y-47457213D01*
X93180834Y-47457213D02*
X93219539Y-47534622D01*
X93219539Y-47534622D02*
X93219539Y-47612032D01*
X93219539Y-47612032D02*
X93180834Y-47689441D01*
X93180834Y-47689441D02*
X93142129Y-47728146D01*
X93142129Y-47728146D02*
X93064720Y-47766851D01*
X93064720Y-47766851D02*
X92793786Y-47766851D01*
X93954929Y-48192603D02*
X93954929Y-47766851D01*
X93954929Y-47766851D02*
X93916224Y-47689441D01*
X93916224Y-47689441D02*
X93838815Y-47650737D01*
X93838815Y-47650737D02*
X93683996Y-47650737D01*
X93683996Y-47650737D02*
X93606586Y-47689441D01*
X93954929Y-48153899D02*
X93877520Y-48192603D01*
X93877520Y-48192603D02*
X93683996Y-48192603D01*
X93683996Y-48192603D02*
X93606586Y-48153899D01*
X93606586Y-48153899D02*
X93567882Y-48076489D01*
X93567882Y-48076489D02*
X93567882Y-47999079D01*
X93567882Y-47999079D02*
X93606586Y-47921670D01*
X93606586Y-47921670D02*
X93683996Y-47882965D01*
X93683996Y-47882965D02*
X93877520Y-47882965D01*
X93877520Y-47882965D02*
X93954929Y-47844260D01*
X94225862Y-47650737D02*
X94535500Y-47650737D01*
X94341976Y-47379803D02*
X94341976Y-48076489D01*
X94341976Y-48076489D02*
X94380681Y-48153899D01*
X94380681Y-48153899D02*
X94458091Y-48192603D01*
X94458091Y-48192603D02*
X94535500Y-48192603D01*
X94690319Y-47650737D02*
X94999957Y-47650737D01*
X94806433Y-47379803D02*
X94806433Y-48076489D01*
X94806433Y-48076489D02*
X94845138Y-48153899D01*
X94845138Y-48153899D02*
X94922548Y-48192603D01*
X94922548Y-48192603D02*
X94999957Y-48192603D01*
X95580528Y-48153899D02*
X95503119Y-48192603D01*
X95503119Y-48192603D02*
X95348300Y-48192603D01*
X95348300Y-48192603D02*
X95270890Y-48153899D01*
X95270890Y-48153899D02*
X95232186Y-48076489D01*
X95232186Y-48076489D02*
X95232186Y-47766851D01*
X95232186Y-47766851D02*
X95270890Y-47689441D01*
X95270890Y-47689441D02*
X95348300Y-47650737D01*
X95348300Y-47650737D02*
X95503119Y-47650737D01*
X95503119Y-47650737D02*
X95580528Y-47689441D01*
X95580528Y-47689441D02*
X95619233Y-47766851D01*
X95619233Y-47766851D02*
X95619233Y-47844260D01*
X95619233Y-47844260D02*
X95232186Y-47921670D01*
X95967576Y-48192603D02*
X95967576Y-47650737D01*
X95967576Y-47805556D02*
X96006281Y-47728146D01*
X96006281Y-47728146D02*
X96044986Y-47689441D01*
X96044986Y-47689441D02*
X96122395Y-47650737D01*
X96122395Y-47650737D02*
X96199805Y-47650737D01*
X96393329Y-47650737D02*
X96586853Y-48192603D01*
X96780376Y-47650737D02*
X96586853Y-48192603D01*
X96586853Y-48192603D02*
X96509443Y-48386127D01*
X96509443Y-48386127D02*
X96470738Y-48424832D01*
X96470738Y-48424832D02*
X96393329Y-48463537D01*
X103657405Y-97308503D02*
X103657405Y-95808503D01*
X103657405Y-95808503D02*
X104014548Y-95808503D01*
X104014548Y-95808503D02*
X104228834Y-95879932D01*
X104228834Y-95879932D02*
X104371691Y-96022789D01*
X104371691Y-96022789D02*
X104443120Y-96165646D01*
X104443120Y-96165646D02*
X104514548Y-96451360D01*
X104514548Y-96451360D02*
X104514548Y-96665646D01*
X104514548Y-96665646D02*
X104443120Y-96951360D01*
X104443120Y-96951360D02*
X104371691Y-97094217D01*
X104371691Y-97094217D02*
X104228834Y-97237075D01*
X104228834Y-97237075D02*
X104014548Y-97308503D01*
X104014548Y-97308503D02*
X103657405Y-97308503D01*
X105728834Y-97237075D02*
X105585977Y-97308503D01*
X105585977Y-97308503D02*
X105300263Y-97308503D01*
X105300263Y-97308503D02*
X105157405Y-97237075D01*
X105157405Y-97237075D02*
X105085977Y-97094217D01*
X105085977Y-97094217D02*
X105085977Y-96522789D01*
X105085977Y-96522789D02*
X105157405Y-96379932D01*
X105157405Y-96379932D02*
X105300263Y-96308503D01*
X105300263Y-96308503D02*
X105585977Y-96308503D01*
X105585977Y-96308503D02*
X105728834Y-96379932D01*
X105728834Y-96379932D02*
X105800263Y-96522789D01*
X105800263Y-96522789D02*
X105800263Y-96665646D01*
X105800263Y-96665646D02*
X105085977Y-96808503D01*
X106371691Y-97237075D02*
X106514548Y-97308503D01*
X106514548Y-97308503D02*
X106800262Y-97308503D01*
X106800262Y-97308503D02*
X106943119Y-97237075D01*
X106943119Y-97237075D02*
X107014548Y-97094217D01*
X107014548Y-97094217D02*
X107014548Y-97022789D01*
X107014548Y-97022789D02*
X106943119Y-96879932D01*
X106943119Y-96879932D02*
X106800262Y-96808503D01*
X106800262Y-96808503D02*
X106585977Y-96808503D01*
X106585977Y-96808503D02*
X106443119Y-96737075D01*
X106443119Y-96737075D02*
X106371691Y-96594217D01*
X106371691Y-96594217D02*
X106371691Y-96522789D01*
X106371691Y-96522789D02*
X106443119Y-96379932D01*
X106443119Y-96379932D02*
X106585977Y-96308503D01*
X106585977Y-96308503D02*
X106800262Y-96308503D01*
X106800262Y-96308503D02*
X106943119Y-96379932D01*
X107657405Y-97308503D02*
X107657405Y-96308503D01*
X107657405Y-95808503D02*
X107585977Y-95879932D01*
X107585977Y-95879932D02*
X107657405Y-95951360D01*
X107657405Y-95951360D02*
X107728834Y-95879932D01*
X107728834Y-95879932D02*
X107657405Y-95808503D01*
X107657405Y-95808503D02*
X107657405Y-95951360D01*
X109014549Y-96308503D02*
X109014549Y-97522789D01*
X109014549Y-97522789D02*
X108943120Y-97665646D01*
X108943120Y-97665646D02*
X108871691Y-97737075D01*
X108871691Y-97737075D02*
X108728834Y-97808503D01*
X108728834Y-97808503D02*
X108514549Y-97808503D01*
X108514549Y-97808503D02*
X108371691Y-97737075D01*
X109014549Y-97237075D02*
X108871691Y-97308503D01*
X108871691Y-97308503D02*
X108585977Y-97308503D01*
X108585977Y-97308503D02*
X108443120Y-97237075D01*
X108443120Y-97237075D02*
X108371691Y-97165646D01*
X108371691Y-97165646D02*
X108300263Y-97022789D01*
X108300263Y-97022789D02*
X108300263Y-96594217D01*
X108300263Y-96594217D02*
X108371691Y-96451360D01*
X108371691Y-96451360D02*
X108443120Y-96379932D01*
X108443120Y-96379932D02*
X108585977Y-96308503D01*
X108585977Y-96308503D02*
X108871691Y-96308503D01*
X108871691Y-96308503D02*
X109014549Y-96379932D01*
X109728834Y-96308503D02*
X109728834Y-97308503D01*
X109728834Y-96451360D02*
X109800263Y-96379932D01*
X109800263Y-96379932D02*
X109943120Y-96308503D01*
X109943120Y-96308503D02*
X110157406Y-96308503D01*
X110157406Y-96308503D02*
X110300263Y-96379932D01*
X110300263Y-96379932D02*
X110371692Y-96522789D01*
X110371692Y-96522789D02*
X110371692Y-97308503D01*
X111657406Y-97237075D02*
X111514549Y-97308503D01*
X111514549Y-97308503D02*
X111228835Y-97308503D01*
X111228835Y-97308503D02*
X111085977Y-97237075D01*
X111085977Y-97237075D02*
X111014549Y-97094217D01*
X111014549Y-97094217D02*
X111014549Y-96522789D01*
X111014549Y-96522789D02*
X111085977Y-96379932D01*
X111085977Y-96379932D02*
X111228835Y-96308503D01*
X111228835Y-96308503D02*
X111514549Y-96308503D01*
X111514549Y-96308503D02*
X111657406Y-96379932D01*
X111657406Y-96379932D02*
X111728835Y-96522789D01*
X111728835Y-96522789D02*
X111728835Y-96665646D01*
X111728835Y-96665646D02*
X111014549Y-96808503D01*
X113014549Y-97308503D02*
X113014549Y-95808503D01*
X113014549Y-97237075D02*
X112871691Y-97308503D01*
X112871691Y-97308503D02*
X112585977Y-97308503D01*
X112585977Y-97308503D02*
X112443120Y-97237075D01*
X112443120Y-97237075D02*
X112371691Y-97165646D01*
X112371691Y-97165646D02*
X112300263Y-97022789D01*
X112300263Y-97022789D02*
X112300263Y-96594217D01*
X112300263Y-96594217D02*
X112371691Y-96451360D01*
X112371691Y-96451360D02*
X112443120Y-96379932D01*
X112443120Y-96379932D02*
X112585977Y-96308503D01*
X112585977Y-96308503D02*
X112871691Y-96308503D01*
X112871691Y-96308503D02*
X113014549Y-96379932D01*
X114871691Y-97308503D02*
X114871691Y-95808503D01*
X114871691Y-96379932D02*
X115014549Y-96308503D01*
X115014549Y-96308503D02*
X115300263Y-96308503D01*
X115300263Y-96308503D02*
X115443120Y-96379932D01*
X115443120Y-96379932D02*
X115514549Y-96451360D01*
X115514549Y-96451360D02*
X115585977Y-96594217D01*
X115585977Y-96594217D02*
X115585977Y-97022789D01*
X115585977Y-97022789D02*
X115514549Y-97165646D01*
X115514549Y-97165646D02*
X115443120Y-97237075D01*
X115443120Y-97237075D02*
X115300263Y-97308503D01*
X115300263Y-97308503D02*
X115014549Y-97308503D01*
X115014549Y-97308503D02*
X114871691Y-97237075D01*
X116085977Y-96308503D02*
X116443120Y-97308503D01*
X116800263Y-96308503D02*
X116443120Y-97308503D01*
X116443120Y-97308503D02*
X116300263Y-97665646D01*
X116300263Y-97665646D02*
X116228834Y-97737075D01*
X116228834Y-97737075D02*
X116085977Y-97808503D01*
X118443120Y-97237075D02*
X118657406Y-97308503D01*
X118657406Y-97308503D02*
X119014548Y-97308503D01*
X119014548Y-97308503D02*
X119157406Y-97237075D01*
X119157406Y-97237075D02*
X119228834Y-97165646D01*
X119228834Y-97165646D02*
X119300263Y-97022789D01*
X119300263Y-97022789D02*
X119300263Y-96879932D01*
X119300263Y-96879932D02*
X119228834Y-96737075D01*
X119228834Y-96737075D02*
X119157406Y-96665646D01*
X119157406Y-96665646D02*
X119014548Y-96594217D01*
X119014548Y-96594217D02*
X118728834Y-96522789D01*
X118728834Y-96522789D02*
X118585977Y-96451360D01*
X118585977Y-96451360D02*
X118514548Y-96379932D01*
X118514548Y-96379932D02*
X118443120Y-96237075D01*
X118443120Y-96237075D02*
X118443120Y-96094217D01*
X118443120Y-96094217D02*
X118514548Y-95951360D01*
X118514548Y-95951360D02*
X118585977Y-95879932D01*
X118585977Y-95879932D02*
X118728834Y-95808503D01*
X118728834Y-95808503D02*
X119085977Y-95808503D01*
X119085977Y-95808503D02*
X119300263Y-95879932D01*
X120728834Y-95879932D02*
X120585977Y-95808503D01*
X120585977Y-95808503D02*
X120371691Y-95808503D01*
X120371691Y-95808503D02*
X120157405Y-95879932D01*
X120157405Y-95879932D02*
X120014548Y-96022789D01*
X120014548Y-96022789D02*
X119943119Y-96165646D01*
X119943119Y-96165646D02*
X119871691Y-96451360D01*
X119871691Y-96451360D02*
X119871691Y-96665646D01*
X119871691Y-96665646D02*
X119943119Y-96951360D01*
X119943119Y-96951360D02*
X120014548Y-97094217D01*
X120014548Y-97094217D02*
X120157405Y-97237075D01*
X120157405Y-97237075D02*
X120371691Y-97308503D01*
X120371691Y-97308503D02*
X120514548Y-97308503D01*
X120514548Y-97308503D02*
X120728834Y-97237075D01*
X120728834Y-97237075D02*
X120800262Y-97165646D01*
X120800262Y-97165646D02*
X120800262Y-96665646D01*
X120800262Y-96665646D02*
X120514548Y-96665646D01*
D11*
%TO.C,J5*%
X92015000Y-52060000D02*
X92015000Y-53660000D01*
X92015000Y-53660000D02*
X93815000Y-53660000D01*
X93285000Y-49190000D02*
X96715000Y-49190000D01*
X93815000Y-53660000D02*
X93815000Y-54600000D01*
X97985000Y-52060000D02*
X97985000Y-53660000D01*
X97985000Y-53660000D02*
X96185000Y-53660000D01*
%TO.C,J4*%
X92070000Y-71690000D02*
X92070000Y-84450000D01*
X92070000Y-71690000D02*
X94730000Y-71690000D01*
X92070000Y-84450000D02*
X94730000Y-84450000D01*
X93400000Y-69090000D02*
X94730000Y-69090000D01*
X94730000Y-69090000D02*
X94730000Y-70420000D01*
X94730000Y-71690000D02*
X94730000Y-84450000D01*
%TO.C,J3*%
X115595000Y-52410000D02*
X114545000Y-52410000D01*
X115595000Y-51260000D02*
X115595000Y-52410000D01*
X108545000Y-49290000D02*
X114425000Y-49290000D01*
X108425000Y-52410000D02*
X108425000Y-53400000D01*
X107375000Y-52410000D02*
X108425000Y-52410000D01*
X107375000Y-51260000D02*
X107375000Y-52410000D01*
%TO.C,J2*%
X101970000Y-62060000D02*
X101970000Y-97680000D01*
X101970000Y-59460000D02*
X101970000Y-60790000D01*
X100640000Y-59460000D02*
X101970000Y-59460000D01*
X99310000Y-97680000D02*
X101970000Y-97680000D01*
X99310000Y-62060000D02*
X101970000Y-62060000D01*
X99310000Y-62060000D02*
X99310000Y-97680000D01*
%TO.C,J1*%
X125310000Y-62060000D02*
X125310000Y-97680000D01*
X125310000Y-62060000D02*
X127970000Y-62060000D01*
X125310000Y-97680000D02*
X127970000Y-97680000D01*
X126640000Y-59460000D02*
X127970000Y-59460000D01*
X127970000Y-59460000D02*
X127970000Y-60790000D01*
X127970000Y-62060000D02*
X127970000Y-97680000D01*
%TD*%
%LPC*%
D12*
%TO.C,J5*%
X94375000Y-53750000D03*
X95625000Y-53750000D03*
D13*
X92525000Y-50400000D03*
X97475000Y-50400000D03*
%TD*%
D14*
%TO.C,J4*%
X93400000Y-70420000D03*
D15*
X93400000Y-72960000D03*
X93400000Y-75500000D03*
X93400000Y-78040000D03*
X93400000Y-80580000D03*
X93400000Y-83120000D03*
%TD*%
D16*
%TO.C,J3*%
X115285000Y-50100000D03*
X107685000Y-50100000D03*
D17*
X113985000Y-52625000D03*
X112985000Y-52625000D03*
X111985000Y-52625000D03*
X110985000Y-52625000D03*
X109985000Y-52625000D03*
X108985000Y-52625000D03*
%TD*%
D15*
%TO.C,J2*%
X100640000Y-96350000D03*
X100640000Y-93810000D03*
X100640000Y-91270000D03*
X100640000Y-88730000D03*
X100640000Y-86190000D03*
X100640000Y-83650000D03*
X100640000Y-81110000D03*
X100640000Y-78570000D03*
X100640000Y-76030000D03*
X100640000Y-73490000D03*
X100640000Y-70950000D03*
X100640000Y-68410000D03*
X100640000Y-65870000D03*
X100640000Y-63330000D03*
D14*
X100640000Y-60790000D03*
%TD*%
%TO.C,J1*%
X126640000Y-60790000D03*
D15*
X126640000Y-63330000D03*
X126640000Y-65870000D03*
X126640000Y-68410000D03*
X126640000Y-70950000D03*
X126640000Y-73490000D03*
X126640000Y-76030000D03*
X126640000Y-78570000D03*
X126640000Y-81110000D03*
X126640000Y-83650000D03*
X126640000Y-86190000D03*
X126640000Y-88730000D03*
X126640000Y-91270000D03*
X126640000Y-93810000D03*
X126640000Y-96350000D03*
%TD*%
%LPD*%
M02*
